0
SECTION
2
HEADER
9
$INSUNITS
70
1
0
ENDSEC
0
SECTION
2
TABLES
0
TABLE
2
LAYER
0
ENDTAB
0
ENDSEC
0
SECTION
2
ENTITIES
0
LINE
8
front_outsideCutPath
10
0
20
209
11
0
21
196
0
LINE
8
front_outsideCutPath
10
0
20
196
11
6
21
196
0
LINE
8
front_outsideCutPath
10
6
20
196
11
6
21
184
0
LINE
8
front_outsideCutPath
10
6
20
184
11
0
21
184
0
LINE
8
front_outsideCutPath
10
0
20
184
11
0
21
172
0
LINE
8
front_outsideCutPath
10
0
20
172
11
6
21
172
0
LINE
8
front_outsideCutPath
10
6
20
172
11
6
21
160
0
LINE
8
front_outsideCutPath
10
6
20
160
11
0
21
160
0
LINE
8
front_outsideCutPath
10
0
20
160
11
0
21
148
0
LINE
8
front_outsideCutPath
10
0
20
148
11
6
21
148
0
LINE
8
front_outsideCutPath
10
6
20
148
11
6
21
136
0
LINE
8
front_outsideCutPath
10
6
20
136
11
0
21
136
0
LINE
8
front_outsideCutPath
10
0
20
136
11
0
21
124
0
LINE
8
front_outsideCutPath
10
0
20
124
11
6
21
124
0
LINE
8
front_outsideCutPath
10
6
20
124
11
6
21
112
0
LINE
8
front_outsideCutPath
10
6
20
112
11
0
21
112
0
LINE
8
front_outsideCutPath
10
0
20
112
11
0
21
100
0
LINE
8
front_outsideCutPath
10
0
20
100
11
6
21
100
0
LINE
8
front_outsideCutPath
10
6
20
100
11
6
21
88
0
LINE
8
front_outsideCutPath
10
6
20
88
11
0
21
88
0
LINE
8
front_outsideCutPath
10
0
20
88
11
0
21
76
0
LINE
8
front_outsideCutPath
10
0
20
76
11
6
21
76
0
LINE
8
front_outsideCutPath
10
6
20
76
11
6
21
64
0
LINE
8
front_outsideCutPath
10
6
20
64
11
0
21
64
0
LINE
8
front_outsideCutPath
10
0
20
64
11
0
21
52
0
LINE
8
front_outsideCutPath
10
0
20
52
11
6
21
52
0
LINE
8
front_outsideCutPath
10
6
20
52
11
6
21
40
0
LINE
8
front_outsideCutPath
10
6
20
40
11
0
21
40
0
LINE
8
front_outsideCutPath
10
0
20
40
11
0
21
28
0
LINE
8
front_outsideCutPath
10
0
20
28
11
6
21
28
0
LINE
8
front_outsideCutPath
10
6
20
28
11
6
21
16
0
LINE
8
front_outsideCutPath
10
6
20
16
11
0
21
16
0
LINE
8
front_outsideCutPath
10
0
20
16
11
0
21
3
0
LINE
8
front_outsideCutPath
10
0
20
3
11
19
21
3
0
LINE
8
front_outsideCutPath
10
19
20
3
11
19
21
9
0
LINE
8
front_outsideCutPath
10
19
20
9
11
31
21
9
0
LINE
8
front_outsideCutPath
10
31
20
9
11
31
21
3
0
LINE
8
front_outsideCutPath
10
31
20
3
11
43
21
3
0
LINE
8
front_outsideCutPath
10
43
20
3
11
43
21
9
0
LINE
8
front_outsideCutPath
10
43
20
9
11
55
21
9
0
LINE
8
front_outsideCutPath
10
55
20
9
11
55
21
3
0
LINE
8
front_outsideCutPath
10
55
20
3
11
67
21
3
0
LINE
8
front_outsideCutPath
10
67
20
3
11
67
21
9
0
LINE
8
front_outsideCutPath
10
67
20
9
11
79
21
9
0
LINE
8
front_outsideCutPath
10
79
20
9
11
79
21
3
0
LINE
8
front_outsideCutPath
10
79
20
3
11
91
21
3
0
LINE
8
front_outsideCutPath
10
91
20
3
11
91
21
9
0
LINE
8
front_outsideCutPath
10
91
20
9
11
103
21
9
0
LINE
8
front_outsideCutPath
10
103
20
9
11
103
21
3
0
LINE
8
front_outsideCutPath
10
103
20
3
11
115
21
3
0
LINE
8
front_outsideCutPath
10
115
20
3
11
115
21
9
0
LINE
8
front_outsideCutPath
10
115
20
9
11
127
21
9
0
LINE
8
front_outsideCutPath
10
127
20
9
11
127
21
3
0
LINE
8
front_outsideCutPath
10
127
20
3
11
139
21
3
0
LINE
8
front_outsideCutPath
10
139
20
3
11
139
21
9
0
LINE
8
front_outsideCutPath
10
139
20
9
11
151
21
9
0
LINE
8
front_outsideCutPath
10
151
20
9
11
151
21
3
0
LINE
8
front_outsideCutPath
10
151
20
3
11
163
21
3
0
LINE
8
front_outsideCutPath
10
163
20
3
11
163
21
9
0
LINE
8
front_outsideCutPath
10
163
20
9
11
175
21
9
0
LINE
8
front_outsideCutPath
10
175
20
9
11
175
21
3
0
LINE
8
front_outsideCutPath
10
175
20
3
11
187
21
3
0
LINE
8
front_outsideCutPath
10
187
20
3
11
187
21
9
0
LINE
8
front_outsideCutPath
10
187
20
9
11
199
21
9
0
LINE
8
front_outsideCutPath
10
199
20
9
11
199
21
3
0
LINE
8
front_outsideCutPath
10
199
20
3
11
211
21
3
0
LINE
8
front_outsideCutPath
10
211
20
3
11
211
21
9
0
LINE
8
front_outsideCutPath
10
211
20
9
11
223
21
9
0
LINE
8
front_outsideCutPath
10
223
20
9
11
223
21
3
0
LINE
8
front_outsideCutPath
10
223
20
3
11
235
21
3
0
LINE
8
front_outsideCutPath
10
235
20
3
11
235
21
9
0
LINE
8
front_outsideCutPath
10
235
20
9
11
247
21
9
0
LINE
8
front_outsideCutPath
10
247
20
9
11
247
21
3
0
LINE
8
front_outsideCutPath
10
247
20
3
11
259
21
3
0
LINE
8
front_outsideCutPath
10
259
20
3
11
259
21
9
0
LINE
8
front_outsideCutPath
10
259
20
9
11
271
21
9
0
LINE
8
front_outsideCutPath
10
271
20
9
11
271
21
3
0
LINE
8
front_outsideCutPath
10
271
20
3
11
283
21
3
0
LINE
8
front_outsideCutPath
10
283
20
3
11
283
21
9
0
LINE
8
front_outsideCutPath
10
283
20
9
11
295
21
9
0
LINE
8
front_outsideCutPath
10
295
20
9
11
295
21
3
0
LINE
8
front_outsideCutPath
10
295
20
3
11
307
21
3
0
LINE
8
front_outsideCutPath
10
307
20
3
11
307
21
9
0
LINE
8
front_outsideCutPath
10
307
20
9
11
319
21
9
0
LINE
8
front_outsideCutPath
10
319
20
9
11
319
21
3
0
LINE
8
front_outsideCutPath
10
319
20
3
11
331
21
3
0
LINE
8
front_outsideCutPath
10
331
20
3
11
331
21
9
0
LINE
8
front_outsideCutPath
10
331
20
9
11
343
21
9
0
LINE
8
front_outsideCutPath
10
343
20
9
11
343
21
3
0
LINE
8
front_outsideCutPath
10
343
20
3
11
362
21
3
0
LINE
8
front_outsideCutPath
10
362
20
3
11
362
21
16
0
LINE
8
front_outsideCutPath
10
362
20
16
11
356
21
16
0
LINE
8
front_outsideCutPath
10
356
20
16
11
356
21
28
0
LINE
8
front_outsideCutPath
10
356
20
28
11
362
21
28
0
LINE
8
front_outsideCutPath
10
362
20
28
11
362
21
40
0
LINE
8
front_outsideCutPath
10
362
20
40
11
356
21
40
0
LINE
8
front_outsideCutPath
10
356
20
40
11
356
21
52
0
LINE
8
front_outsideCutPath
10
356
20
52
11
362
21
52
0
LINE
8
front_outsideCutPath
10
362
20
52
11
362
21
64
0
LINE
8
front_outsideCutPath
10
362
20
64
11
356
21
64
0
LINE
8
front_outsideCutPath
10
356
20
64
11
356
21
76
0
LINE
8
front_outsideCutPath
10
356
20
76
11
362
21
76
0
LINE
8
front_outsideCutPath
10
362
20
76
11
362
21
88
0
LINE
8
front_outsideCutPath
10
362
20
88
11
356
21
88
0
LINE
8
front_outsideCutPath
10
356
20
88
11
356
21
100
0
LINE
8
front_outsideCutPath
10
356
20
100
11
362
21
100
0
LINE
8
front_outsideCutPath
10
362
20
100
11
362
21
112
0
LINE
8
front_outsideCutPath
10
362
20
112
11
356
21
112
0
LINE
8
front_outsideCutPath
10
356
20
112
11
356
21
124
0
LINE
8
front_outsideCutPath
10
356
20
124
11
362
21
124
0
LINE
8
front_outsideCutPath
10
362
20
124
11
362
21
136
0
LINE
8
front_outsideCutPath
10
362
20
136
11
356
21
136
0
LINE
8
front_outsideCutPath
10
356
20
136
11
356
21
148
0
LINE
8
front_outsideCutPath
10
356
20
148
11
362
21
148
0
LINE
8
front_outsideCutPath
10
362
20
148
11
362
21
160
0
LINE
8
front_outsideCutPath
10
362
20
160
11
356
21
160
0
LINE
8
front_outsideCutPath
10
356
20
160
11
356
21
172
0
LINE
8
front_outsideCutPath
10
356
20
172
11
362
21
172
0
LINE
8
front_outsideCutPath
10
362
20
172
11
362
21
184
0
LINE
8
front_outsideCutPath
10
362
20
184
11
356
21
184
0
LINE
8
front_outsideCutPath
10
356
20
184
11
356
21
196
0
LINE
8
front_outsideCutPath
10
356
20
196
11
362
21
196
0
LINE
8
front_outsideCutPath
10
362
20
196
11
362
21
209
0
LINE
8
front_outsideCutPath
10
362
20
209
11
0
21
209
0
LINE
8
left_outsideCutPath
10
371
20
209
11
371
21
196
0
LINE
8
left_outsideCutPath
10
371
20
196
11
365
21
196
0
LINE
8
left_outsideCutPath
10
365
20
196
11
365
21
184
0
LINE
8
left_outsideCutPath
10
365
20
184
11
371
21
184
0
LINE
8
left_outsideCutPath
10
371
20
184
11
371
21
172
0
LINE
8
left_outsideCutPath
10
371
20
172
11
365
21
172
0
LINE
8
left_outsideCutPath
10
365
20
172
11
365
21
160
0
LINE
8
left_outsideCutPath
10
365
20
160
11
371
21
160
0
LINE
8
left_outsideCutPath
10
371
20
160
11
371
21
148
0
LINE
8
left_outsideCutPath
10
371
20
148
11
365
21
148
0
LINE
8
left_outsideCutPath
10
365
20
148
11
365
21
136
0
LINE
8
left_outsideCutPath
10
365
20
136
11
371
21
136
0
LINE
8
left_outsideCutPath
10
371
20
136
11
371
21
124
0
LINE
8
left_outsideCutPath
10
371
20
124
11
365
21
124
0
LINE
8
left_outsideCutPath
10
365
20
124
11
365
21
112
0
LINE
8
left_outsideCutPath
10
365
20
112
11
371
21
112
0
LINE
8
left_outsideCutPath
10
371
20
112
11
371
21
100
0
LINE
8
left_outsideCutPath
10
371
20
100
11
365
21
100
0
LINE
8
left_outsideCutPath
10
365
20
100
11
365
21
88
0
LINE
8
left_outsideCutPath
10
365
20
88
11
371
21
88
0
LINE
8
left_outsideCutPath
10
371
20
88
11
371
21
76
0
LINE
8
left_outsideCutPath
10
371
20
76
11
365
21
76
0
LINE
8
left_outsideCutPath
10
365
20
76
11
365
21
64
0
LINE
8
left_outsideCutPath
10
365
20
64
11
371
21
64
0
LINE
8
left_outsideCutPath
10
371
20
64
11
371
21
52
0
LINE
8
left_outsideCutPath
10
371
20
52
11
365
21
52
0
LINE
8
left_outsideCutPath
10
365
20
52
11
365
21
40
0
LINE
8
left_outsideCutPath
10
365
20
40
11
371
21
40
0
LINE
8
left_outsideCutPath
10
371
20
40
11
371
21
28
0
LINE
8
left_outsideCutPath
10
371
20
28
11
365
21
28
0
LINE
8
left_outsideCutPath
10
365
20
28
11
365
21
16
0
LINE
8
left_outsideCutPath
10
365
20
16
11
371
21
16
0
LINE
8
left_outsideCutPath
10
371
20
16
11
371
21
3
0
LINE
8
left_outsideCutPath
10
371
20
3
11
384
21
3
0
LINE
8
left_outsideCutPath
10
384
20
3
11
384
21
9
0
LINE
8
left_outsideCutPath
10
384
20
9
11
396
21
9
0
LINE
8
left_outsideCutPath
10
396
20
9
11
396
21
3
0
LINE
8
left_outsideCutPath
10
396
20
3
11
408
21
3
0
LINE
8
left_outsideCutPath
10
408
20
3
11
408
21
9
0
LINE
8
left_outsideCutPath
10
408
20
9
11
420
21
9
0
LINE
8
left_outsideCutPath
10
420
20
9
11
420
21
3
0
LINE
8
left_outsideCutPath
10
420
20
3
11
432
21
3
0
LINE
8
left_outsideCutPath
10
432
20
3
11
432
21
9
0
LINE
8
left_outsideCutPath
10
432
20
9
11
444
21
9
0
LINE
8
left_outsideCutPath
10
444
20
9
11
444
21
3
0
LINE
8
left_outsideCutPath
10
444
20
3
11
456
21
3
0
LINE
8
left_outsideCutPath
10
456
20
3
11
456
21
9
0
LINE
8
left_outsideCutPath
10
456
20
9
11
468
21
9
0
LINE
8
left_outsideCutPath
10
468
20
9
11
468
21
3
0
LINE
8
left_outsideCutPath
10
468
20
3
11
480
21
3
0
LINE
8
left_outsideCutPath
10
480
20
3
11
480
21
9
0
LINE
8
left_outsideCutPath
10
480
20
9
11
492
21
9
0
LINE
8
left_outsideCutPath
10
492
20
9
11
492
21
3
0
LINE
8
left_outsideCutPath
10
492
20
3
11
504
21
3
0
LINE
8
left_outsideCutPath
10
504
20
3
11
504
21
9
0
LINE
8
left_outsideCutPath
10
504
20
9
11
516
21
9
0
LINE
8
left_outsideCutPath
10
516
20
9
11
516
21
3
0
LINE
8
left_outsideCutPath
10
516
20
3
11
528
21
3
0
LINE
8
left_outsideCutPath
10
528
20
3
11
528
21
9
0
LINE
8
left_outsideCutPath
10
528
20
9
11
540
21
9
0
LINE
8
left_outsideCutPath
10
540
20
9
11
540
21
3
0
LINE
8
left_outsideCutPath
10
540
20
3
11
552
21
3
0
LINE
8
left_outsideCutPath
10
552
20
3
11
552
21
9
0
LINE
8
left_outsideCutPath
10
552
20
9
11
564
21
9
0
LINE
8
left_outsideCutPath
10
564
20
9
11
564
21
3
0
LINE
8
left_outsideCutPath
10
564
20
3
11
576
21
3
0
LINE
8
left_outsideCutPath
10
576
20
3
11
576
21
9
0
LINE
8
left_outsideCutPath
10
576
20
9
11
588
21
9
0
LINE
8
left_outsideCutPath
10
588
20
9
11
588
21
3
0
LINE
8
left_outsideCutPath
10
588
20
3
11
600
21
3
0
LINE
8
left_outsideCutPath
10
600
20
3
11
600
21
9
0
LINE
8
left_outsideCutPath
10
600
20
9
11
612
21
9
0
LINE
8
left_outsideCutPath
10
612
20
9
11
612
21
3
0
LINE
8
left_outsideCutPath
10
612
20
3
11
624
21
3
0
LINE
8
left_outsideCutPath
10
624
20
3
11
624
21
9
0
LINE
8
left_outsideCutPath
10
624
20
9
11
636
21
9
0
LINE
8
left_outsideCutPath
10
636
20
9
11
636
21
3
0
LINE
8
left_outsideCutPath
10
636
20
3
11
648
21
3
0
LINE
8
left_outsideCutPath
10
648
20
3
11
648
21
9
0
LINE
8
left_outsideCutPath
10
648
20
9
11
660
21
9
0
LINE
8
left_outsideCutPath
10
660
20
9
11
660
21
3
0
LINE
8
left_outsideCutPath
10
660
20
3
11
672
21
3
0
LINE
8
left_outsideCutPath
10
672
20
3
11
672
21
9
0
LINE
8
left_outsideCutPath
10
672
20
9
11
684
21
9
0
LINE
8
left_outsideCutPath
10
684
20
9
11
684
21
3
0
LINE
8
left_outsideCutPath
10
684
20
3
11
696
21
3
0
LINE
8
left_outsideCutPath
10
696
20
3
11
696
21
9
0
LINE
8
left_outsideCutPath
10
696
20
9
11
708
21
9
0
LINE
8
left_outsideCutPath
10
708
20
9
11
708
21
3
0
LINE
8
left_outsideCutPath
10
708
20
3
11
721
21
3
0
LINE
8
left_outsideCutPath
10
721
20
3
11
721
21
16
0
LINE
8
left_outsideCutPath
10
721
20
16
11
727
21
16
0
LINE
8
left_outsideCutPath
10
727
20
16
11
727
21
28
0
LINE
8
left_outsideCutPath
10
727
20
28
11
721
21
28
0
LINE
8
left_outsideCutPath
10
721
20
28
11
721
21
40
0
LINE
8
left_outsideCutPath
10
721
20
40
11
727
21
40
0
LINE
8
left_outsideCutPath
10
727
20
40
11
727
21
52
0
LINE
8
left_outsideCutPath
10
727
20
52
11
721
21
52
0
LINE
8
left_outsideCutPath
10
721
20
52
11
721
21
64
0
LINE
8
left_outsideCutPath
10
721
20
64
11
727
21
64
0
LINE
8
left_outsideCutPath
10
727
20
64
11
727
21
76
0
LINE
8
left_outsideCutPath
10
727
20
76
11
721
21
76
0
LINE
8
left_outsideCutPath
10
721
20
76
11
721
21
88
0
LINE
8
left_outsideCutPath
10
721
20
88
11
727
21
88
0
LINE
8
left_outsideCutPath
10
727
20
88
11
727
21
100
0
LINE
8
left_outsideCutPath
10
727
20
100
11
721
21
100
0
LINE
8
left_outsideCutPath
10
721
20
100
11
721
21
112
0
LINE
8
left_outsideCutPath
10
721
20
112
11
727
21
112
0
LINE
8
left_outsideCutPath
10
727
20
112
11
727
21
124
0
LINE
8
left_outsideCutPath
10
727
20
124
11
721
21
124
0
LINE
8
left_outsideCutPath
10
721
20
124
11
721
21
136
0
LINE
8
left_outsideCutPath
10
721
20
136
11
727
21
136
0
LINE
8
left_outsideCutPath
10
727
20
136
11
727
21
148
0
LINE
8
left_outsideCutPath
10
727
20
148
11
721
21
148
0
LINE
8
left_outsideCutPath
10
721
20
148
11
721
21
160
0
LINE
8
left_outsideCutPath
10
721
20
160
11
727
21
160
0
LINE
8
left_outsideCutPath
10
727
20
160
11
727
21
172
0
LINE
8
left_outsideCutPath
10
727
20
172
11
721
21
172
0
LINE
8
left_outsideCutPath
10
721
20
172
11
721
21
184
0
LINE
8
left_outsideCutPath
10
721
20
184
11
727
21
184
0
LINE
8
left_outsideCutPath
10
727
20
184
11
727
21
196
0
LINE
8
left_outsideCutPath
10
727
20
196
11
721
21
196
0
LINE
8
left_outsideCutPath
10
721
20
196
11
721
21
209
0
LINE
8
left_outsideCutPath
10
721
20
209
11
371
21
209
0
LINE
8
back_outsideCutPath
10
0
20
418
11
0
21
405
0
LINE
8
back_outsideCutPath
10
0
20
405
11
6
21
405
0
LINE
8
back_outsideCutPath
10
6
20
405
11
6
21
393
0
LINE
8
back_outsideCutPath
10
6
20
393
11
0
21
393
0
LINE
8
back_outsideCutPath
10
0
20
393
11
0
21
381
0
LINE
8
back_outsideCutPath
10
0
20
381
11
6
21
381
0
LINE
8
back_outsideCutPath
10
6
20
381
11
6
21
369
0
LINE
8
back_outsideCutPath
10
6
20
369
11
0
21
369
0
LINE
8
back_outsideCutPath
10
0
20
369
11
0
21
357
0
LINE
8
back_outsideCutPath
10
0
20
357
11
6
21
357
0
LINE
8
back_outsideCutPath
10
6
20
357
11
6
21
345
0
LINE
8
back_outsideCutPath
10
6
20
345
11
0
21
345
0
LINE
8
back_outsideCutPath
10
0
20
345
11
0
21
333
0
LINE
8
back_outsideCutPath
10
0
20
333
11
6
21
333
0
LINE
8
back_outsideCutPath
10
6
20
333
11
6
21
321
0
LINE
8
back_outsideCutPath
10
6
20
321
11
0
21
321
0
LINE
8
back_outsideCutPath
10
0
20
321
11
0
21
309
0
LINE
8
back_outsideCutPath
10
0
20
309
11
6
21
309
0
LINE
8
back_outsideCutPath
10
6
20
309
11
6
21
297
0
LINE
8
back_outsideCutPath
10
6
20
297
11
0
21
297
0
LINE
8
back_outsideCutPath
10
0
20
297
11
0
21
285
0
LINE
8
back_outsideCutPath
10
0
20
285
11
6
21
285
0
LINE
8
back_outsideCutPath
10
6
20
285
11
6
21
273
0
LINE
8
back_outsideCutPath
10
6
20
273
11
0
21
273
0
LINE
8
back_outsideCutPath
10
0
20
273
11
0
21
261
0
LINE
8
back_outsideCutPath
10
0
20
261
11
6
21
261
0
LINE
8
back_outsideCutPath
10
6
20
261
11
6
21
249
0
LINE
8
back_outsideCutPath
10
6
20
249
11
0
21
249
0
LINE
8
back_outsideCutPath
10
0
20
249
11
0
21
237
0
LINE
8
back_outsideCutPath
10
0
20
237
11
6
21
237
0
LINE
8
back_outsideCutPath
10
6
20
237
11
6
21
225
0
LINE
8
back_outsideCutPath
10
6
20
225
11
0
21
225
0
LINE
8
back_outsideCutPath
10
0
20
225
11
0
21
212
0
LINE
8
back_outsideCutPath
10
0
20
212
11
19
21
212
0
LINE
8
back_outsideCutPath
10
19
20
212
11
19
21
218
0
LINE
8
back_outsideCutPath
10
19
20
218
11
31
21
218
0
LINE
8
back_outsideCutPath
10
31
20
218
11
31
21
212
0
LINE
8
back_outsideCutPath
10
31
20
212
11
43
21
212
0
LINE
8
back_outsideCutPath
10
43
20
212
11
43
21
218
0
LINE
8
back_outsideCutPath
10
43
20
218
11
55
21
218
0
LINE
8
back_outsideCutPath
10
55
20
218
11
55
21
212
0
LINE
8
back_outsideCutPath
10
55
20
212
11
67
21
212
0
LINE
8
back_outsideCutPath
10
67
20
212
11
67
21
218
0
LINE
8
back_outsideCutPath
10
67
20
218
11
79
21
218
0
LINE
8
back_outsideCutPath
10
79
20
218
11
79
21
212
0
LINE
8
back_outsideCutPath
10
79
20
212
11
91
21
212
0
LINE
8
back_outsideCutPath
10
91
20
212
11
91
21
218
0
LINE
8
back_outsideCutPath
10
91
20
218
11
103
21
218
0
LINE
8
back_outsideCutPath
10
103
20
218
11
103
21
212
0
LINE
8
back_outsideCutPath
10
103
20
212
11
115
21
212
0
LINE
8
back_outsideCutPath
10
115
20
212
11
115
21
218
0
LINE
8
back_outsideCutPath
10
115
20
218
11
127
21
218
0
LINE
8
back_outsideCutPath
10
127
20
218
11
127
21
212
0
LINE
8
back_outsideCutPath
10
127
20
212
11
139
21
212
0
LINE
8
back_outsideCutPath
10
139
20
212
11
139
21
218
0
LINE
8
back_outsideCutPath
10
139
20
218
11
151
21
218
0
LINE
8
back_outsideCutPath
10
151
20
218
11
151
21
212
0
LINE
8
back_outsideCutPath
10
151
20
212
11
163
21
212
0
LINE
8
back_outsideCutPath
10
163
20
212
11
163
21
218
0
LINE
8
back_outsideCutPath
10
163
20
218
11
175
21
218
0
LINE
8
back_outsideCutPath
10
175
20
218
11
175
21
212
0
LINE
8
back_outsideCutPath
10
175
20
212
11
187
21
212
0
LINE
8
back_outsideCutPath
10
187
20
212
11
187
21
218
0
LINE
8
back_outsideCutPath
10
187
20
218
11
199
21
218
0
LINE
8
back_outsideCutPath
10
199
20
218
11
199
21
212
0
LINE
8
back_outsideCutPath
10
199
20
212
11
211
21
212
0
LINE
8
back_outsideCutPath
10
211
20
212
11
211
21
218
0
LINE
8
back_outsideCutPath
10
211
20
218
11
223
21
218
0
LINE
8
back_outsideCutPath
10
223
20
218
11
223
21
212
0
LINE
8
back_outsideCutPath
10
223
20
212
11
235
21
212
0
LINE
8
back_outsideCutPath
10
235
20
212
11
235
21
218
0
LINE
8
back_outsideCutPath
10
235
20
218
11
247
21
218
0
LINE
8
back_outsideCutPath
10
247
20
218
11
247
21
212
0
LINE
8
back_outsideCutPath
10
247
20
212
11
259
21
212
0
LINE
8
back_outsideCutPath
10
259
20
212
11
259
21
218
0
LINE
8
back_outsideCutPath
10
259
20
218
11
271
21
218
0
LINE
8
back_outsideCutPath
10
271
20
218
11
271
21
212
0
LINE
8
back_outsideCutPath
10
271
20
212
11
283
21
212
0
LINE
8
back_outsideCutPath
10
283
20
212
11
283
21
218
0
LINE
8
back_outsideCutPath
10
283
20
218
11
295
21
218
0
LINE
8
back_outsideCutPath
10
295
20
218
11
295
21
212
0
LINE
8
back_outsideCutPath
10
295
20
212
11
307
21
212
0
LINE
8
back_outsideCutPath
10
307
20
212
11
307
21
218
0
LINE
8
back_outsideCutPath
10
307
20
218
11
319
21
218
0
LINE
8
back_outsideCutPath
10
319
20
218
11
319
21
212
0
LINE
8
back_outsideCutPath
10
319
20
212
11
331
21
212
0
LINE
8
back_outsideCutPath
10
331
20
212
11
331
21
218
0
LINE
8
back_outsideCutPath
10
331
20
218
11
343
21
218
0
LINE
8
back_outsideCutPath
10
343
20
218
11
343
21
212
0
LINE
8
back_outsideCutPath
10
343
20
212
11
362
21
212
0
LINE
8
back_outsideCutPath
10
362
20
212
11
362
21
225
0
LINE
8
back_outsideCutPath
10
362
20
225
11
356
21
225
0
LINE
8
back_outsideCutPath
10
356
20
225
11
356
21
237
0
LINE
8
back_outsideCutPath
10
356
20
237
11
362
21
237
0
LINE
8
back_outsideCutPath
10
362
20
237
11
362
21
249
0
LINE
8
back_outsideCutPath
10
362
20
249
11
356
21
249
0
LINE
8
back_outsideCutPath
10
356
20
249
11
356
21
261
0
LINE
8
back_outsideCutPath
10
356
20
261
11
362
21
261
0
LINE
8
back_outsideCutPath
10
362
20
261
11
362
21
273
0
LINE
8
back_outsideCutPath
10
362
20
273
11
356
21
273
0
LINE
8
back_outsideCutPath
10
356
20
273
11
356
21
285
0
LINE
8
back_outsideCutPath
10
356
20
285
11
362
21
285
0
LINE
8
back_outsideCutPath
10
362
20
285
11
362
21
297
0
LINE
8
back_outsideCutPath
10
362
20
297
11
356
21
297
0
LINE
8
back_outsideCutPath
10
356
20
297
11
356
21
309
0
LINE
8
back_outsideCutPath
10
356
20
309
11
362
21
309
0
LINE
8
back_outsideCutPath
10
362
20
309
11
362
21
321
0
LINE
8
back_outsideCutPath
10
362
20
321
11
356
21
321
0
LINE
8
back_outsideCutPath
10
356
20
321
11
356
21
333
0
LINE
8
back_outsideCutPath
10
356
20
333
11
362
21
333
0
LINE
8
back_outsideCutPath
10
362
20
333
11
362
21
345
0
LINE
8
back_outsideCutPath
10
362
20
345
11
356
21
345
0
LINE
8
back_outsideCutPath
10
356
20
345
11
356
21
357
0
LINE
8
back_outsideCutPath
10
356
20
357
11
362
21
357
0
LINE
8
back_outsideCutPath
10
362
20
357
11
362
21
369
0
LINE
8
back_outsideCutPath
10
362
20
369
11
356
21
369
0
LINE
8
back_outsideCutPath
10
356
20
369
11
356
21
381
0
LINE
8
back_outsideCutPath
10
356
20
381
11
362
21
381
0
LINE
8
back_outsideCutPath
10
362
20
381
11
362
21
393
0
LINE
8
back_outsideCutPath
10
362
20
393
11
356
21
393
0
LINE
8
back_outsideCutPath
10
356
20
393
11
356
21
405
0
LINE
8
back_outsideCutPath
10
356
20
405
11
362
21
405
0
LINE
8
back_outsideCutPath
10
362
20
405
11
362
21
418
0
LINE
8
back_outsideCutPath
10
362
20
418
11
0
21
418
0
LINE
8
right_outsideCutPath
10
371
20
418
11
371
21
405
0
LINE
8
right_outsideCutPath
10
371
20
405
11
365
21
405
0
LINE
8
right_outsideCutPath
10
365
20
405
11
365
21
393
0
LINE
8
right_outsideCutPath
10
365
20
393
11
371
21
393
0
LINE
8
right_outsideCutPath
10
371
20
393
11
371
21
381
0
LINE
8
right_outsideCutPath
10
371
20
381
11
365
21
381
0
LINE
8
right_outsideCutPath
10
365
20
381
11
365
21
369
0
LINE
8
right_outsideCutPath
10
365
20
369
11
371
21
369
0
LINE
8
right_outsideCutPath
10
371
20
369
11
371
21
357
0
LINE
8
right_outsideCutPath
10
371
20
357
11
365
21
357
0
LINE
8
right_outsideCutPath
10
365
20
357
11
365
21
345
0
LINE
8
right_outsideCutPath
10
365
20
345
11
371
21
345
0
LINE
8
right_outsideCutPath
10
371
20
345
11
371
21
333
0
LINE
8
right_outsideCutPath
10
371
20
333
11
365
21
333
0
LINE
8
right_outsideCutPath
10
365
20
333
11
365
21
321
0
LINE
8
right_outsideCutPath
10
365
20
321
11
371
21
321
0
LINE
8
right_outsideCutPath
10
371
20
321
11
371
21
309
0
LINE
8
right_outsideCutPath
10
371
20
309
11
365
21
309
0
LINE
8
right_outsideCutPath
10
365
20
309
11
365
21
297
0
LINE
8
right_outsideCutPath
10
365
20
297
11
371
21
297
0
LINE
8
right_outsideCutPath
10
371
20
297
11
371
21
285
0
LINE
8
right_outsideCutPath
10
371
20
285
11
365
21
285
0
LINE
8
right_outsideCutPath
10
365
20
285
11
365
21
273
0
LINE
8
right_outsideCutPath
10
365
20
273
11
371
21
273
0
LINE
8
right_outsideCutPath
10
371
20
273
11
371
21
261
0
LINE
8
right_outsideCutPath
10
371
20
261
11
365
21
261
0
LINE
8
right_outsideCutPath
10
365
20
261
11
365
21
249
0
LINE
8
right_outsideCutPath
10
365
20
249
11
371
21
249
0
LINE
8
right_outsideCutPath
10
371
20
249
11
371
21
237
0
LINE
8
right_outsideCutPath
10
371
20
237
11
365
21
237
0
LINE
8
right_outsideCutPath
10
365
20
237
11
365
21
225
0
LINE
8
right_outsideCutPath
10
365
20
225
11
371
21
225
0
LINE
8
right_outsideCutPath
10
371
20
225
11
371
21
212
0
LINE
8
right_outsideCutPath
10
371
20
212
11
384
21
212
0
LINE
8
right_outsideCutPath
10
384
20
212
11
384
21
218
0
LINE
8
right_outsideCutPath
10
384
20
218
11
396
21
218
0
LINE
8
right_outsideCutPath
10
396
20
218
11
396
21
212
0
LINE
8
right_outsideCutPath
10
396
20
212
11
408
21
212
0
LINE
8
right_outsideCutPath
10
408
20
212
11
408
21
218
0
LINE
8
right_outsideCutPath
10
408
20
218
11
420
21
218
0
LINE
8
right_outsideCutPath
10
420
20
218
11
420
21
212
0
LINE
8
right_outsideCutPath
10
420
20
212
11
432
21
212
0
LINE
8
right_outsideCutPath
10
432
20
212
11
432
21
218
0
LINE
8
right_outsideCutPath
10
432
20
218
11
444
21
218
0
LINE
8
right_outsideCutPath
10
444
20
218
11
444
21
212
0
LINE
8
right_outsideCutPath
10
444
20
212
11
456
21
212
0
LINE
8
right_outsideCutPath
10
456
20
212
11
456
21
218
0
LINE
8
right_outsideCutPath
10
456
20
218
11
468
21
218
0
LINE
8
right_outsideCutPath
10
468
20
218
11
468
21
212
0
LINE
8
right_outsideCutPath
10
468
20
212
11
480
21
212
0
LINE
8
right_outsideCutPath
10
480
20
212
11
480
21
218
0
LINE
8
right_outsideCutPath
10
480
20
218
11
492
21
218
0
LINE
8
right_outsideCutPath
10
492
20
218
11
492
21
212
0
LINE
8
right_outsideCutPath
10
492
20
212
11
504
21
212
0
LINE
8
right_outsideCutPath
10
504
20
212
11
504
21
218
0
LINE
8
right_outsideCutPath
10
504
20
218
11
516
21
218
0
LINE
8
right_outsideCutPath
10
516
20
218
11
516
21
212
0
LINE
8
right_outsideCutPath
10
516
20
212
11
528
21
212
0
LINE
8
right_outsideCutPath
10
528
20
212
11
528
21
218
0
LINE
8
right_outsideCutPath
10
528
20
218
11
540
21
218
0
LINE
8
right_outsideCutPath
10
540
20
218
11
540
21
212
0
LINE
8
right_outsideCutPath
10
540
20
212
11
552
21
212
0
LINE
8
right_outsideCutPath
10
552
20
212
11
552
21
218
0
LINE
8
right_outsideCutPath
10
552
20
218
11
564
21
218
0
LINE
8
right_outsideCutPath
10
564
20
218
11
564
21
212
0
LINE
8
right_outsideCutPath
10
564
20
212
11
576
21
212
0
LINE
8
right_outsideCutPath
10
576
20
212
11
576
21
218
0
LINE
8
right_outsideCutPath
10
576
20
218
11
588
21
218
0
LINE
8
right_outsideCutPath
10
588
20
218
11
588
21
212
0
LINE
8
right_outsideCutPath
10
588
20
212
11
600
21
212
0
LINE
8
right_outsideCutPath
10
600
20
212
11
600
21
218
0
LINE
8
right_outsideCutPath
10
600
20
218
11
612
21
218
0
LINE
8
right_outsideCutPath
10
612
20
218
11
612
21
212
0
LINE
8
right_outsideCutPath
10
612
20
212
11
624
21
212
0
LINE
8
right_outsideCutPath
10
624
20
212
11
624
21
218
0
LINE
8
right_outsideCutPath
10
624
20
218
11
636
21
218
0
LINE
8
right_outsideCutPath
10
636
20
218
11
636
21
212
0
LINE
8
right_outsideCutPath
10
636
20
212
11
648
21
212
0
LINE
8
right_outsideCutPath
10
648
20
212
11
648
21
218
0
LINE
8
right_outsideCutPath
10
648
20
218
11
660
21
218
0
LINE
8
right_outsideCutPath
10
660
20
218
11
660
21
212
0
LINE
8
right_outsideCutPath
10
660
20
212
11
672
21
212
0
LINE
8
right_outsideCutPath
10
672
20
212
11
672
21
218
0
LINE
8
right_outsideCutPath
10
672
20
218
11
684
21
218
0
LINE
8
right_outsideCutPath
10
684
20
218
11
684
21
212
0
LINE
8
right_outsideCutPath
10
684
20
212
11
696
21
212
0
LINE
8
right_outsideCutPath
10
696
20
212
11
696
21
218
0
LINE
8
right_outsideCutPath
10
696
20
218
11
708
21
218
0
LINE
8
right_outsideCutPath
10
708
20
218
11
708
21
212
0
LINE
8
right_outsideCutPath
10
708
20
212
11
721
21
212
0
LINE
8
right_outsideCutPath
10
721
20
212
11
721
21
225
0
LINE
8
right_outsideCutPath
10
721
20
225
11
727
21
225
0
LINE
8
right_outsideCutPath
10
727
20
225
11
727
21
237
0
LINE
8
right_outsideCutPath
10
727
20
237
11
721
21
237
0
LINE
8
right_outsideCutPath
10
721
20
237
11
721
21
249
0
LINE
8
right_outsideCutPath
10
721
20
249
11
727
21
249
0
LINE
8
right_outsideCutPath
10
727
20
249
11
727
21
261
0
LINE
8
right_outsideCutPath
10
727
20
261
11
721
21
261
0
LINE
8
right_outsideCutPath
10
721
20
261
11
721
21
273
0
LINE
8
right_outsideCutPath
10
721
20
273
11
727
21
273
0
LINE
8
right_outsideCutPath
10
727
20
273
11
727
21
285
0
LINE
8
right_outsideCutPath
10
727
20
285
11
721
21
285
0
LINE
8
right_outsideCutPath
10
721
20
285
11
721
21
297
0
LINE
8
right_outsideCutPath
10
721
20
297
11
727
21
297
0
LINE
8
right_outsideCutPath
10
727
20
297
11
727
21
309
0
LINE
8
right_outsideCutPath
10
727
20
309
11
721
21
309
0
LINE
8
right_outsideCutPath
10
721
20
309
11
721
21
321
0
LINE
8
right_outsideCutPath
10
721
20
321
11
727
21
321
0
LINE
8
right_outsideCutPath
10
727
20
321
11
727
21
333
0
LINE
8
right_outsideCutPath
10
727
20
333
11
721
21
333
0
LINE
8
right_outsideCutPath
10
721
20
333
11
721
21
345
0
LINE
8
right_outsideCutPath
10
721
20
345
11
727
21
345
0
LINE
8
right_outsideCutPath
10
727
20
345
11
727
21
357
0
LINE
8
right_outsideCutPath
10
727
20
357
11
721
21
357
0
LINE
8
right_outsideCutPath
10
721
20
357
11
721
21
369
0
LINE
8
right_outsideCutPath
10
721
20
369
11
727
21
369
0
LINE
8
right_outsideCutPath
10
727
20
369
11
727
21
381
0
LINE
8
right_outsideCutPath
10
727
20
381
11
721
21
381
0
LINE
8
right_outsideCutPath
10
721
20
381
11
721
21
393
0
LINE
8
right_outsideCutPath
10
721
20
393
11
727
21
393
0
LINE
8
right_outsideCutPath
10
727
20
393
11
727
21
405
0
LINE
8
right_outsideCutPath
10
727
20
405
11
721
21
405
0
LINE
8
right_outsideCutPath
10
721
20
405
11
721
21
418
0
LINE
8
right_outsideCutPath
10
721
20
418
11
371
21
418
0
LINE
8
bottom_outsideCutPath
10
736
20
359
11
736
21
346
0
LINE
8
bottom_outsideCutPath
10
736
20
346
11
730
21
346
0
LINE
8
bottom_outsideCutPath
10
730
20
346
11
730
21
334
0
LINE
8
bottom_outsideCutPath
10
730
20
334
11
736
21
334
0
LINE
8
bottom_outsideCutPath
10
736
20
334
11
736
21
322
0
LINE
8
bottom_outsideCutPath
10
736
20
322
11
730
21
322
0
LINE
8
bottom_outsideCutPath
10
730
20
322
11
730
21
310
0
LINE
8
bottom_outsideCutPath
10
730
20
310
11
736
21
310
0
LINE
8
bottom_outsideCutPath
10
736
20
310
11
736
21
298
0
LINE
8
bottom_outsideCutPath
10
736
20
298
11
730
21
298
0
LINE
8
bottom_outsideCutPath
10
730
20
298
11
730
21
286
0
LINE
8
bottom_outsideCutPath
10
730
20
286
11
736
21
286
0
LINE
8
bottom_outsideCutPath
10
736
20
286
11
736
21
274
0
LINE
8
bottom_outsideCutPath
10
736
20
274
11
730
21
274
0
LINE
8
bottom_outsideCutPath
10
730
20
274
11
730
21
262
0
LINE
8
bottom_outsideCutPath
10
730
20
262
11
736
21
262
0
LINE
8
bottom_outsideCutPath
10
736
20
262
11
736
21
250
0
LINE
8
bottom_outsideCutPath
10
736
20
250
11
730
21
250
0
LINE
8
bottom_outsideCutPath
10
730
20
250
11
730
21
238
0
LINE
8
bottom_outsideCutPath
10
730
20
238
11
736
21
238
0
LINE
8
bottom_outsideCutPath
10
736
20
238
11
736
21
226
0
LINE
8
bottom_outsideCutPath
10
736
20
226
11
730
21
226
0
LINE
8
bottom_outsideCutPath
10
730
20
226
11
730
21
214
0
LINE
8
bottom_outsideCutPath
10
730
20
214
11
736
21
214
0
LINE
8
bottom_outsideCutPath
10
736
20
214
11
736
21
202
0
LINE
8
bottom_outsideCutPath
10
736
20
202
11
730
21
202
0
LINE
8
bottom_outsideCutPath
10
730
20
202
11
730
21
190
0
LINE
8
bottom_outsideCutPath
10
730
20
190
11
736
21
190
0
LINE
8
bottom_outsideCutPath
10
736
20
190
11
736
21
178
0
LINE
8
bottom_outsideCutPath
10
736
20
178
11
730
21
178
0
LINE
8
bottom_outsideCutPath
10
730
20
178
11
730
21
166
0
LINE
8
bottom_outsideCutPath
10
730
20
166
11
736
21
166
0
LINE
8
bottom_outsideCutPath
10
736
20
166
11
736
21
154
0
LINE
8
bottom_outsideCutPath
10
736
20
154
11
730
21
154
0
LINE
8
bottom_outsideCutPath
10
730
20
154
11
730
21
142
0
LINE
8
bottom_outsideCutPath
10
730
20
142
11
736
21
142
0
LINE
8
bottom_outsideCutPath
10
736
20
142
11
736
21
130
0
LINE
8
bottom_outsideCutPath
10
736
20
130
11
730
21
130
0
LINE
8
bottom_outsideCutPath
10
730
20
130
11
730
21
118
0
LINE
8
bottom_outsideCutPath
10
730
20
118
11
736
21
118
0
LINE
8
bottom_outsideCutPath
10
736
20
118
11
736
21
106
0
LINE
8
bottom_outsideCutPath
10
736
20
106
11
730
21
106
0
LINE
8
bottom_outsideCutPath
10
730
20
106
11
730
21
94
0
LINE
8
bottom_outsideCutPath
10
730
20
94
11
736
21
94
0
LINE
8
bottom_outsideCutPath
10
736
20
94
11
736
21
82
0
LINE
8
bottom_outsideCutPath
10
736
20
82
11
730
21
82
0
LINE
8
bottom_outsideCutPath
10
730
20
82
11
730
21
70
0
LINE
8
bottom_outsideCutPath
10
730
20
70
11
736
21
70
0
LINE
8
bottom_outsideCutPath
10
736
20
70
11
736
21
58
0
LINE
8
bottom_outsideCutPath
10
736
20
58
11
730
21
58
0
LINE
8
bottom_outsideCutPath
10
730
20
58
11
730
21
46
0
LINE
8
bottom_outsideCutPath
10
730
20
46
11
736
21
46
0
LINE
8
bottom_outsideCutPath
10
736
20
46
11
736
21
34
0
LINE
8
bottom_outsideCutPath
10
736
20
34
11
730
21
34
0
LINE
8
bottom_outsideCutPath
10
730
20
34
11
730
21
22
0
LINE
8
bottom_outsideCutPath
10
730
20
22
11
736
21
22
0
LINE
8
bottom_outsideCutPath
10
736
20
22
11
736
21
9
0
LINE
8
bottom_outsideCutPath
10
736
20
9
11
749
21
9
0
LINE
8
bottom_outsideCutPath
10
749
20
9
11
749
21
3
0
LINE
8
bottom_outsideCutPath
10
749
20
3
11
761
21
3
0
LINE
8
bottom_outsideCutPath
10
761
20
3
11
761
21
9
0
LINE
8
bottom_outsideCutPath
10
761
20
9
11
773
21
9
0
LINE
8
bottom_outsideCutPath
10
773
20
9
11
773
21
3
0
LINE
8
bottom_outsideCutPath
10
773
20
3
11
785
21
3
0
LINE
8
bottom_outsideCutPath
10
785
20
3
11
785
21
9
0
LINE
8
bottom_outsideCutPath
10
785
20
9
11
797
21
9
0
LINE
8
bottom_outsideCutPath
10
797
20
9
11
797
21
3
0
LINE
8
bottom_outsideCutPath
10
797
20
3
11
809
21
3
0
LINE
8
bottom_outsideCutPath
10
809
20
3
11
809
21
9
0
LINE
8
bottom_outsideCutPath
10
809
20
9
11
821
21
9
0
LINE
8
bottom_outsideCutPath
10
821
20
9
11
821
21
3
0
LINE
8
bottom_outsideCutPath
10
821
20
3
11
833
21
3
0
LINE
8
bottom_outsideCutPath
10
833
20
3
11
833
21
9
0
LINE
8
bottom_outsideCutPath
10
833
20
9
11
845
21
9
0
LINE
8
bottom_outsideCutPath
10
845
20
9
11
845
21
3
0
LINE
8
bottom_outsideCutPath
10
845
20
3
11
857
21
3
0
LINE
8
bottom_outsideCutPath
10
857
20
3
11
857
21
9
0
LINE
8
bottom_outsideCutPath
10
857
20
9
11
869
21
9
0
LINE
8
bottom_outsideCutPath
10
869
20
9
11
869
21
3
0
LINE
8
bottom_outsideCutPath
10
869
20
3
11
881
21
3
0
LINE
8
bottom_outsideCutPath
10
881
20
3
11
881
21
9
0
LINE
8
bottom_outsideCutPath
10
881
20
9
11
893
21
9
0
LINE
8
bottom_outsideCutPath
10
893
20
9
11
893
21
3
0
LINE
8
bottom_outsideCutPath
10
893
20
3
11
905
21
3
0
LINE
8
bottom_outsideCutPath
10
905
20
3
11
905
21
9
0
LINE
8
bottom_outsideCutPath
10
905
20
9
11
917
21
9
0
LINE
8
bottom_outsideCutPath
10
917
20
9
11
917
21
3
0
LINE
8
bottom_outsideCutPath
10
917
20
3
11
929
21
3
0
LINE
8
bottom_outsideCutPath
10
929
20
3
11
929
21
9
0
LINE
8
bottom_outsideCutPath
10
929
20
9
11
941
21
9
0
LINE
8
bottom_outsideCutPath
10
941
20
9
11
941
21
3
0
LINE
8
bottom_outsideCutPath
10
941
20
3
11
953
21
3
0
LINE
8
bottom_outsideCutPath
10
953
20
3
11
953
21
9
0
LINE
8
bottom_outsideCutPath
10
953
20
9
11
965
21
9
0
LINE
8
bottom_outsideCutPath
10
965
20
9
11
965
21
3
0
LINE
8
bottom_outsideCutPath
10
965
20
3
11
977
21
3
0
LINE
8
bottom_outsideCutPath
10
977
20
3
11
977
21
9
0
LINE
8
bottom_outsideCutPath
10
977
20
9
11
989
21
9
0
LINE
8
bottom_outsideCutPath
10
989
20
9
11
989
21
3
0
LINE
8
bottom_outsideCutPath
10
989
20
3
11
1001
21
3
0
LINE
8
bottom_outsideCutPath
10
1001
20
3
11
1001
21
9
0
LINE
8
bottom_outsideCutPath
10
1001
20
9
11
1013
21
9
0
LINE
8
bottom_outsideCutPath
10
1013
20
9
11
1013
21
3
0
LINE
8
bottom_outsideCutPath
10
1013
20
3
11
1025
21
3
0
LINE
8
bottom_outsideCutPath
10
1025
20
3
11
1025
21
9
0
LINE
8
bottom_outsideCutPath
10
1025
20
9
11
1037
21
9
0
LINE
8
bottom_outsideCutPath
10
1037
20
9
11
1037
21
3
0
LINE
8
bottom_outsideCutPath
10
1037
20
3
11
1049
21
3
0
LINE
8
bottom_outsideCutPath
10
1049
20
3
11
1049
21
9
0
LINE
8
bottom_outsideCutPath
10
1049
20
9
11
1061
21
9
0
LINE
8
bottom_outsideCutPath
10
1061
20
9
11
1061
21
3
0
LINE
8
bottom_outsideCutPath
10
1061
20
3
11
1073
21
3
0
LINE
8
bottom_outsideCutPath
10
1073
20
3
11
1073
21
9
0
LINE
8
bottom_outsideCutPath
10
1073
20
9
11
1086
21
9
0
LINE
8
bottom_outsideCutPath
10
1086
20
9
11
1086
21
22
0
LINE
8
bottom_outsideCutPath
10
1086
20
22
11
1092
21
22
0
LINE
8
bottom_outsideCutPath
10
1092
20
22
11
1092
21
34
0
LINE
8
bottom_outsideCutPath
10
1092
20
34
11
1086
21
34
0
LINE
8
bottom_outsideCutPath
10
1086
20
34
11
1086
21
46
0
LINE
8
bottom_outsideCutPath
10
1086
20
46
11
1092
21
46
0
LINE
8
bottom_outsideCutPath
10
1092
20
46
11
1092
21
58
0
LINE
8
bottom_outsideCutPath
10
1092
20
58
11
1086
21
58
0
LINE
8
bottom_outsideCutPath
10
1086
20
58
11
1086
21
70
0
LINE
8
bottom_outsideCutPath
10
1086
20
70
11
1092
21
70
0
LINE
8
bottom_outsideCutPath
10
1092
20
70
11
1092
21
82
0
LINE
8
bottom_outsideCutPath
10
1092
20
82
11
1086
21
82
0
LINE
8
bottom_outsideCutPath
10
1086
20
82
11
1086
21
94
0
LINE
8
bottom_outsideCutPath
10
1086
20
94
11
1092
21
94
0
LINE
8
bottom_outsideCutPath
10
1092
20
94
11
1092
21
106
0
LINE
8
bottom_outsideCutPath
10
1092
20
106
11
1086
21
106
0
LINE
8
bottom_outsideCutPath
10
1086
20
106
11
1086
21
118
0
LINE
8
bottom_outsideCutPath
10
1086
20
118
11
1092
21
118
0
LINE
8
bottom_outsideCutPath
10
1092
20
118
11
1092
21
130
0
LINE
8
bottom_outsideCutPath
10
1092
20
130
11
1086
21
130
0
LINE
8
bottom_outsideCutPath
10
1086
20
130
11
1086
21
142
0
LINE
8
bottom_outsideCutPath
10
1086
20
142
11
1092
21
142
0
LINE
8
bottom_outsideCutPath
10
1092
20
142
11
1092
21
154
0
LINE
8
bottom_outsideCutPath
10
1092
20
154
11
1086
21
154
0
LINE
8
bottom_outsideCutPath
10
1086
20
154
11
1086
21
166
0
LINE
8
bottom_outsideCutPath
10
1086
20
166
11
1092
21
166
0
LINE
8
bottom_outsideCutPath
10
1092
20
166
11
1092
21
178
0
LINE
8
bottom_outsideCutPath
10
1092
20
178
11
1086
21
178
0
LINE
8
bottom_outsideCutPath
10
1086
20
178
11
1086
21
190
0
LINE
8
bottom_outsideCutPath
10
1086
20
190
11
1092
21
190
0
LINE
8
bottom_outsideCutPath
10
1092
20
190
11
1092
21
202
0
LINE
8
bottom_outsideCutPath
10
1092
20
202
11
1086
21
202
0
LINE
8
bottom_outsideCutPath
10
1086
20
202
11
1086
21
214
0
LINE
8
bottom_outsideCutPath
10
1086
20
214
11
1092
21
214
0
LINE
8
bottom_outsideCutPath
10
1092
20
214
11
1092
21
226
0
LINE
8
bottom_outsideCutPath
10
1092
20
226
11
1086
21
226
0
LINE
8
bottom_outsideCutPath
10
1086
20
226
11
1086
21
238
0
LINE
8
bottom_outsideCutPath
10
1086
20
238
11
1092
21
238
0
LINE
8
bottom_outsideCutPath
10
1092
20
238
11
1092
21
250
0
LINE
8
bottom_outsideCutPath
10
1092
20
250
11
1086
21
250
0
LINE
8
bottom_outsideCutPath
10
1086
20
250
11
1086
21
262
0
LINE
8
bottom_outsideCutPath
10
1086
20
262
11
1092
21
262
0
LINE
8
bottom_outsideCutPath
10
1092
20
262
11
1092
21
274
0
LINE
8
bottom_outsideCutPath
10
1092
20
274
11
1086
21
274
0
LINE
8
bottom_outsideCutPath
10
1086
20
274
11
1086
21
286
0
LINE
8
bottom_outsideCutPath
10
1086
20
286
11
1092
21
286
0
LINE
8
bottom_outsideCutPath
10
1092
20
286
11
1092
21
298
0
LINE
8
bottom_outsideCutPath
10
1092
20
298
11
1086
21
298
0
LINE
8
bottom_outsideCutPath
10
1086
20
298
11
1086
21
310
0
LINE
8
bottom_outsideCutPath
10
1086
20
310
11
1092
21
310
0
LINE
8
bottom_outsideCutPath
10
1092
20
310
11
1092
21
322
0
LINE
8
bottom_outsideCutPath
10
1092
20
322
11
1086
21
322
0
LINE
8
bottom_outsideCutPath
10
1086
20
322
11
1086
21
334
0
LINE
8
bottom_outsideCutPath
10
1086
20
334
11
1092
21
334
0
LINE
8
bottom_outsideCutPath
10
1092
20
334
11
1092
21
346
0
LINE
8
bottom_outsideCutPath
10
1092
20
346
11
1086
21
346
0
LINE
8
bottom_outsideCutPath
10
1086
20
346
11
1086
21
359
0
LINE
8
bottom_outsideCutPath
10
1086
20
359
11
1073
21
359
0
LINE
8
bottom_outsideCutPath
10
1073
20
359
11
1073
21
365
0
LINE
8
bottom_outsideCutPath
10
1073
20
365
11
1061
21
365
0
LINE
8
bottom_outsideCutPath
10
1061
20
365
11
1061
21
359
0
LINE
8
bottom_outsideCutPath
10
1061
20
359
11
1049
21
359
0
LINE
8
bottom_outsideCutPath
10
1049
20
359
11
1049
21
365
0
LINE
8
bottom_outsideCutPath
10
1049
20
365
11
1037
21
365
0
LINE
8
bottom_outsideCutPath
10
1037
20
365
11
1037
21
359
0
LINE
8
bottom_outsideCutPath
10
1037
20
359
11
1025
21
359
0
LINE
8
bottom_outsideCutPath
10
1025
20
359
11
1025
21
365
0
LINE
8
bottom_outsideCutPath
10
1025
20
365
11
1013
21
365
0
LINE
8
bottom_outsideCutPath
10
1013
20
365
11
1013
21
359
0
LINE
8
bottom_outsideCutPath
10
1013
20
359
11
1001
21
359
0
LINE
8
bottom_outsideCutPath
10
1001
20
359
11
1001
21
365
0
LINE
8
bottom_outsideCutPath
10
1001
20
365
11
989
21
365
0
LINE
8
bottom_outsideCutPath
10
989
20
365
11
989
21
359
0
LINE
8
bottom_outsideCutPath
10
989
20
359
11
977
21
359
0
LINE
8
bottom_outsideCutPath
10
977
20
359
11
977
21
365
0
LINE
8
bottom_outsideCutPath
10
977
20
365
11
965
21
365
0
LINE
8
bottom_outsideCutPath
10
965
20
365
11
965
21
359
0
LINE
8
bottom_outsideCutPath
10
965
20
359
11
953
21
359
0
LINE
8
bottom_outsideCutPath
10
953
20
359
11
953
21
365
0
LINE
8
bottom_outsideCutPath
10
953
20
365
11
941
21
365
0
LINE
8
bottom_outsideCutPath
10
941
20
365
11
941
21
359
0
LINE
8
bottom_outsideCutPath
10
941
20
359
11
929
21
359
0
LINE
8
bottom_outsideCutPath
10
929
20
359
11
929
21
365
0
LINE
8
bottom_outsideCutPath
10
929
20
365
11
917
21
365
0
LINE
8
bottom_outsideCutPath
10
917
20
365
11
917
21
359
0
LINE
8
bottom_outsideCutPath
10
917
20
359
11
905
21
359
0
LINE
8
bottom_outsideCutPath
10
905
20
359
11
905
21
365
0
LINE
8
bottom_outsideCutPath
10
905
20
365
11
893
21
365
0
LINE
8
bottom_outsideCutPath
10
893
20
365
11
893
21
359
0
LINE
8
bottom_outsideCutPath
10
893
20
359
11
881
21
359
0
LINE
8
bottom_outsideCutPath
10
881
20
359
11
881
21
365
0
LINE
8
bottom_outsideCutPath
10
881
20
365
11
869
21
365
0
LINE
8
bottom_outsideCutPath
10
869
20
365
11
869
21
359
0
LINE
8
bottom_outsideCutPath
10
869
20
359
11
857
21
359
0
LINE
8
bottom_outsideCutPath
10
857
20
359
11
857
21
365
0
LINE
8
bottom_outsideCutPath
10
857
20
365
11
845
21
365
0
LINE
8
bottom_outsideCutPath
10
845
20
365
11
845
21
359
0
LINE
8
bottom_outsideCutPath
10
845
20
359
11
833
21
359
0
LINE
8
bottom_outsideCutPath
10
833
20
359
11
833
21
365
0
LINE
8
bottom_outsideCutPath
10
833
20
365
11
821
21
365
0
LINE
8
bottom_outsideCutPath
10
821
20
365
11
821
21
359
0
LINE
8
bottom_outsideCutPath
10
821
20
359
11
809
21
359
0
LINE
8
bottom_outsideCutPath
10
809
20
359
11
809
21
365
0
LINE
8
bottom_outsideCutPath
10
809
20
365
11
797
21
365
0
LINE
8
bottom_outsideCutPath
10
797
20
365
11
797
21
359
0
LINE
8
bottom_outsideCutPath
10
797
20
359
11
785
21
359
0
LINE
8
bottom_outsideCutPath
10
785
20
359
11
785
21
365
0
LINE
8
bottom_outsideCutPath
10
785
20
365
11
773
21
365
0
LINE
8
bottom_outsideCutPath
10
773
20
365
11
773
21
359
0
LINE
8
bottom_outsideCutPath
10
773
20
359
11
761
21
359
0
LINE
8
bottom_outsideCutPath
10
761
20
359
11
761
21
365
0
LINE
8
bottom_outsideCutPath
10
761
20
365
11
749
21
365
0
LINE
8
bottom_outsideCutPath
10
749
20
365
11
749
21
359
0
LINE
8
bottom_outsideCutPath
10
749
20
359
11
736
21
359
0
ENDSEC
0
EOF