solid draft
facet normal 0.3826834323650431 -0.9238795325113063 1.0932629552514633e-16
  outer loop
    vertex 199.76442930276954 60.402238920409694 3.3839597790574766e-14
    vertex 199.28206739297457 60.202438075400465 47.74999999999997
    vertex 199.28206739297457 60.20243807540045 1.6919798895287383e-14
  endloop
endfacet
facet normal 0.3826834323650431 -0.9238795325113063 1.0932629552514633e-16
  outer loop
    vertex 199.28206739297457 60.202438075400465 47.74999999999997
    vertex 199.76442930276954 60.402238920409694 3.3839597790574766e-14
    vertex 199.76442930276954 60.402238920409694 47.74999999999994
  endloop
endfacet
facet normal 0.3826834323650938 -0.9238795325112852 4.080788538200972e-16
  outer loop
    vertex 197.29451741644706 61.80799335395612 25.750000000000032
    vertex 196.83257765019138 61.61665163777355 0.2500000000000447
    vertex 197.29451741644706 61.807993353956114 0.25000000000003336
  endloop
endfacet
facet normal 0.3826834323650938 -0.9238795325112852 4.080788538200972e-16
  outer loop
    vertex 196.83257765019138 61.61665163777355 0.2500000000000447
    vertex 197.29451741644706 61.80799335395612 25.750000000000032
    vertex 196.83257765019138 61.616651637773565 25.75000000000001
  endloop
endfacet
facet normal -0.6087614290086991 0.7933533402912517 1.8732423001184367e-16
  outer loop
    vertex 197.35021574039644 63.548503290351675 47.74999999999994
    vertex 197.76442930276954 63.86634053554745 3.3839597790574766e-14
    vertex 197.35021574039644 63.5485032903517 2.255973186038318e-14
  endloop
endfacet
facet normal -0.6087614290086991 0.7933533402912517 1.8732423001184367e-16
  outer loop
    vertex 197.76442930276954 63.86634053554745 3.3839597790574766e-14
    vertex 197.35021574039644 63.548503290351675 47.74999999999994
    vertex 197.76442930276954 63.86634053554745 47.74999999999994
  endloop
endfacet
facet normal -0.7933533402912479 0.6087614290087043 3.596472572973723e-16
  outer loop
    vertex 197.35021574039644 63.548503290351675 47.74999999999994
    vertex 197.03237849520067 63.134289727978604 2.255973186038318e-14
    vertex 197.03237849520067 63.134289727978576 47.74999999999997
  endloop
endfacet
facet normal -0.7933533402912479 0.6087614290087043 3.596472572973723e-16
  outer loop
    vertex 197.03237849520067 63.134289727978604 2.255973186038318e-14
    vertex 197.35021574039644 63.548503290351675 47.74999999999994
    vertex 197.35021574039644 63.5485032903517 2.255973186038318e-14
  endloop
endfacet
facet normal 0.1305261922200569 0.9914448613738098 3.5132537622385535e-16
  outer loop
    vertex 198.7644293027696 64.13428972797858 3.947953075567056e-14
    vertex 199.28206739297457 64.06614138055672 47.74999999999994
    vertex 199.28206739297457 64.06614138055673 1.127986593019159e-14
  endloop
endfacet
facet normal 0.1305261922200569 0.9914448613738098 3.5132537622385535e-16
  outer loop
    vertex 199.28206739297457 64.06614138055672 47.74999999999994
    vertex 198.7644293027696 64.13428972797858 3.947953075567056e-14
    vertex 198.7644293027696 64.13428972797857 47.74999999999994
  endloop
endfacet
facet normal -0.923879532511261 -0.38268343236515207 3.586944503197844e-17
  outer loop
    vertex 196.83257765019138 61.61665163777355 0.2500000000000447
    vertex 197.03237849520067 61.13428972797859 1.127986593019159e-14
    vertex 197.03237849520067 61.13428972797859 0.2500000000000221
  endloop
endfacet
facet normal -0.923879532511261 -0.38268343236515207 3.586944503197844e-17
  outer loop
    vertex 197.03237849520067 61.13428972797859 1.127986593019159e-14
    vertex 196.83257765019138 61.61665163777355 0.2500000000000447
    vertex 196.83257765019138 61.61665163777355 0.0
  endloop
endfacet
facet normal 2.347632025466423e-17 1.993674389533435e-15 -1.0
  outer loop
    vertex 196.83257765019138 62.65192781818365 0.0
    vertex 196.83257765019138 61.61665163777355 0.0
    vertex 196.76442930276954 62.1342897279786 1.6919798895287383e-14
  endloop
endfacet
facet normal 2.347632025466423e-17 1.993674389533435e-15 -1.0
  outer loop
    vertex 196.83257765019138 61.61665163777355 0.0
    vertex 196.83257765019138 62.65192781818365 0.0
    vertex 197.03237849520067 63.134289727978604 2.255973186038318e-14
  endloop
endfacet
facet normal 2.347632025466423e-17 1.993674389533435e-15 -1.0
  outer loop
    vertex 196.83257765019138 61.61665163777355 0.0
    vertex 197.03237849520067 63.134289727978604 2.255973186038318e-14
    vertex 197.03237849520067 61.13428972797859 1.127986593019159e-14
  endloop
endfacet
facet normal 2.347632025466423e-17 1.993674389533435e-15 -1.0
  outer loop
    vertex 197.03237849520067 61.13428972797859 1.127986593019159e-14
    vertex 197.03237849520067 63.134289727978604 2.255973186038318e-14
    vertex 197.35021574039644 63.5485032903517 2.255973186038318e-14
  endloop
endfacet
facet normal 2.347632025466423e-17 1.993674389533435e-15 -1.0
  outer loop
    vertex 197.03237849520067 61.13428972797859 1.127986593019159e-14
    vertex 197.35021574039644 63.5485032903517 2.255973186038318e-14
    vertex 197.35021574039644 60.72007616560551 0.0
  endloop
endfacet
facet normal 2.347632025466423e-17 1.993674389533435e-15 -1.0
  outer loop
    vertex 197.35021574039644 60.72007616560551 0.0
    vertex 197.35021574039644 63.5485032903517 2.255973186038318e-14
    vertex 197.76442930276954 63.86634053554745 3.3839597790574766e-14
  endloop
endfacet
facet normal 2.347632025466423e-17 1.993674389533435e-15 -1.0
  outer loop
    vertex 197.35021574039644 60.72007616560551 0.0
    vertex 197.76442930276954 63.86634053554745 3.3839597790574766e-14
    vertex 197.76442930276954 60.402238920409694 3.3839597790574766e-14
  endloop
endfacet
facet normal 2.347632025466423e-17 1.993674389533435e-15 -1.0
  outer loop
    vertex 197.76442930276954 60.402238920409694 3.3839597790574766e-14
    vertex 197.76442930276954 63.86634053554745 3.3839597790574766e-14
    vertex 198.24679121256452 64.06614138055673 1.127986593019159e-14
  endloop
endfacet
facet normal 2.347632025466423e-17 1.993674389533435e-15 -1.0
  outer loop
    vertex 197.76442930276954 60.402238920409694 3.3839597790574766e-14
    vertex 198.24679121256452 64.06614138055673 1.127986593019159e-14
    vertex 198.24679121256452 60.20243807540045 1.6919798895287383e-14
  endloop
endfacet
facet normal 2.347632025466423e-17 1.993674389533435e-15 -1.0
  outer loop
    vertex 198.24679121256452 60.20243807540045 1.6919798895287383e-14
    vertex 198.24679121256452 64.06614138055673 1.127986593019159e-14
    vertex 198.7644293027696 64.13428972797858 3.947953075567056e-14
  endloop
endfacet
facet normal 2.347632025466423e-17 1.993674389533435e-15 -1.0
  outer loop
    vertex 198.24679121256452 60.20243807540045 1.6919798895287383e-14
    vertex 198.7644293027696 64.13428972797858 3.947953075567056e-14
    vertex 198.7644293027696 60.13428972797859 2.255973186038318e-14
  endloop
endfacet
facet normal 2.347632025466423e-17 1.993674389533435e-15 -1.0
  outer loop
    vertex 198.7644293027696 60.13428972797859 2.255973186038318e-14
    vertex 198.7644293027696 64.13428972797858 3.947953075567056e-14
    vertex 199.28206739297457 64.06614138055673 1.127986593019159e-14
  endloop
endfacet
facet normal 2.347632025466423e-17 1.993674389533435e-15 -1.0
  outer loop
    vertex 198.7644293027696 60.13428972797859 2.255973186038318e-14
    vertex 199.28206739297457 64.06614138055673 1.127986593019159e-14
    vertex 199.28206739297457 60.20243807540045 1.6919798895287383e-14
  endloop
endfacet
facet normal 2.347632025466423e-17 1.993674389533435e-15 -1.0
  outer loop
    vertex 199.28206739297457 60.20243807540045 1.6919798895287383e-14
    vertex 199.28206739297457 64.06614138055673 1.127986593019159e-14
    vertex 199.76442930276954 63.86634053554745 3.3839597790574766e-14
  endloop
endfacet
facet normal 2.347632025466423e-17 1.993674389533435e-15 -1.0
  outer loop
    vertex 199.28206739297457 60.20243807540045 1.6919798895287383e-14
    vertex 199.76442930276954 63.86634053554745 3.3839597790574766e-14
    vertex 199.76442930276954 60.402238920409694 3.3839597790574766e-14
  endloop
endfacet
facet normal 2.347632025466423e-17 1.993674389533435e-15 -1.0
  outer loop
    vertex 199.76442930276954 60.402238920409694 3.3839597790574766e-14
    vertex 199.76442930276954 63.86634053554745 3.3839597790574766e-14
    vertex 200.17864286514268 63.5485032903517 2.255973186038318e-14
  endloop
endfacet
facet normal 2.347632025466423e-17 1.993674389533435e-15 -1.0
  outer loop
    vertex 199.76442930276954 60.402238920409694 3.3839597790574766e-14
    vertex 200.17864286514268 63.5485032903517 2.255973186038318e-14
    vertex 200.17864286514268 60.72007616560551 0.0
  endloop
endfacet
facet normal 2.347632025466423e-17 1.993674389533435e-15 -1.0
  outer loop
    vertex 200.17864286514268 60.72007616560551 0.0
    vertex 200.17864286514268 63.5485032903517 2.255973186038318e-14
    vertex 200.49648011033847 63.134289727978604 1.6919798895287383e-14
  endloop
endfacet
facet normal 2.347632025466423e-17 1.993674389533435e-15 -1.0
  outer loop
    vertex 200.17864286514268 60.72007616560551 0.0
    vertex 200.49648011033847 63.134289727978604 1.6919798895287383e-14
    vertex 200.49648011033847 61.134289727978576 1.127986593019159e-14
  endloop
endfacet
facet normal 2.347632025466423e-17 1.993674389533435e-15 -1.0
  outer loop
    vertex 200.49648011033847 61.134289727978576 1.127986593019159e-14
    vertex 200.49648011033847 63.134289727978604 1.6919798895287383e-14
    vertex 200.69628095534767 62.651927818183644 5.639932965095795e-15
  endloop
endfacet
facet normal 2.347632025466423e-17 1.993674389533435e-15 -1.0
  outer loop
    vertex 200.49648011033847 61.134289727978576 1.127986593019159e-14
    vertex 200.69628095534767 62.651927818183644 5.639932965095795e-15
    vertex 200.69628095534767 61.61665163777354 0.0
  endloop
endfacet
facet normal 2.347632025466423e-17 1.993674389533435e-15 -1.0
  outer loop
    vertex 200.69628095534767 61.61665163777354 0.0
    vertex 200.69628095534767 62.651927818183644 5.639932965095795e-15
    vertex 200.7644293027696 62.1342897279786 1.6919798895287383e-14
  endloop
endfacet
facet normal -0.13052619222007703 -0.9914448613738073 -1.1703359811504445e-16
  outer loop
    vertex 198.7644293027696 60.13428972797859 2.255973186038318e-14
    vertex 198.24679121256452 60.202438075400465 47.74999999999997
    vertex 198.24679121256452 60.20243807540045 1.6919798895287383e-14
  endloop
endfacet
facet normal -0.13052619222007703 -0.9914448613738073 -1.1703359811504445e-16
  outer loop
    vertex 198.24679121256452 60.202438075400465 47.74999999999997
    vertex 198.7644293027696 60.13428972797859 2.255973186038318e-14
    vertex 198.7644293027696 60.13428972797857 47.74999999999997
  endloop
endfacet
facet normal 0.13052619222009937 -0.9914448613738042 -1.1709766721247654e-16
  outer loop
    vertex 199.28206739297457 60.202438075400465 47.74999999999997
    vertex 198.7644293027696 60.13428972797859 2.255973186038318e-14
    vertex 199.28206739297457 60.20243807540045 1.6919798895287383e-14
  endloop
endfacet
facet normal 0.13052619222009937 -0.9914448613738042 -1.1709766721247654e-16
  outer loop
    vertex 198.7644293027696 60.13428972797859 2.255973186038318e-14
    vertex 199.28206739297457 60.202438075400465 47.74999999999997
    vertex 198.7644293027696 60.13428972797857 47.74999999999997
  endloop
endfacet
facet normal -0.13052619222003453 0.9914448613738127 3.5132537622385624e-16
  outer loop
    vertex 198.24679121256452 64.06614138055672 47.74999999999994
    vertex 198.7644293027696 64.13428972797858 3.947953075567056e-14
    vertex 198.24679121256452 64.06614138055673 1.127986593019159e-14
  endloop
endfacet
facet normal -0.13052619222003453 0.9914448613738127 3.5132537622385624e-16
  outer loop
    vertex 198.7644293027696 64.13428972797858 3.947953075567056e-14
    vertex 198.24679121256452 64.06614138055672 47.74999999999994
    vertex 198.7644293027696 64.13428972797857 47.74999999999994
  endloop
endfacet
facet normal -0.382683432365043 -0.9238795325113063 1.0913845443595966e-16
  outer loop
    vertex 198.24679121256452 60.202438075400465 47.74999999999997
    vertex 197.76442930276954 60.402238920409694 3.3839597790574766e-14
    vertex 198.24679121256452 60.20243807540045 1.6919798895287383e-14
  endloop
endfacet
facet normal -0.382683432365043 -0.9238795325113063 1.0913845443595966e-16
  outer loop
    vertex 197.76442930276954 60.402238920409694 3.3839597790574766e-14
    vertex 198.24679121256452 60.202438075400465 47.74999999999997
    vertex 197.76442930276954 60.402238920409694 47.74999999999994
  endloop
endfacet
facet normal -0.991444861373819 0.13052619221998707 5.706233702186732e-17
  outer loop
    vertex 196.83257765019138 62.65192781818363 25.75000000000001
    vertex 196.76442930276954 62.1342897279786 1.6919798895287383e-14
    vertex 196.76442930276954 62.1342897279786 25.750000000000032
  endloop
endfacet
facet normal -0.991444861373819 0.13052619221998707 5.706233702186732e-17
  outer loop
    vertex 196.76442930276954 62.1342897279786 1.6919798895287383e-14
    vertex 196.83257765019138 62.65192781818363 25.75000000000001
    vertex 196.83257765019138 62.65192781818365 0.0
  endloop
endfacet
facet normal -0.793353340291246 -0.6087614290087067 -4.174749787947195e-17
  outer loop
    vertex 197.03237849520067 61.1342897279786 47.74999999999997
    vertex 197.35021574039644 60.72007616560551 0.0
    vertex 197.35021574039644 60.72007616560549 47.74999999999997
  endloop
endfacet
facet normal -0.793353340291246 -0.6087614290087067 -4.174749787947195e-17
  outer loop
    vertex 197.35021574039644 60.72007616560551 0.0
    vertex 197.03237849520067 61.1342897279786 47.74999999999997
    vertex 197.03237849520067 61.13428972797859 0.2500000000000221
  endloop
endfacet
facet normal -0.793353340291246 -0.6087614290087067 -4.174749787947195e-17
  outer loop
    vertex 197.03237849520067 61.13428972797859 1.127986593019159e-14
    vertex 197.35021574039644 60.72007616560551 0.0
    vertex 197.03237849520067 61.13428972797859 0.2500000000000221
  endloop
endfacet
facet normal -0.3826834323650938 0.9238795325112852 -3.37258638970373e-21
  outer loop
    vertex 197.03237849520067 61.1342897279786 47.74999999999997
    vertex 197.49431826145636 61.32563144416116 0.25000000000003336
    vertex 197.03237849520067 61.13428972797859 0.2500000000000221
  endloop
endfacet
facet normal -0.3826834323650938 0.9238795325112852 -3.37258638970373e-21
  outer loop
    vertex 197.49431826145636 61.32563144416116 0.25000000000003336
    vertex 197.03237849520067 61.1342897279786 47.74999999999997
    vertex 197.49431826145636 61.32563144416115 47.74999999999997
  endloop
endfacet
facet normal -0.60876142900874 -0.7933533402912204 -1.8749194985408187e-16
  outer loop
    vertex 197.76442930276954 60.402238920409694 3.3839597790574766e-14
    vertex 197.35021574039644 60.72007616560549 47.74999999999997
    vertex 197.35021574039644 60.72007616560551 0.0
  endloop
endfacet
facet normal -0.60876142900874 -0.7933533402912204 -1.8749194985408187e-16
  outer loop
    vertex 197.35021574039644 60.72007616560549 47.74999999999997
    vertex 197.76442930276954 60.402238920409694 3.3839597790574766e-14
    vertex 197.76442930276954 60.402238920409694 47.74999999999994
  endloop
endfacet
facet normal 0.6087614290086981 -0.7933533402912525 -1.8749194985408949e-16
  outer loop
    vertex 200.17864286514268 60.72007616560549 47.74999999999997
    vertex 199.76442930276954 60.402238920409694 3.3839597790574766e-14
    vertex 200.17864286514268 60.72007616560551 0.0
  endloop
endfacet
facet normal 0.6087614290086981 -0.7933533402912525 -1.8749194985408949e-16
  outer loop
    vertex 199.76442930276954 60.402238920409694 3.3839597790574766e-14
    vertex 200.17864286514268 60.72007616560549 47.74999999999997
    vertex 199.76442930276954 60.402238920409694 47.74999999999994
  endloop
endfacet
facet normal 1.7249192615668418e-14 2.257217829357682e-15 -1.0
  outer loop
    vertex 196.83257765019138 62.65192781818363 26.750000000000018
    vertex 196.83257765019138 61.61665163777354 26.749999999999996
    vertex 196.76442930276954 62.13428972797862 26.750000000000018
  endloop
endfacet
facet normal 1.7249192615668418e-14 2.257217829357682e-15 -1.0
  outer loop
    vertex 196.83257765019138 61.61665163777354 26.749999999999996
    vertex 196.83257765019138 62.65192781818363 26.750000000000018
    vertex 196.88876298290066 62.78757121041669 26.749999999999996
  endloop
endfacet
facet normal 1.7249192615668418e-14 2.257217829357682e-15 -1.0
  outer loop
    vertex 196.83257765019138 61.61665163777354 26.749999999999996
    vertex 196.88876298290066 62.78757121041669 26.749999999999996
    vertex 197.29451741644706 61.8079933539561 26.750000000000018
  endloop
endfacet
facet normal 0.9238795325113189 0.3826834323650121 1.80748705688498e-16
  outer loop
    vertex 200.69628095534767 62.651927818183644 5.639932965095795e-15
    vertex 200.49648011033847 63.134289727978576 47.74999999999997
    vertex 200.69628095534767 62.65192781818363 47.74999999999994
  endloop
endfacet
facet normal 0.9238795325113189 0.3826834323650121 1.80748705688498e-16
  outer loop
    vertex 200.49648011033847 63.134289727978576 47.74999999999997
    vertex 200.69628095534767 62.651927818183644 5.639932965095795e-15
    vertex 200.49648011033847 63.134289727978604 1.6919798895287383e-14
  endloop
endfacet
facet normal 0.3826834323651034 -0.9238795325112812 2.483139410693824e-16
  outer loop
    vertex 197.29451741644706 61.8079933539561 26.750000000000018
    vertex 196.83257765019138 61.61665163777354 47.74999999999997
    vertex 196.83257765019138 61.61665163777354 26.749999999999996
  endloop
endfacet
facet normal 0.3826834323651034 -0.9238795325112812 2.483139410693824e-16
  outer loop
    vertex 196.83257765019138 61.61665163777354 47.74999999999997
    vertex 197.29451741644706 61.8079933539561 26.750000000000018
    vertex 197.29451741644706 61.807993353956114 47.74999999999997
  endloop
endfacet
facet normal -0.9914448613738188 -0.13052619221998824 3.2853702900712447e-17
  outer loop
    vertex 196.83257765019138 61.616651637773565 25.75000000000001
    vertex 196.83257765019138 61.61665163777355 0.0
    vertex 196.83257765019138 61.61665163777355 0.2500000000000447
  endloop
endfacet
facet normal -0.9914448613738188 -0.13052619221998824 3.2853702900712447e-17
  outer loop
    vertex 196.83257765019138 61.61665163777355 0.0
    vertex 196.83257765019138 61.616651637773565 25.75000000000001
    vertex 196.76442930276954 62.1342897279786 1.6919798895287383e-14
  endloop
endfacet
facet normal -0.9914448613738188 -0.13052619221998824 3.2853702900712447e-17
  outer loop
    vertex 196.76442930276954 62.1342897279786 1.6919798895287383e-14
    vertex 196.83257765019138 61.616651637773565 25.75000000000001
    vertex 196.76442930276954 62.1342897279786 25.750000000000032
  endloop
endfacet
facet normal 0.9914448613737967 -0.13052619222015552 -1.5363633549243917e-17
  outer loop
    vertex 200.7644293027696 62.1342897279786 1.6919798895287383e-14
    vertex 200.69628095534767 61.61665163777354 47.74999999999997
    vertex 200.69628095534767 61.61665163777354 0.0
  endloop
endfacet
facet normal 0.9914448613737967 -0.13052619222015552 -1.5363633549243917e-17
  outer loop
    vertex 200.69628095534767 61.61665163777354 47.74999999999997
    vertex 200.7644293027696 62.1342897279786 1.6919798895287383e-14
    vertex 200.7644293027696 62.13428972797858 47.74999999999997
  endloop
endfacet
facet normal -0.9238795325112589 0.3826834323651574 2.589817997626468e-16
  outer loop
    vertex 197.03237849520067 63.134289727978576 47.74999999999997
    vertex 196.83257765019138 62.65192781818363 26.750000000000018
    vertex 196.83257765019138 62.65192781818363 47.74999999999994
  endloop
endfacet
facet normal -0.9238795325112589 0.3826834323651574 2.589817997626468e-16
  outer loop
    vertex 196.83257765019138 62.65192781818363 26.750000000000018
    vertex 197.03237849520067 63.134289727978576 47.74999999999997
    vertex 196.88876298290066 62.78757121041669 26.749999999999996
  endloop
endfacet
facet normal -0.9238795325112589 0.3826834323651574 2.589817997626468e-16
  outer loop
    vertex 196.88876298290066 62.78757121041669 26.749999999999996
    vertex 197.03237849520067 63.134289727978576 47.74999999999997
    vertex 196.88876298290066 62.78757121041671 25.750000000000032
  endloop
endfacet
facet normal -0.9238795325112589 0.3826834323651574 2.589817997626468e-16
  outer loop
    vertex 196.88876298290066 62.78757121041671 25.750000000000032
    vertex 196.83257765019138 62.65192781818365 0.0
    vertex 196.83257765019138 62.65192781818363 25.75000000000001
  endloop
endfacet
facet normal -0.9238795325112589 0.3826834323651574 2.589817997626468e-16
  outer loop
    vertex 196.83257765019138 62.65192781818365 0.0
    vertex 196.88876298290066 62.78757121041671 25.750000000000032
    vertex 197.03237849520067 63.134289727978604 2.255973186038318e-14
  endloop
endfacet
facet normal -0.9238795325112589 0.3826834323651574 2.589817997626468e-16
  outer loop
    vertex 197.03237849520067 63.134289727978604 2.255973186038318e-14
    vertex 196.88876298290066 62.78757121041671 25.750000000000032
    vertex 197.03237849520067 63.134289727978576 47.74999999999997
  endloop
endfacet
facet normal 0.9914448613737967 0.13052619222015696 3.0782303895408385e-17
  outer loop
    vertex 200.7644293027696 62.1342897279786 1.6919798895287383e-14
    vertex 200.69628095534767 62.65192781818363 47.74999999999994
    vertex 200.7644293027696 62.13428972797858 47.74999999999997
  endloop
endfacet
facet normal 0.9914448613737967 0.13052619222015696 3.0782303895408385e-17
  outer loop
    vertex 200.69628095534767 62.65192781818363 47.74999999999994
    vertex 200.7644293027696 62.1342897279786 1.6919798895287383e-14
    vertex 200.69628095534767 62.651927818183644 5.639932965095795e-15
  endloop
endfacet
facet normal 0.382683432365089 0.9238795325112871 2.1820911463659307e-16
  outer loop
    vertex 199.28206739297457 64.06614138055672 47.74999999999994
    vertex 199.76442930276954 63.86634053554745 3.3839597790574766e-14
    vertex 199.28206739297457 64.06614138055673 1.127986593019159e-14
  endloop
endfacet
facet normal 0.382683432365089 0.9238795325112871 2.1820911463659307e-16
  outer loop
    vertex 199.76442930276954 63.86634053554745 3.3839597790574766e-14
    vertex 199.28206739297457 64.06614138055672 47.74999999999994
    vertex 199.76442930276954 63.86634053554745 47.74999999999994
  endloop
endfacet
facet normal 0.9238795325113189 -0.3826834323650121 9.042937022548618e-17
  outer loop
    vertex 200.69628095534767 61.61665163777354 0.0
    vertex 200.49648011033847 61.1342897279786 47.74999999999997
    vertex 200.49648011033847 61.134289727978576 1.127986593019159e-14
  endloop
endfacet
facet normal 0.9238795325113189 -0.3826834323650121 9.042937022548618e-17
  outer loop
    vertex 200.49648011033847 61.1342897279786 47.74999999999997
    vertex 200.69628095534767 61.61665163777354 0.0
    vertex 200.69628095534767 61.61665163777354 47.74999999999997
  endloop
endfacet
facet normal -0.9914448613738195 -0.13052619221998288 -1.0524565290589508e-16
  outer loop
    vertex 196.76442930276954 62.13428972797858 47.74999999999997
    vertex 196.83257765019138 61.61665163777354 26.749999999999996
    vertex 196.83257765019138 61.61665163777354 47.74999999999997
  endloop
endfacet
facet normal -0.9914448613738195 -0.13052619221998288 -1.0524565290589508e-16
  outer loop
    vertex 196.83257765019138 61.61665163777354 26.749999999999996
    vertex 196.76442930276954 62.13428972797858 47.74999999999997
    vertex 196.76442930276954 62.13428972797862 26.750000000000018
  endloop
endfacet
facet normal 0.7933533402912477 0.6087614290087043 3.5973786468389027e-16
  outer loop
    vertex 200.49648011033847 63.134289727978604 1.6919798895287383e-14
    vertex 200.17864286514268 63.548503290351675 47.74999999999994
    vertex 200.49648011033847 63.134289727978576 47.74999999999997
  endloop
endfacet
facet normal 0.7933533402912477 0.6087614290087043 3.5973786468389027e-16
  outer loop
    vertex 200.17864286514268 63.548503290351675 47.74999999999994
    vertex 200.49648011033847 63.134289727978604 1.6919798895287383e-14
    vertex 200.17864286514268 63.5485032903517 2.255973186038318e-14
  endloop
endfacet
facet normal 0.6087614290086573 0.7933533402912838 1.8732423001185116e-16
  outer loop
    vertex 199.76442930276954 63.86634053554745 3.3839597790574766e-14
    vertex 200.17864286514268 63.548503290351675 47.74999999999994
    vertex 200.17864286514268 63.5485032903517 2.255973186038318e-14
  endloop
endfacet
facet normal 0.6087614290086573 0.7933533402912838 1.8732423001185116e-16
  outer loop
    vertex 200.17864286514268 63.548503290351675 47.74999999999994
    vertex 199.76442930276954 63.86634053554745 3.3839597790574766e-14
    vertex 199.76442930276954 63.86634053554745 47.74999999999994
  endloop
endfacet
facet normal 8.267723392073053e-15 -1.9960049943091475e-14 1.0
  outer loop
    vertex 197.03237849520067 61.13428972797859 0.2500000000000221
    vertex 197.29451741644706 61.807993353956114 0.25000000000003336
    vertex 196.83257765019138 61.61665163777355 0.2500000000000447
  endloop
endfacet
facet normal 8.267723392073053e-15 -1.9960049943091475e-14 1.0
  outer loop
    vertex 197.29451741644706 61.807993353956114 0.25000000000003336
    vertex 197.03237849520067 61.13428972797859 0.2500000000000221
    vertex 197.49431826145636 61.32563144416116 0.25000000000003336
  endloop
endfacet
facet normal -2.7720820685941626e-14 -6.6115047563626864e-15 1.0
  outer loop
    vertex 196.83257765019138 61.616651637773565 25.75000000000001
    vertex 196.83257765019138 62.65192781818363 25.75000000000001
    vertex 196.76442930276954 62.1342897279786 25.750000000000032
  endloop
endfacet
facet normal -2.7720820685941626e-14 -6.6115047563626864e-15 1.0
  outer loop
    vertex 196.83257765019138 62.65192781818363 25.75000000000001
    vertex 196.83257765019138 61.616651637773565 25.75000000000001
    vertex 197.29451741644706 61.80799335395612 25.750000000000032
  endloop
endfacet
facet normal -2.7720820685941626e-14 -6.6115047563626864e-15 1.0
  outer loop
    vertex 196.83257765019138 62.65192781818363 25.75000000000001
    vertex 197.29451741644706 61.80799335395612 25.750000000000032
    vertex 196.88876298290066 62.78757121041671 25.750000000000032
  endloop
endfacet
facet normal -0.9914448613738184 0.13052619221999126 1.052641493124075e-16
  outer loop
    vertex 196.83257765019138 62.65192781818363 47.74999999999994
    vertex 196.76442930276954 62.13428972797862 26.750000000000018
    vertex 196.76442930276954 62.13428972797858 47.74999999999997
  endloop
endfacet
facet normal -0.9914448613738184 0.13052619221999126 1.052641493124075e-16
  outer loop
    vertex 196.76442930276954 62.13428972797862 26.750000000000018
    vertex 196.83257765019138 62.65192781818363 47.74999999999994
    vertex 196.83257765019138 62.65192781818363 26.750000000000018
  endloop
endfacet
facet normal -0.9238795325112632 -0.38268343236514674 -5.06851104185904e-17
  outer loop
    vertex 197.29451741644706 61.807993353956114 47.74999999999997
    vertex 197.49431826145636 61.32563144416116 0.25000000000003336
    vertex 197.49431826145636 61.32563144416115 47.74999999999997
  endloop
endfacet
facet normal -0.9238795325112632 -0.38268343236514674 -5.06851104185904e-17
  outer loop
    vertex 197.49431826145636 61.32563144416116 0.25000000000003336
    vertex 197.29451741644706 61.807993353956114 47.74999999999997
    vertex 197.29451741644706 61.8079933539561 26.750000000000018
  endloop
endfacet
facet normal -0.9238795325112632 -0.38268343236514674 -5.06851104185904e-17
  outer loop
    vertex 197.29451741644706 61.8079933539561 26.750000000000018
    vertex 197.29451741644706 61.807993353956114 0.25000000000003336
    vertex 197.49431826145636 61.32563144416116 0.25000000000003336
  endloop
endfacet
facet normal -0.9238795325112632 -0.38268343236514674 -5.06851104185904e-17
  outer loop
    vertex 197.29451741644706 61.807993353956114 0.25000000000003336
    vertex 197.29451741644706 61.8079933539561 26.750000000000018
    vertex 197.29451741644706 61.80799335395612 25.750000000000032
  endloop
endfacet
facet normal -0.9238795325112632 -0.38268343236514674 -5.06851104185904e-17
  outer loop
    vertex 197.29451741644706 61.80799335395612 25.750000000000032
    vertex 197.29451741644706 61.8079933539561 26.750000000000018
    vertex 196.88876298290066 62.78757121041669 26.749999999999996
  endloop
endfacet
facet normal -0.9238795325112632 -0.38268343236514674 -5.06851104185904e-17
  outer loop
    vertex 197.29451741644706 61.80799335395612 25.750000000000032
    vertex 196.88876298290066 62.78757121041669 26.749999999999996
    vertex 196.88876298290066 62.78757121041671 25.750000000000032
  endloop
endfacet
facet normal 3.8088072532950804e-16 4.716647718535942e-15 1.0
  outer loop
    vertex 197.35021574039644 60.72007616560549 47.74999999999997
    vertex 197.49431826145636 61.32563144416115 47.74999999999997
    vertex 197.03237849520067 61.1342897279786 47.74999999999997
  endloop
endfacet
facet normal 3.8088072532950804e-16 4.716647718535942e-15 1.0
  outer loop
    vertex 197.49431826145636 61.32563144416115 47.74999999999997
    vertex 197.35021574039644 60.72007616560549 47.74999999999997
    vertex 197.76442930276954 60.402238920409694 47.74999999999994
  endloop
endfacet
facet normal 3.8088072532950804e-16 4.716647718535942e-15 1.0
  outer loop
    vertex 196.83257765019138 61.61665163777354 47.74999999999997
    vertex 196.83257765019138 62.65192781818363 47.74999999999994
    vertex 196.76442930276954 62.13428972797858 47.74999999999997
  endloop
endfacet
facet normal 3.8088072532950804e-16 4.716647718535942e-15 1.0
  outer loop
    vertex 196.83257765019138 62.65192781818363 47.74999999999994
    vertex 196.83257765019138 61.61665163777354 47.74999999999997
    vertex 197.29451741644706 61.807993353956114 47.74999999999997
  endloop
endfacet
facet normal 3.8088072532950804e-16 4.716647718535942e-15 1.0
  outer loop
    vertex 196.83257765019138 62.65192781818363 47.74999999999994
    vertex 197.29451741644706 61.807993353956114 47.74999999999997
    vertex 197.03237849520067 63.134289727978576 47.74999999999997
  endloop
endfacet
facet normal 3.8088072532950804e-16 4.716647718535942e-15 1.0
  outer loop
    vertex 197.03237849520067 63.134289727978576 47.74999999999997
    vertex 197.29451741644706 61.807993353956114 47.74999999999997
    vertex 197.35021574039644 63.548503290351675 47.74999999999994
  endloop
endfacet
facet normal 3.8088072532950804e-16 4.716647718535942e-15 1.0
  outer loop
    vertex 197.35021574039644 63.548503290351675 47.74999999999994
    vertex 197.29451741644706 61.807993353956114 47.74999999999997
    vertex 197.49431826145636 61.32563144416115 47.74999999999997
  endloop
endfacet
facet normal 3.8088072532950804e-16 4.716647718535942e-15 1.0
  outer loop
    vertex 197.35021574039644 63.548503290351675 47.74999999999994
    vertex 197.49431826145636 61.32563144416115 47.74999999999997
    vertex 197.76442930276954 63.86634053554745 47.74999999999994
  endloop
endfacet
facet normal 3.8088072532950804e-16 4.716647718535942e-15 1.0
  outer loop
    vertex 197.76442930276954 63.86634053554745 47.74999999999994
    vertex 197.49431826145636 61.32563144416115 47.74999999999997
    vertex 197.76442930276954 60.402238920409694 47.74999999999994
  endloop
endfacet
facet normal 3.8088072532950804e-16 4.716647718535942e-15 1.0
  outer loop
    vertex 197.76442930276954 63.86634053554745 47.74999999999994
    vertex 197.76442930276954 60.402238920409694 47.74999999999994
    vertex 198.24679121256452 60.202438075400465 47.74999999999997
  endloop
endfacet
facet normal 3.8088072532950804e-16 4.716647718535942e-15 1.0
  outer loop
    vertex 197.76442930276954 63.86634053554745 47.74999999999994
    vertex 198.24679121256452 60.202438075400465 47.74999999999997
    vertex 198.24679121256452 64.06614138055672 47.74999999999994
  endloop
endfacet
facet normal 3.8088072532950804e-16 4.716647718535942e-15 1.0
  outer loop
    vertex 198.24679121256452 64.06614138055672 47.74999999999994
    vertex 198.24679121256452 60.202438075400465 47.74999999999997
    vertex 198.7644293027696 60.13428972797857 47.74999999999997
  endloop
endfacet
facet normal 3.8088072532950804e-16 4.716647718535942e-15 1.0
  outer loop
    vertex 198.24679121256452 64.06614138055672 47.74999999999994
    vertex 198.7644293027696 60.13428972797857 47.74999999999997
    vertex 198.7644293027696 64.13428972797857 47.74999999999994
  endloop
endfacet
facet normal 3.8088072532950804e-16 4.716647718535942e-15 1.0
  outer loop
    vertex 198.7644293027696 64.13428972797857 47.74999999999994
    vertex 198.7644293027696 60.13428972797857 47.74999999999997
    vertex 199.28206739297457 60.202438075400465 47.74999999999997
  endloop
endfacet
facet normal 3.8088072532950804e-16 4.716647718535942e-15 1.0
  outer loop
    vertex 198.7644293027696 64.13428972797857 47.74999999999994
    vertex 199.28206739297457 60.202438075400465 47.74999999999997
    vertex 199.28206739297457 64.06614138055672 47.74999999999994
  endloop
endfacet
facet normal 3.8088072532950804e-16 4.716647718535942e-15 1.0
  outer loop
    vertex 199.28206739297457 64.06614138055672 47.74999999999994
    vertex 199.28206739297457 60.202438075400465 47.74999999999997
    vertex 199.76442930276954 60.402238920409694 47.74999999999994
  endloop
endfacet
facet normal 3.8088072532950804e-16 4.716647718535942e-15 1.0
  outer loop
    vertex 199.28206739297457 64.06614138055672 47.74999999999994
    vertex 199.76442930276954 60.402238920409694 47.74999999999994
    vertex 199.76442930276954 63.86634053554745 47.74999999999994
  endloop
endfacet
facet normal 3.8088072532950804e-16 4.716647718535942e-15 1.0
  outer loop
    vertex 199.76442930276954 63.86634053554745 47.74999999999994
    vertex 199.76442930276954 60.402238920409694 47.74999999999994
    vertex 200.17864286514268 60.72007616560549 47.74999999999997
  endloop
endfacet
facet normal 3.8088072532950804e-16 4.716647718535942e-15 1.0
  outer loop
    vertex 199.76442930276954 63.86634053554745 47.74999999999994
    vertex 200.17864286514268 60.72007616560549 47.74999999999997
    vertex 200.17864286514268 63.548503290351675 47.74999999999994
  endloop
endfacet
facet normal 3.8088072532950804e-16 4.716647718535942e-15 1.0
  outer loop
    vertex 200.17864286514268 63.548503290351675 47.74999999999994
    vertex 200.17864286514268 60.72007616560549 47.74999999999997
    vertex 200.49648011033847 61.1342897279786 47.74999999999997
  endloop
endfacet
facet normal 3.8088072532950804e-16 4.716647718535942e-15 1.0
  outer loop
    vertex 200.17864286514268 63.548503290351675 47.74999999999994
    vertex 200.49648011033847 61.1342897279786 47.74999999999997
    vertex 200.49648011033847 63.134289727978576 47.74999999999997
  endloop
endfacet
facet normal 3.8088072532950804e-16 4.716647718535942e-15 1.0
  outer loop
    vertex 200.49648011033847 63.134289727978576 47.74999999999997
    vertex 200.49648011033847 61.1342897279786 47.74999999999997
    vertex 200.69628095534767 61.61665163777354 47.74999999999997
  endloop
endfacet
facet normal 3.8088072532950804e-16 4.716647718535942e-15 1.0
  outer loop
    vertex 200.49648011033847 63.134289727978576 47.74999999999997
    vertex 200.69628095534767 61.61665163777354 47.74999999999997
    vertex 200.69628095534767 62.65192781818363 47.74999999999994
  endloop
endfacet
facet normal 3.8088072532950804e-16 4.716647718535942e-15 1.0
  outer loop
    vertex 200.69628095534767 62.65192781818363 47.74999999999994
    vertex 200.69628095534767 61.61665163777354 47.74999999999997
    vertex 200.7644293027696 62.13428972797858 47.74999999999997
  endloop
endfacet
facet normal -0.382683432365089 0.9238795325112871 2.1820911463659302e-16
  outer loop
    vertex 197.76442930276954 63.86634053554745 3.3839597790574766e-14
    vertex 198.24679121256452 64.06614138055672 47.74999999999994
    vertex 198.24679121256452 64.06614138055673 1.127986593019159e-14
  endloop
endfacet
facet normal -0.382683432365089 0.9238795325112871 2.1820911463659302e-16
  outer loop
    vertex 198.24679121256452 64.06614138055672 47.74999999999994
    vertex 197.76442930276954 63.86634053554745 3.3839597790574766e-14
    vertex 197.76442930276954 63.86634053554745 47.74999999999994
  endloop
endfacet
facet normal 0.7933533402912438 -0.6087614290087094 -3.180876246869622e-20
  outer loop
    vertex 200.17864286514268 60.72007616560551 0.0
    vertex 200.49648011033847 61.1342897279786 47.74999999999997
    vertex 200.17864286514268 60.72007616560549 47.74999999999997
  endloop
endfacet
facet normal 0.7933533402912438 -0.6087614290087094 -3.180876246869622e-20
  outer loop
    vertex 200.49648011033847 61.1342897279786 47.74999999999997
    vertex 200.17864286514268 60.72007616560551 0.0
    vertex 200.49648011033847 61.134289727978576 1.127986593019159e-14
  endloop
endfacet
endsolid draft
