solid draft
facet normal -0.6087614290087409 0.7933533402912197 -5.4071324733266725e-15
  outer loop
    vertex 246.3570758013858 190.2481557747287 9.49999999999921
    vertex 246.61595927786877 190.44680405297606 33.50000000000007
    vertex 246.61595927786894 190.44680405297606 9.499999999999204
  endloop
endfacet
facet normal -0.6087614290087409 0.7933533402912197 -5.4071324733266725e-15
  outer loop
    vertex 246.61595927786877 190.44680405297606 33.50000000000007
    vertex 246.3570758013858 190.2481557747287 9.49999999999921
    vertex 246.3570758013856 190.2481557747287 33.50000000000007
  endloop
endfacet
facet normal 0.9238795325112836 0.3826834323650976 8.206070200304849e-15
  outer loop
    vertex 248.32349103259946 189.9892722982455 9.499999999999181
    vertex 248.44836656073008 189.68779610462366 33.50000000000004
    vertex 248.44836656073028 189.68779610462366 9.499999999999181
  endloop
endfacet
facet normal 0.9238795325112836 0.3826834323650976 8.206070200304849e-15
  outer loop
    vertex 248.44836656073008 189.68779610462366 33.50000000000004
    vertex 248.32349103259946 189.9892722982455 9.499999999999181
    vertex 248.3234910325993 189.9892722982455 33.50000000000004
  endloop
endfacet
facet normal 0.1305261922200494 0.9914448613738107 1.1593579667521492e-15
  outer loop
    vertex 247.24095927786894 190.6142722982455 9.499999999999199
    vertex 247.56448308424694 190.57167958110685 33.50000000000006
    vertex 247.56448308424712 190.57167958110685 9.499999999999194
  endloop
endfacet
facet normal 0.1305261922200494 0.9914448613738107 1.1593579667521492e-15
  outer loop
    vertex 247.56448308424694 190.57167958110685 33.50000000000006
    vertex 247.24095927786894 190.6142722982455 9.499999999999199
    vertex 247.24095927786877 190.6142722982455 33.500000000000064
  endloop
endfacet
facet normal 0.38268343236512203 0.9238795325112733 3.3990655707522647e-15
  outer loop
    vertex 247.56448308424712 190.57167958110685 9.499999999999194
    vertex 247.86595927786877 190.44680405297606 33.50000000000005
    vertex 247.86595927786894 190.44680405297606 9.499999999999188
  endloop
endfacet
facet normal 0.38268343236512203 0.9238795325112733 3.3990655707522647e-15
  outer loop
    vertex 247.86595927786877 190.44680405297606 33.50000000000005
    vertex 247.56448308424712 190.57167958110685 9.499999999999194
    vertex 247.56448308424694 190.57167958110685 33.50000000000006
  endloop
endfacet
facet normal 0.793353340291212 0.608761429008751 7.046712233552499e-15
  outer loop
    vertex 248.1248427543521 190.2481557747287 9.499999999999188
    vertex 248.3234910325993 189.9892722982455 33.50000000000004
    vertex 248.32349103259946 189.9892722982455 9.499999999999181
  endloop
endfacet
facet normal 0.793353340291212 0.608761429008751 7.046712233552499e-15
  outer loop
    vertex 248.3234910325993 189.9892722982455 33.50000000000004
    vertex 248.1248427543521 190.2481557747287 9.499999999999188
    vertex 248.1248427543519 190.2481557747287 33.50000000000005
  endloop
endfacet
facet normal -0.9914448613738096 0.13052619222005837 -8.806198044078463e-15
  outer loop
    vertex 246.03355199500746 189.68779610462366 33.50000000000008
    vertex 245.99095927786897 189.3642722982455 9.499999999999215
    vertex 245.99095927786877 189.3642722982455 33.50000000000008
  endloop
endfacet
facet normal -0.9914448613738096 0.13052619222005837 -8.806198044078463e-15
  outer loop
    vertex 245.99095927786897 189.3642722982455 9.499999999999215
    vertex 246.03355199500746 189.68779610462366 33.50000000000008
    vertex 246.03355199500763 189.68779610462366 9.499999999999215
  endloop
endfacet
facet normal 0.6087614290087409 0.7933533402912197 5.4071324733266686e-15
  outer loop
    vertex 247.86595927786877 190.44680405297606 33.50000000000005
    vertex 248.1248427543521 190.2481557747287 9.499999999999188
    vertex 247.86595927786894 190.44680405297606 9.499999999999188
  endloop
endfacet
facet normal 0.6087614290087409 0.7933533402912197 5.4071324733266686e-15
  outer loop
    vertex 248.1248427543521 190.2481557747287 9.499999999999188
    vertex 247.86595927786877 190.44680405297606 33.50000000000005
    vertex 248.1248427543519 190.2481557747287 33.50000000000005
  endloop
endfacet
facet normal -0.9238795325112836 0.3826834323650976 -8.20607020030485e-15
  outer loop
    vertex 246.15842752313824 189.9892722982455 33.50000000000008
    vertex 246.03355199500763 189.68779610462366 9.499999999999215
    vertex 246.03355199500746 189.68779610462366 33.50000000000008
  endloop
endfacet
facet normal -0.9238795325112836 0.3826834323650976 -8.20607020030485e-15
  outer loop
    vertex 246.03355199500763 189.68779610462366 9.499999999999215
    vertex 246.15842752313824 189.9892722982455 33.50000000000008
    vertex 246.1584275231384 189.9892722982455 9.499999999999215
  endloop
endfacet
facet normal -0.1305261922200494 0.9914448613738107 -1.1593579667521539e-15
  outer loop
    vertex 246.9174354714908 190.57167958110685 9.499999999999204
    vertex 247.24095927786877 190.6142722982455 33.500000000000064
    vertex 247.24095927786894 190.6142722982455 9.499999999999199
  endloop
endfacet
facet normal -0.1305261922200494 0.9914448613738107 -1.1593579667521539e-15
  outer loop
    vertex 247.24095927786877 190.6142722982455 33.500000000000064
    vertex 246.9174354714908 190.57167958110685 9.499999999999204
    vertex 246.9174354714906 190.57167958110685 33.50000000000007
  endloop
endfacet
facet normal -0.38268343236512203 0.9238795325112733 -3.3990655707522694e-15
  outer loop
    vertex 246.61595927786877 190.44680405297606 33.50000000000007
    vertex 246.9174354714908 190.57167958110685 9.499999999999204
    vertex 246.61595927786894 190.44680405297606 9.499999999999204
  endloop
endfacet
facet normal -0.38268343236512203 0.9238795325112733 -3.3990655707522694e-15
  outer loop
    vertex 246.9174354714908 190.57167958110685 9.499999999999204
    vertex 246.61595927786877 190.44680405297606 33.50000000000007
    vertex 246.9174354714906 190.57167958110685 33.50000000000007
  endloop
endfacet
facet normal -0.9914448613738096 -0.13052619222005837 -8.806198044078463e-15
  outer loop
    vertex 245.99095927786877 189.3642722982455 33.50000000000008
    vertex 246.03355199500763 189.04074849186736 9.499999999999215
    vertex 246.03355199500746 189.04074849186736 33.50000000000008
  endloop
endfacet
facet normal -0.9914448613738096 -0.13052619222005837 -8.806198044078463e-15
  outer loop
    vertex 246.03355199500763 189.04074849186736 9.499999999999215
    vertex 245.99095927786877 189.3642722982455 33.50000000000008
    vertex 245.99095927786897 189.3642722982455 9.499999999999215
  endloop
endfacet
facet normal -0.793353340291212 0.608761429008751 -7.046712233552502e-15
  outer loop
    vertex 246.3570758013856 190.2481557747287 33.50000000000007
    vertex 246.1584275231384 189.9892722982455 9.499999999999215
    vertex 246.15842752313824 189.9892722982455 33.50000000000008
  endloop
endfacet
facet normal -0.793353340291212 0.608761429008751 -7.046712233552502e-15
  outer loop
    vertex 246.1584275231384 189.9892722982455 9.499999999999215
    vertex 246.3570758013856 190.2481557747287 33.50000000000007
    vertex 246.3570758013858 190.2481557747287 9.49999999999921
  endloop
endfacet
facet normal 1.3977838854461171e-14 3.256216815609533e-16 1.0
  outer loop
    vertex 246.03355199500746 189.04074849186736 33.50000000000008
    vertex 246.03355199500746 189.68779610462366 33.50000000000008
    vertex 245.99095927786877 189.3642722982455 33.50000000000008
  endloop
endfacet
facet normal 1.3977838854461171e-14 3.256216815609533e-16 1.0
  outer loop
    vertex 246.03355199500746 189.68779610462366 33.50000000000008
    vertex 246.03355199500746 189.04074849186736 33.50000000000008
    vertex 246.15842752313824 188.73927229824554 33.50000000000008
  endloop
endfacet
facet normal 1.3977838854461171e-14 3.256216815609533e-16 1.0
  outer loop
    vertex 246.03355199500746 189.68779610462366 33.50000000000008
    vertex 246.15842752313824 188.73927229824554 33.50000000000008
    vertex 246.15842752313824 189.9892722982455 33.50000000000008
  endloop
endfacet
facet normal 1.3977838854461171e-14 3.256216815609533e-16 1.0
  outer loop
    vertex 246.15842752313824 189.9892722982455 33.50000000000008
    vertex 246.15842752313824 188.73927229824554 33.50000000000008
    vertex 246.3570758013856 188.48038882176235 33.50000000000007
  endloop
endfacet
facet normal 1.3977838854461171e-14 3.256216815609533e-16 1.0
  outer loop
    vertex 246.15842752313824 189.9892722982455 33.50000000000008
    vertex 246.3570758013856 188.48038882176235 33.50000000000007
    vertex 246.3570758013856 190.2481557747287 33.50000000000007
  endloop
endfacet
facet normal 1.3977838854461171e-14 3.256216815609533e-16 1.0
  outer loop
    vertex 246.3570758013856 190.2481557747287 33.50000000000007
    vertex 246.3570758013856 188.48038882176235 33.50000000000007
    vertex 246.61595927786877 188.28174054351499 33.50000000000007
  endloop
endfacet
facet normal 1.3977838854461171e-14 3.256216815609533e-16 1.0
  outer loop
    vertex 246.3570758013856 190.2481557747287 33.50000000000007
    vertex 246.61595927786877 188.28174054351499 33.50000000000007
    vertex 246.61595927786877 190.44680405297606 33.50000000000007
  endloop
endfacet
facet normal 1.3977838854461171e-14 3.256216815609533e-16 1.0
  outer loop
    vertex 246.61595927786877 190.44680405297606 33.50000000000007
    vertex 246.61595927786877 188.28174054351499 33.50000000000007
    vertex 246.9174354714906 188.1568650153842 33.50000000000007
  endloop
endfacet
facet normal 1.3977838854461171e-14 3.256216815609533e-16 1.0
  outer loop
    vertex 246.61595927786877 190.44680405297606 33.50000000000007
    vertex 246.9174354714906 188.1568650153842 33.50000000000007
    vertex 246.9174354714906 190.57167958110685 33.50000000000007
  endloop
endfacet
facet normal 1.3977838854461171e-14 3.256216815609533e-16 1.0
  outer loop
    vertex 246.9174354714906 190.57167958110685 33.50000000000007
    vertex 246.9174354714906 188.1568650153842 33.50000000000007
    vertex 247.24095927786877 188.11427229824554 33.500000000000064
  endloop
endfacet
facet normal 1.3977838854461171e-14 3.256216815609533e-16 1.0
  outer loop
    vertex 246.9174354714906 190.57167958110685 33.50000000000007
    vertex 247.24095927786877 188.11427229824554 33.500000000000064
    vertex 247.24095927786877 190.6142722982455 33.500000000000064
  endloop
endfacet
facet normal 1.3977838854461171e-14 3.256216815609533e-16 1.0
  outer loop
    vertex 247.24095927786877 190.6142722982455 33.500000000000064
    vertex 247.24095927786877 188.11427229824554 33.500000000000064
    vertex 247.56448308424694 188.1568650153842 33.50000000000006
  endloop
endfacet
facet normal 1.3977838854461171e-14 3.256216815609533e-16 1.0
  outer loop
    vertex 247.24095927786877 190.6142722982455 33.500000000000064
    vertex 247.56448308424694 188.1568650153842 33.50000000000006
    vertex 247.56448308424694 190.57167958110685 33.50000000000006
  endloop
endfacet
facet normal 1.3977838854461171e-14 3.256216815609533e-16 1.0
  outer loop
    vertex 247.56448308424694 190.57167958110685 33.50000000000006
    vertex 247.56448308424694 188.1568650153842 33.50000000000006
    vertex 247.86595927786877 188.28174054351499 33.50000000000006
  endloop
endfacet
facet normal 1.3977838854461171e-14 3.256216815609533e-16 1.0
  outer loop
    vertex 247.56448308424694 190.57167958110685 33.50000000000006
    vertex 247.86595927786877 188.28174054351499 33.50000000000006
    vertex 247.86595927786877 190.44680405297606 33.50000000000005
  endloop
endfacet
facet normal 1.3977838854461171e-14 3.256216815609533e-16 1.0
  outer loop
    vertex 247.86595927786877 190.44680405297606 33.50000000000005
    vertex 247.86595927786877 188.28174054351499 33.50000000000006
    vertex 248.1248427543519 188.48038882176235 33.50000000000005
  endloop
endfacet
facet normal 1.3977838854461171e-14 3.256216815609533e-16 1.0
  outer loop
    vertex 247.86595927786877 190.44680405297606 33.50000000000005
    vertex 248.1248427543519 188.48038882176235 33.50000000000005
    vertex 248.1248427543519 190.2481557747287 33.50000000000005
  endloop
endfacet
facet normal 1.3977838854461171e-14 3.256216815609533e-16 1.0
  outer loop
    vertex 248.1248427543519 190.2481557747287 33.50000000000005
    vertex 248.1248427543519 188.48038882176235 33.50000000000005
    vertex 248.3234910325993 188.73927229824554 33.50000000000004
  endloop
endfacet
facet normal 1.3977838854461171e-14 3.256216815609533e-16 1.0
  outer loop
    vertex 248.1248427543519 190.2481557747287 33.50000000000005
    vertex 248.3234910325993 188.73927229824554 33.50000000000004
    vertex 248.3234910325993 189.9892722982455 33.50000000000004
  endloop
endfacet
facet normal 1.3977838854461171e-14 3.256216815609533e-16 1.0
  outer loop
    vertex 248.3234910325993 189.9892722982455 33.50000000000004
    vertex 248.3234910325993 188.73927229824554 33.50000000000004
    vertex 248.44836656073008 189.04074849186736 33.50000000000004
  endloop
endfacet
facet normal 1.3977838854461171e-14 3.256216815609533e-16 1.0
  outer loop
    vertex 248.3234910325993 189.9892722982455 33.50000000000004
    vertex 248.44836656073008 189.04074849186736 33.50000000000004
    vertex 248.44836656073008 189.68779610462366 33.50000000000004
  endloop
endfacet
facet normal 1.3977838854461171e-14 3.256216815609533e-16 1.0
  outer loop
    vertex 248.44836656073008 189.68779610462366 33.50000000000004
    vertex 248.44836656073008 189.04074849186736 33.50000000000004
    vertex 248.49095927786874 189.3642722982455 33.50000000000004
  endloop
endfacet
facet normal -0.793353340291212 -0.608761429008751 -7.046712233552499e-15
  outer loop
    vertex 246.15842752313824 188.73927229824554 33.50000000000008
    vertex 246.3570758013858 188.48038882176235 9.49999999999921
    vertex 246.3570758013856 188.48038882176235 33.50000000000007
  endloop
endfacet
facet normal -0.793353340291212 -0.608761429008751 -7.046712233552499e-15
  outer loop
    vertex 246.3570758013858 188.48038882176235 9.49999999999921
    vertex 246.15842752313824 188.73927229824554 33.50000000000008
    vertex 246.1584275231384 188.73927229824554 9.499999999999215
  endloop
endfacet
facet normal -0.9238795325112836 -0.3826834323650976 -8.206070200304849e-15
  outer loop
    vertex 246.03355199500746 189.04074849186736 33.50000000000008
    vertex 246.1584275231384 188.73927229824554 9.499999999999215
    vertex 246.15842752313824 188.73927229824554 33.50000000000008
  endloop
endfacet
facet normal -0.9238795325112836 -0.3826834323650976 -8.206070200304849e-15
  outer loop
    vertex 246.1584275231384 188.73927229824554 9.499999999999215
    vertex 246.03355199500746 189.04074849186736 33.50000000000008
    vertex 246.03355199500763 189.04074849186736 9.499999999999215
  endloop
endfacet
facet normal 0.6087614290087409 -0.7933533402912197 5.4071324733266725e-15
  outer loop
    vertex 248.1248427543519 188.48038882176235 33.50000000000005
    vertex 247.86595927786894 188.28174054351499 9.499999999999194
    vertex 248.1248427543521 188.48038882176235 9.499999999999188
  endloop
endfacet
facet normal 0.6087614290087409 -0.7933533402912197 5.4071324733266725e-15
  outer loop
    vertex 247.86595927786894 188.28174054351499 9.499999999999194
    vertex 248.1248427543519 188.48038882176235 33.50000000000005
    vertex 247.86595927786877 188.28174054351499 33.50000000000006
  endloop
endfacet
facet normal -0.38268343236512203 -0.9238795325112733 -3.3990655707522647e-15
  outer loop
    vertex 246.9174354714906 188.1568650153842 33.50000000000007
    vertex 246.61595927786894 188.28174054351499 9.499999999999204
    vertex 246.9174354714908 188.1568650153842 9.499999999999204
  endloop
endfacet
facet normal -0.38268343236512203 -0.9238795325112733 -3.3990655707522647e-15
  outer loop
    vertex 246.61595927786894 188.28174054351499 9.499999999999204
    vertex 246.9174354714906 188.1568650153842 33.50000000000007
    vertex 246.61595927786877 188.28174054351499 33.50000000000007
  endloop
endfacet
facet normal 0.38268343236512203 -0.9238795325112733 3.3990655707522694e-15
  outer loop
    vertex 247.86595927786877 188.28174054351499 33.50000000000006
    vertex 247.56448308424712 188.1568650153842 9.499999999999194
    vertex 247.86595927786894 188.28174054351499 9.499999999999194
  endloop
endfacet
facet normal 0.38268343236512203 -0.9238795325112733 3.3990655707522694e-15
  outer loop
    vertex 247.56448308424712 188.1568650153842 9.499999999999194
    vertex 247.86595927786877 188.28174054351499 33.50000000000006
    vertex 247.56448308424694 188.1568650153842 33.50000000000006
  endloop
endfacet
facet normal 0.9914448613738096 -0.13052619222005837 8.806198044078463e-15
  outer loop
    vertex 248.49095927786894 189.3642722982455 9.499999999999181
    vertex 248.44836656073008 189.04074849186736 33.50000000000004
    vertex 248.44836656073028 189.04074849186736 9.499999999999181
  endloop
endfacet
facet normal 0.9914448613738096 -0.13052619222005837 8.806198044078463e-15
  outer loop
    vertex 248.44836656073008 189.04074849186736 33.50000000000004
    vertex 248.49095927786894 189.3642722982455 9.499999999999181
    vertex 248.49095927786874 189.3642722982455 33.50000000000004
  endloop
endfacet
facet normal 0.793353340291212 -0.608761429008751 7.046712233552502e-15
  outer loop
    vertex 248.32349103259946 188.73927229824554 9.499999999999181
    vertex 248.1248427543519 188.48038882176235 33.50000000000005
    vertex 248.1248427543521 188.48038882176235 9.499999999999188
  endloop
endfacet
facet normal 0.793353340291212 -0.608761429008751 7.046712233552502e-15
  outer loop
    vertex 248.1248427543519 188.48038882176235 33.50000000000005
    vertex 248.32349103259946 188.73927229824554 9.499999999999181
    vertex 248.3234910325993 188.73927229824554 33.50000000000004
  endloop
endfacet
facet normal 0.9914448613738096 0.13052619222005837 8.806198044078463e-15
  outer loop
    vertex 248.44836656073028 189.68779610462366 9.499999999999181
    vertex 248.49095927786874 189.3642722982455 33.50000000000004
    vertex 248.49095927786894 189.3642722982455 9.499999999999181
  endloop
endfacet
facet normal 0.9914448613738096 0.13052619222005837 8.806198044078463e-15
  outer loop
    vertex 248.49095927786874 189.3642722982455 33.50000000000004
    vertex 248.44836656073028 189.68779610462366 9.499999999999181
    vertex 248.44836656073008 189.68779610462366 33.50000000000004
  endloop
endfacet
facet normal 0.1305261922200494 -0.9914448613738107 1.1593579667521539e-15
  outer loop
    vertex 247.56448308424694 188.1568650153842 33.50000000000006
    vertex 247.24095927786894 188.11427229824554 9.499999999999199
    vertex 247.56448308424712 188.1568650153842 9.499999999999194
  endloop
endfacet
facet normal 0.1305261922200494 -0.9914448613738107 1.1593579667521539e-15
  outer loop
    vertex 247.24095927786894 188.11427229824554 9.499999999999199
    vertex 247.56448308424694 188.1568650153842 33.50000000000006
    vertex 247.24095927786877 188.11427229824554 33.500000000000064
  endloop
endfacet
facet normal -0.1305261922200494 -0.9914448613738107 -1.1593579667521492e-15
  outer loop
    vertex 247.24095927786877 188.11427229824554 33.500000000000064
    vertex 246.9174354714908 188.1568650153842 9.499999999999204
    vertex 247.24095927786894 188.11427229824554 9.499999999999199
  endloop
endfacet
facet normal -0.1305261922200494 -0.9914448613738107 -1.1593579667521492e-15
  outer loop
    vertex 246.9174354714908 188.1568650153842 9.499999999999204
    vertex 247.24095927786877 188.11427229824554 33.500000000000064
    vertex 246.9174354714906 188.1568650153842 33.50000000000007
  endloop
endfacet
facet normal 0.9238795325112836 -0.3826834323650976 8.20607020030485e-15
  outer loop
    vertex 248.44836656073028 189.04074849186736 9.499999999999181
    vertex 248.3234910325993 188.73927229824554 33.50000000000004
    vertex 248.32349103259946 188.73927229824554 9.499999999999181
  endloop
endfacet
facet normal 0.9238795325112836 -0.3826834323650976 8.20607020030485e-15
  outer loop
    vertex 248.3234910325993 188.73927229824554 33.50000000000004
    vertex 248.44836656073028 189.04074849186736 9.499999999999181
    vertex 248.44836656073008 189.04074849186736 33.50000000000004
  endloop
endfacet
facet normal -0.6087614290087409 -0.7933533402912197 -5.4071324733266686e-15
  outer loop
    vertex 246.61595927786877 188.28174054351499 33.50000000000007
    vertex 246.3570758013858 188.48038882176235 9.49999999999921
    vertex 246.61595927786894 188.28174054351499 9.499999999999204
  endloop
endfacet
facet normal -0.6087614290087409 -0.7933533402912197 -5.4071324733266686e-15
  outer loop
    vertex 246.3570758013858 188.48038882176235 9.49999999999921
    vertex 246.61595927786877 188.28174054351499 33.50000000000007
    vertex 246.3570758013856 188.48038882176235 33.50000000000007
  endloop
endfacet
endsolid draft
