solid draft
facet normal 0.7933533402912726 -0.6087614290086718 7.158838124020283e-14
  outer loop
    vertex 155.06446360721665 20.152650652578135 -4.511946372076636e-14
    vertex 154.7466263620209 19.738437090205036 0.2499999999999657
    vertex 154.74662636202095 19.738437090205036 -1.0151879337172431e-13
  endloop
endfacet
facet normal 0.7933533402912726 -0.6087614290086718 7.158838124020283e-14
  outer loop
    vertex 154.7466263620209 19.738437090205036 0.2499999999999657
    vertex 155.06446360721665 20.152650652578135 -4.511946372076636e-14
    vertex 155.06446360721668 20.152650652578135 0.24999999999994313
  endloop
endfacet
facet normal -0.9914448613738132 0.13052619222003087 -2.2115281181414215e-18
  outer loop
    vertex 151.40056114706968 21.670288742783182 0.24999999999998826
    vertex 151.33241279964784 21.15265065257814 -1.3535839116229907e-13
    vertex 151.33241279964778 21.15265065257814 0.24999999999995443
  endloop
endfacet
facet normal -0.9914448613738132 0.13052619222003087 -2.2115281181414215e-18
  outer loop
    vertex 151.33241279964784 21.15265065257814 -1.3535839116229907e-13
    vertex 151.40056114706968 21.670288742783182 0.24999999999998826
    vertex 151.40056114706962 21.670288742783182 4.511946372076636e-14
  endloop
endfacet
facet normal -0.60876142900872 -0.7933533402912357 -1.0987497955527029e-13
  outer loop
    vertex 152.3324127996478 19.420599845009267 0.2499999999999206
    vertex 151.91819923727476 19.738437090205036 -1.3535839116229907e-13
    vertex 152.33241279964784 19.420599845009267 -1.3535839116229907e-13
  endloop
endfacet
facet normal -0.60876142900872 -0.7933533402912357 -1.0987497955527029e-13
  outer loop
    vertex 151.91819923727476 19.738437090205036 -1.3535839116229907e-13
    vertex 152.3324127996478 19.420599845009267 0.2499999999999206
    vertex 151.91819923727473 19.738437090205036 0.2499999999999093
  endloop
endfacet
facet normal 0.1305261922200295 -0.9914448613738134 1.766590148189745e-18
  outer loop
    vertex 153.85005088985287 19.22079899999999 0.2499999999999657
    vertex 153.3324127996478 19.15265065257814 -2.255973186038318e-14
    vertex 153.85005088985287 19.22079899999999 -1.127986593019159e-13
  endloop
endfacet
facet normal 0.1305261922200295 -0.9914448613738134 1.766590148189745e-18
  outer loop
    vertex 153.3324127996478 19.15265065257814 -2.255973186038318e-14
    vertex 153.85005088985287 19.22079899999999 0.2499999999999657
    vertex 153.3324127996478 19.15265065257814 0.2499999999999206
  endloop
endfacet
facet normal -0.3826834323651164 -0.9238795325112757 5.683605325930119e-17
  outer loop
    vertex 152.8147747094427 19.220799000000014 0.0
    vertex 152.3324127996478 19.420599845009267 0.2499999999999206
    vertex 152.33241279964784 19.420599845009267 -1.3535839116229907e-13
  endloop
endfacet
facet normal -0.3826834323651164 -0.9238795325112757 5.683605325930119e-17
  outer loop
    vertex 152.3324127996478 19.420599845009267 0.2499999999999206
    vertex 152.8147747094427 19.220799000000014 0.0
    vertex 152.81477470944276 19.220799000000014 0.249999999999977
  endloop
endfacet
facet normal -0.60876142900872 0.7933533402912357 -1.0987497955527029e-13
  outer loop
    vertex 151.91819923727473 22.566864214951245 0.2499999999999093
    vertex 152.33241279964784 22.884701460147014 -1.3535839116229907e-13
    vertex 151.91819923727476 22.566864214951245 -1.3535839116229907e-13
  endloop
endfacet
facet normal -0.60876142900872 0.7933533402912357 -1.0987497955527029e-13
  outer loop
    vertex 152.33241279964784 22.884701460147014 -1.3535839116229907e-13
    vertex 151.91819923727473 22.566864214951245 0.2499999999999093
    vertex 152.3324127996478 22.884701460147014 0.2499999999999206
  endloop
endfacet
facet normal -0.9914448613738136 -0.1305261922200281 -2.2115281156571857e-18
  outer loop
    vertex 151.33241279964778 21.15265065257814 0.24999999999995443
    vertex 151.40056114706962 20.63501256237309 4.511946372076636e-14
    vertex 151.40056114706968 20.63501256237309 0.24999999999998826
  endloop
endfacet
facet normal -0.9914448613738136 -0.1305261922200281 -2.2115281156571857e-18
  outer loop
    vertex 151.40056114706962 20.63501256237309 4.511946372076636e-14
    vertex 151.33241279964778 21.15265065257814 0.24999999999995443
    vertex 151.33241279964784 21.15265065257814 -1.3535839116229907e-13
  endloop
endfacet
facet normal 0.6087614290087199 -0.7933533402912357 1.0978702315539952e-13
  outer loop
    vertex 154.74662636202095 19.738437090205036 -1.0151879337172431e-13
    vertex 154.3324127996478 19.420599845009267 0.24999999999989803
    vertex 154.33241279964784 19.420599845009267 -1.127986593019159e-13
  endloop
endfacet
facet normal 0.6087614290087199 -0.7933533402912357 1.0978702315539952e-13
  outer loop
    vertex 154.3324127996478 19.420599845009267 0.24999999999989803
    vertex 154.74662636202095 19.738437090205036 -1.0151879337172431e-13
    vertex 154.7466263620209 19.738437090205036 0.2499999999999657
  endloop
endfacet
facet normal -0.13052619222001835 0.9914448613738149 1.1779528874540039e-14
  outer loop
    vertex 152.8147747094427 23.084502305156285 0.0
    vertex 153.3324127996478 23.152650652578135 0.2499999999999206
    vertex 153.3324127996478 23.152650652578135 -2.255973186038318e-14
  endloop
endfacet
facet normal -0.13052619222001835 0.9914448613738149 1.1779528874540039e-14
  outer loop
    vertex 153.3324127996478 23.152650652578135 0.2499999999999206
    vertex 152.8147747094427 23.084502305156285 0.0
    vertex 152.81477470944276 23.084502305156285 0.249999999999977
  endloop
endfacet
facet normal 6.88933574288593e-15 2.759450047256001e-17 1.0
  outer loop
    vertex 151.40056114706968 20.63501256237309 21.374999999999968
    vertex 151.40056114706968 21.670288742783182 21.374999999999968
    vertex 151.3324127996478 21.15265065257814 21.374999999999968
  endloop
endfacet
facet normal 6.88933574288593e-15 2.759450047256001e-17 1.0
  outer loop
    vertex 151.40056114706968 21.670288742783182 21.374999999999968
    vertex 151.40056114706968 20.63501256237309 21.374999999999968
    vertex 151.600361992079 20.152650652578135 21.3749999999999
  endloop
endfacet
facet normal 6.88933574288593e-15 2.759450047256001e-17 1.0
  outer loop
    vertex 151.40056114706968 21.670288742783182 21.374999999999968
    vertex 151.600361992079 20.152650652578135 21.3749999999999
    vertex 151.600361992079 22.15265065257813 21.3749999999999
  endloop
endfacet
facet normal 6.88933574288593e-15 2.759450047256001e-17 1.0
  outer loop
    vertex 151.600361992079 22.15265065257813 21.3749999999999
    vertex 151.600361992079 20.152650652578135 21.3749999999999
    vertex 151.91819923727465 19.738437090205036 21.37500000000006
  endloop
endfacet
facet normal 6.88933574288593e-15 2.759450047256001e-17 1.0
  outer loop
    vertex 151.600361992079 22.15265065257813 21.3749999999999
    vertex 151.91819923727465 19.738437090205036 21.37500000000006
    vertex 151.91819923727465 22.566864214951245 21.37500000000006
  endloop
endfacet
facet normal 6.88933574288593e-15 2.759450047256001e-17 1.0
  outer loop
    vertex 151.91819923727465 22.566864214951245 21.37500000000006
    vertex 151.91819923727465 19.738437090205036 21.37500000000006
    vertex 152.3324127996478 19.420599845009267 21.374999999999993
  endloop
endfacet
facet normal 6.88933574288593e-15 2.759450047256001e-17 1.0
  outer loop
    vertex 151.91819923727465 22.566864214951245 21.37500000000006
    vertex 152.3324127996478 19.420599845009267 21.374999999999993
    vertex 152.3324127996478 22.884701460147014 21.374999999999993
  endloop
endfacet
facet normal 6.88933574288593e-15 2.759450047256001e-17 1.0
  outer loop
    vertex 152.3324127996478 22.884701460147014 21.374999999999993
    vertex 152.3324127996478 19.420599845009267 21.374999999999993
    vertex 152.81477470944282 19.220799000000014 21.374999999999947
  endloop
endfacet
facet normal 6.88933574288593e-15 2.759450047256001e-17 1.0
  outer loop
    vertex 152.3324127996478 22.884701460147014 21.374999999999993
    vertex 152.81477470944282 19.220799000000014 21.374999999999947
    vertex 152.52375451583038 22.422761693891385 21.374999999999947
  endloop
endfacet
facet normal 6.88933574288593e-15 2.759450047256001e-17 1.0
  outer loop
    vertex 152.52375451583038 22.422761693891385 21.374999999999947
    vertex 152.81477470944282 19.220799000000014 21.374999999999947
    vertex 153.00611642562535 22.622562538900663 21.374999999999982
  endloop
endfacet
facet normal 6.88933574288593e-15 2.759450047256001e-17 1.0
  outer loop
    vertex 153.00611642562535 22.622562538900663 21.374999999999982
    vertex 152.81477470944282 19.220799000000014 21.374999999999947
    vertex 153.3324127996478 19.15265065257814 21.374999999999993
  endloop
endfacet
facet normal 6.88933574288593e-15 2.759450047256001e-17 1.0
  outer loop
    vertex 153.00611642562535 22.622562538900663 21.374999999999982
    vertex 153.3324127996478 23.152650652578135 21.374999999999993
    vertex 152.81477470944282 23.084502305156285 21.374999999999947
  endloop
endfacet
facet normal 6.88933574288593e-15 2.759450047256001e-17 1.0
  outer loop
    vertex 153.3324127996478 23.152650652578135 21.374999999999993
    vertex 153.00611642562535 22.622562538900663 21.374999999999982
    vertex 153.3324127996478 19.15265065257814 21.374999999999993
  endloop
endfacet
facet normal 6.88933574288593e-15 2.759450047256001e-17 1.0
  outer loop
    vertex 153.3324127996478 23.152650652578135 21.374999999999993
    vertex 153.3324127996478 19.15265065257814 21.374999999999993
    vertex 153.85005088985292 19.22079899999999 21.37499999999988
  endloop
endfacet
facet normal 6.88933574288593e-15 2.759450047256001e-17 1.0
  outer loop
    vertex 153.3324127996478 23.152650652578135 21.374999999999993
    vertex 153.85005088985292 19.22079899999999 21.37499999999988
    vertex 153.85005088985292 23.084502305156263 21.37499999999988
  endloop
endfacet
facet normal 6.88933574288593e-15 2.759450047256001e-17 1.0
  outer loop
    vertex 153.85005088985292 23.084502305156263 21.37499999999988
    vertex 153.85005088985292 19.22079899999999 21.37499999999988
    vertex 154.3324127996478 19.420599845009267 21.375000000000014
  endloop
endfacet
facet normal 6.88933574288593e-15 2.759450047256001e-17 1.0
  outer loop
    vertex 153.85005088985292 23.084502305156263 21.37499999999988
    vertex 154.3324127996478 19.420599845009267 21.375000000000014
    vertex 154.3324127996478 22.884701460147014 21.375000000000014
  endloop
endfacet
facet normal 6.88933574288593e-15 2.759450047256001e-17 1.0
  outer loop
    vertex 154.3324127996478 22.884701460147014 21.375000000000014
    vertex 154.3324127996478 19.420599845009267 21.375000000000014
    vertex 154.74662636202095 19.738437090205036 21.374999999999925
  endloop
endfacet
facet normal 6.88933574288593e-15 2.759450047256001e-17 1.0
  outer loop
    vertex 154.3324127996478 22.884701460147014 21.375000000000014
    vertex 154.74662636202095 19.738437090205036 21.374999999999925
    vertex 154.74662636202095 22.566864214951245 21.374999999999925
  endloop
endfacet
facet normal 6.88933574288593e-15 2.759450047256001e-17 1.0
  outer loop
    vertex 154.74662636202095 22.566864214951245 21.374999999999925
    vertex 154.74662636202095 19.738437090205036 21.374999999999925
    vertex 155.0644636072167 20.152650652578135 21.374999999999947
  endloop
endfacet
facet normal 6.88933574288593e-15 2.759450047256001e-17 1.0
  outer loop
    vertex 154.74662636202095 22.566864214951245 21.374999999999925
    vertex 155.0644636072167 20.152650652578135 21.374999999999947
    vertex 155.0644636072167 22.15265065257813 21.374999999999947
  endloop
endfacet
facet normal 6.88933574288593e-15 2.759450047256001e-17 1.0
  outer loop
    vertex 155.0644636072167 22.15265065257813 21.374999999999947
    vertex 155.0644636072167 20.152650652578135 21.374999999999947
    vertex 155.26426445222597 20.63501256237309 21.374999999999968
  endloop
endfacet
facet normal 6.88933574288593e-15 2.759450047256001e-17 1.0
  outer loop
    vertex 155.0644636072167 22.15265065257813 21.374999999999947
    vertex 155.26426445222597 20.63501256237309 21.374999999999968
    vertex 155.26426445222597 21.670288742783182 21.374999999999968
  endloop
endfacet
facet normal 6.88933574288593e-15 2.759450047256001e-17 1.0
  outer loop
    vertex 155.26426445222597 21.670288742783182 21.374999999999968
    vertex 155.26426445222597 20.63501256237309 21.374999999999968
    vertex 155.3324127996479 21.15265065257814 21.374999999999925
  endloop
endfacet
facet normal 0.38268343236511515 -0.9238795325112763 1.727662587056574e-14
  outer loop
    vertex 154.3324127996478 19.420599845009267 0.24999999999989803
    vertex 153.85005088985287 19.22079899999999 -1.127986593019159e-13
    vertex 154.33241279964784 19.420599845009267 -1.127986593019159e-13
  endloop
endfacet
facet normal 0.38268343236511515 -0.9238795325112763 1.727662587056574e-14
  outer loop
    vertex 153.85005088985287 19.22079899999999 -1.127986593019159e-13
    vertex 154.3324127996478 19.420599845009267 0.24999999999989803
    vertex 153.85005088985287 19.22079899999999 0.2499999999999657
  endloop
endfacet
facet normal -0.7933533402912204 -0.60876142900874 3.585399181977684e-14
  outer loop
    vertex 151.60036199207897 20.152650652578135 0.24999999999994313
    vertex 151.91819923727476 19.738437090205036 -1.3535839116229907e-13
    vertex 151.91819923727473 19.738437090205036 0.2499999999999093
  endloop
endfacet
facet normal -0.7933533402912204 -0.60876142900874 3.585399181977684e-14
  outer loop
    vertex 151.91819923727476 19.738437090205036 -1.3535839116229907e-13
    vertex 151.60036199207897 20.152650652578135 0.24999999999994313
    vertex 151.60036199207892 20.152650652578135 -7.895906151134113e-14
  endloop
endfacet
facet normal -0.9238795325112655 -0.38268343236514124 2.0842943311556458e-13
  outer loop
    vertex 151.40056114706968 20.63501256237309 0.24999999999998826
    vertex 151.60036199207892 20.152650652578135 -7.895906151134113e-14
    vertex 151.60036199207897 20.152650652578135 0.24999999999994313
  endloop
endfacet
facet normal -0.9238795325112655 -0.38268343236514124 2.0842943311556458e-13
  outer loop
    vertex 151.60036199207892 20.152650652578135 -7.895906151134113e-14
    vertex 151.40056114706968 20.63501256237309 0.24999999999998826
    vertex 151.40056114706962 20.63501256237309 4.511946372076636e-14
  endloop
endfacet
facet normal 0.130526192220072 0.9914448613738077 1.9104082458652312e-17
  outer loop
    vertex 153.3324127996478 23.152650652578135 -2.255973186038318e-14
    vertex 153.85005088985287 23.084502305156263 0.2499999999999657
    vertex 153.85005088985287 23.084502305156263 -1.127986593019159e-13
  endloop
endfacet
facet normal 0.130526192220072 0.9914448613738077 1.9104082458652312e-17
  outer loop
    vertex 153.85005088985287 23.084502305156263 0.2499999999999657
    vertex 153.3324127996478 23.152650652578135 -2.255973186038318e-14
    vertex 153.3324127996478 23.152650652578135 0.2499999999999206
  endloop
endfacet
facet normal -0.7933533402912284 0.6087614290087294 3.581140993952607e-14
  outer loop
    vertex 151.91819923727473 22.566864214951245 0.2499999999999093
    vertex 151.60036199207892 22.15265065257813 -7.895906151134113e-14
    vertex 151.60036199207897 22.15265065257813 0.24999999999994313
  endloop
endfacet
facet normal -0.7933533402912284 0.6087614290087294 3.581140993952607e-14
  outer loop
    vertex 151.60036199207892 22.15265065257813 -7.895906151134113e-14
    vertex 151.91819923727473 22.566864214951245 0.2499999999999093
    vertex 151.91819923727476 22.566864214951245 -1.3535839116229907e-13
  endloop
endfacet
facet normal -0.9238795325112655 0.38268343236514124 2.0842943311556458e-13
  outer loop
    vertex 151.60036199207897 22.15265065257813 0.24999999999994313
    vertex 151.40056114706962 21.670288742783182 4.511946372076636e-14
    vertex 151.40056114706968 21.670288742783182 0.24999999999998826
  endloop
endfacet
facet normal -0.9238795325112655 0.38268343236514124 2.0842943311556458e-13
  outer loop
    vertex 151.40056114706962 21.670288742783182 4.511946372076636e-14
    vertex 151.60036199207897 22.15265065257813 0.24999999999994313
    vertex 151.60036199207892 22.15265065257813 -7.895906151134113e-14
  endloop
endfacet
facet normal 0.7933533402912413 -0.6087614290087127 -2.1179542477600457e-15
  outer loop
    vertex 155.06446360721668 20.152650652578135 0.24999999999994313
    vertex 154.74662636202095 19.738437090205036 21.374999999999925
    vertex 154.7466263620209 19.738437090205036 0.2499999999999657
  endloop
endfacet
facet normal 0.7933533402912413 -0.6087614290087127 -2.1179542477600457e-15
  outer loop
    vertex 154.74662636202095 19.738437090205036 21.374999999999925
    vertex 155.06446360721668 20.152650652578135 0.24999999999994313
    vertex 155.0644636072167 20.152650652578135 21.374999999999947
  endloop
endfacet
facet normal -8.828145207072422e-15 8.511259423424126e-30 -1.0
  outer loop
    vertex 151.40056114706962 21.670288742783182 4.511946372076636e-14
    vertex 151.40056114706962 20.63501256237309 4.511946372076636e-14
    vertex 151.33241279964784 21.15265065257814 -1.3535839116229907e-13
  endloop
endfacet
facet normal -8.828145207072422e-15 8.511259423424126e-30 -1.0
  outer loop
    vertex 151.40056114706962 20.63501256237309 4.511946372076636e-14
    vertex 151.40056114706962 21.670288742783182 4.511946372076636e-14
    vertex 151.60036199207892 22.15265065257813 -7.895906151134113e-14
  endloop
endfacet
facet normal -8.828145207072422e-15 8.511259423424126e-30 -1.0
  outer loop
    vertex 151.40056114706962 20.63501256237309 4.511946372076636e-14
    vertex 151.60036199207892 22.15265065257813 -7.895906151134113e-14
    vertex 151.60036199207892 20.152650652578135 -7.895906151134113e-14
  endloop
endfacet
facet normal -8.828145207072422e-15 8.511259423424126e-30 -1.0
  outer loop
    vertex 151.60036199207892 20.152650652578135 -7.895906151134113e-14
    vertex 151.60036199207892 22.15265065257813 -7.895906151134113e-14
    vertex 151.91819923727476 22.566864214951245 -1.3535839116229907e-13
  endloop
endfacet
facet normal -8.828145207072422e-15 8.511259423424126e-30 -1.0
  outer loop
    vertex 151.60036199207892 20.152650652578135 -7.895906151134113e-14
    vertex 151.91819923727476 22.566864214951245 -1.3535839116229907e-13
    vertex 151.91819923727476 19.738437090205036 -1.3535839116229907e-13
  endloop
endfacet
facet normal -8.828145207072422e-15 8.511259423424126e-30 -1.0
  outer loop
    vertex 151.91819923727476 19.738437090205036 -1.3535839116229907e-13
    vertex 151.91819923727476 22.566864214951245 -1.3535839116229907e-13
    vertex 152.33241279964784 22.884701460147014 -1.3535839116229907e-13
  endloop
endfacet
facet normal -8.828145207072422e-15 8.511259423424126e-30 -1.0
  outer loop
    vertex 151.91819923727476 19.738437090205036 -1.3535839116229907e-13
    vertex 152.33241279964784 22.884701460147014 -1.3535839116229907e-13
    vertex 152.33241279964784 19.420599845009267 -1.3535839116229907e-13
  endloop
endfacet
facet normal -8.828145207072422e-15 8.511259423424126e-30 -1.0
  outer loop
    vertex 152.33241279964784 19.420599845009267 -1.3535839116229907e-13
    vertex 152.33241279964784 22.884701460147014 -1.3535839116229907e-13
    vertex 152.8147747094427 23.084502305156285 0.0
  endloop
endfacet
facet normal -8.828145207072422e-15 8.511259423424126e-30 -1.0
  outer loop
    vertex 152.33241279964784 19.420599845009267 -1.3535839116229907e-13
    vertex 152.8147747094427 23.084502305156285 0.0
    vertex 152.8147747094427 19.220799000000014 0.0
  endloop
endfacet
facet normal -8.828145207072422e-15 8.511259423424126e-30 -1.0
  outer loop
    vertex 152.8147747094427 19.220799000000014 0.0
    vertex 152.8147747094427 23.084502305156285 0.0
    vertex 153.3324127996478 23.152650652578135 -2.255973186038318e-14
  endloop
endfacet
facet normal -8.828145207072422e-15 8.511259423424126e-30 -1.0
  outer loop
    vertex 152.8147747094427 19.220799000000014 0.0
    vertex 153.3324127996478 23.152650652578135 -2.255973186038318e-14
    vertex 153.3324127996478 19.15265065257814 -2.255973186038318e-14
  endloop
endfacet
facet normal -8.828145207072422e-15 8.511259423424126e-30 -1.0
  outer loop
    vertex 153.3324127996478 19.15265065257814 -2.255973186038318e-14
    vertex 153.3324127996478 23.152650652578135 -2.255973186038318e-14
    vertex 153.85005088985287 23.084502305156263 -1.127986593019159e-13
  endloop
endfacet
facet normal -8.828145207072422e-15 8.511259423424126e-30 -1.0
  outer loop
    vertex 153.3324127996478 19.15265065257814 -2.255973186038318e-14
    vertex 153.85005088985287 23.084502305156263 -1.127986593019159e-13
    vertex 153.85005088985287 19.22079899999999 -1.127986593019159e-13
  endloop
endfacet
facet normal -8.828145207072422e-15 8.511259423424126e-30 -1.0
  outer loop
    vertex 153.85005088985287 19.22079899999999 -1.127986593019159e-13
    vertex 153.85005088985287 23.084502305156263 -1.127986593019159e-13
    vertex 154.33241279964784 22.884701460147014 -1.127986593019159e-13
  endloop
endfacet
facet normal -8.828145207072422e-15 8.511259423424126e-30 -1.0
  outer loop
    vertex 153.85005088985287 19.22079899999999 -1.127986593019159e-13
    vertex 154.33241279964784 22.884701460147014 -1.127986593019159e-13
    vertex 154.33241279964784 19.420599845009267 -1.127986593019159e-13
  endloop
endfacet
facet normal -8.828145207072422e-15 8.511259423424126e-30 -1.0
  outer loop
    vertex 154.33241279964784 19.420599845009267 -1.127986593019159e-13
    vertex 154.33241279964784 22.884701460147014 -1.127986593019159e-13
    vertex 154.74662636202095 22.566864214951245 -1.0151879337172431e-13
  endloop
endfacet
facet normal -8.828145207072422e-15 8.511259423424126e-30 -1.0
  outer loop
    vertex 154.33241279964784 19.420599845009267 -1.127986593019159e-13
    vertex 154.74662636202095 22.566864214951245 -1.0151879337172431e-13
    vertex 154.74662636202095 19.738437090205036 -1.0151879337172431e-13
  endloop
endfacet
facet normal -8.828145207072422e-15 8.511259423424126e-30 -1.0
  outer loop
    vertex 154.74662636202095 19.738437090205036 -1.0151879337172431e-13
    vertex 154.74662636202095 22.566864214951245 -1.0151879337172431e-13
    vertex 155.06446360721665 22.15265065257813 -4.511946372076636e-14
  endloop
endfacet
facet normal -8.828145207072422e-15 8.511259423424126e-30 -1.0
  outer loop
    vertex 154.74662636202095 19.738437090205036 -1.0151879337172431e-13
    vertex 155.06446360721665 22.15265065257813 -4.511946372076636e-14
    vertex 155.06446360721665 20.152650652578135 -4.511946372076636e-14
  endloop
endfacet
facet normal -8.828145207072422e-15 8.511259423424126e-30 -1.0
  outer loop
    vertex 155.06446360721665 20.152650652578135 -4.511946372076636e-14
    vertex 155.06446360721665 22.15265065257813 -4.511946372076636e-14
    vertex 155.26426445222592 21.670288742783182 -1.127986593019159e-13
  endloop
endfacet
facet normal -8.828145207072422e-15 8.511259423424126e-30 -1.0
  outer loop
    vertex 155.06446360721665 20.152650652578135 -4.511946372076636e-14
    vertex 155.26426445222592 21.670288742783182 -1.127986593019159e-13
    vertex 155.26426445222592 20.63501256237309 -1.127986593019159e-13
  endloop
endfacet
facet normal -8.828145207072422e-15 8.511259423424126e-30 -1.0
  outer loop
    vertex 155.26426445222592 20.63501256237309 -1.127986593019159e-13
    vertex 155.26426445222592 21.670288742783182 -1.127986593019159e-13
    vertex 155.33241279964778 21.15265065257814 -1.127986593019159e-13
  endloop
endfacet
facet normal 0.9238795325112809 0.38268343236510444 -4.171326637363272e-14
  outer loop
    vertex 155.06446360721665 22.15265065257813 -4.511946372076636e-14
    vertex 155.26426445222592 21.670288742783182 0.2499999999999657
    vertex 155.26426445222592 21.670288742783182 -1.127986593019159e-13
  endloop
endfacet
facet normal 0.9238795325112809 0.38268343236510444 -4.171326637363272e-14
  outer loop
    vertex 155.26426445222592 21.670288742783182 0.2499999999999657
    vertex 155.06446360721665 22.15265065257813 -4.511946372076636e-14
    vertex 155.06446360721668 22.15265065257813 0.24999999999994313
  endloop
endfacet
facet normal -0.7933533402913143 -0.6087614290086175 -8.473777182537881e-16
  outer loop
    vertex 151.600361992079 20.152650652578135 21.3749999999999
    vertex 151.91819923727473 19.738437090205036 0.2499999999999093
    vertex 151.91819923727465 19.738437090205036 21.37500000000006
  endloop
endfacet
facet normal -0.7933533402913143 -0.6087614290086175 -8.473777182537881e-16
  outer loop
    vertex 151.91819923727473 19.738437090205036 0.2499999999999093
    vertex 151.600361992079 20.152650652578135 21.3749999999999
    vertex 151.60036199207897 20.152650652578135 0.24999999999994313
  endloop
endfacet
facet normal -0.13052619222006084 -0.9914448613738094 1.178865897118379e-14
  outer loop
    vertex 153.3324127996478 19.15265065257814 0.2499999999999206
    vertex 152.8147747094427 19.220799000000014 0.0
    vertex 153.3324127996478 19.15265065257814 -2.255973186038318e-14
  endloop
endfacet
facet normal -0.13052619222006084 -0.9914448613738094 1.178865897118379e-14
  outer loop
    vertex 152.8147747094427 19.220799000000014 0.0
    vertex 153.3324127996478 19.15265065257814 0.2499999999999206
    vertex 152.81477470944276 19.220799000000014 0.249999999999977
  endloop
endfacet
facet normal -0.3826834323651442 0.9238795325112644 2.4524111576237182e-17
  outer loop
    vertex 152.3324127996478 22.884701460147014 0.2499999999999206
    vertex 152.8147747094427 23.084502305156285 0.0
    vertex 152.33241279964784 22.884701460147014 -1.3535839116229907e-13
  endloop
endfacet
facet normal -0.3826834323651442 0.9238795325112644 2.4524111576237182e-17
  outer loop
    vertex 152.8147747094427 23.084502305156285 0.0
    vertex 152.3324127996478 22.884701460147014 0.2499999999999206
    vertex 152.81477470944276 23.084502305156285 0.249999999999977
  endloop
endfacet
facet normal -0.9914448613738053 -0.13052619222009185 5.293176955596912e-16
  outer loop
    vertex 151.3324127996478 21.15265065257814 21.374999999999968
    vertex 151.40056114706968 20.63501256237309 0.24999999999998826
    vertex 151.40056114706968 20.63501256237309 21.374999999999968
  endloop
endfacet
facet normal -0.9914448613738053 -0.13052619222009185 5.293176955596912e-16
  outer loop
    vertex 151.40056114706968 20.63501256237309 0.24999999999998826
    vertex 151.3324127996478 21.15265065257814 21.374999999999968
    vertex 151.33241279964778 21.15265065257814 0.24999999999995443
  endloop
endfacet
facet normal -0.6087614290086887 0.7933533402912597 -9.752876827381482e-16
  outer loop
    vertex 151.91819923727465 22.566864214951245 21.37500000000006
    vertex 152.3324127996478 22.884701460147014 0.2499999999999206
    vertex 151.91819923727473 22.566864214951245 0.2499999999999093
  endloop
endfacet
facet normal -0.6087614290086887 0.7933533402912597 -9.752876827381482e-16
  outer loop
    vertex 152.3324127996478 22.884701460147014 0.2499999999999206
    vertex 151.91819923727465 22.566864214951245 21.37500000000006
    vertex 152.3324127996478 22.884701460147014 21.374999999999993
  endloop
endfacet
facet normal 0.9914448613738077 0.1305261922200734 -4.235266302959614e-15
  outer loop
    vertex 155.26426445222592 21.670288742783182 0.2499999999999657
    vertex 155.3324127996479 21.15265065257814 21.374999999999925
    vertex 155.33241279964776 21.15265065257814 0.249999999999977
  endloop
endfacet
facet normal 0.9914448613738077 0.1305261922200734 -4.235266302959614e-15
  outer loop
    vertex 155.3324127996479 21.15265065257814 21.374999999999925
    vertex 155.26426445222592 21.670288742783182 0.2499999999999657
    vertex 155.26426445222597 21.670288742783182 21.374999999999968
  endloop
endfacet
facet normal 0.9914448613738136 -0.1305261922200281 8.946623630084757e-14
  outer loop
    vertex 155.33241279964778 21.15265065257814 -1.127986593019159e-13
    vertex 155.26426445222592 20.63501256237309 0.2499999999999657
    vertex 155.26426445222592 20.63501256237309 -1.127986593019159e-13
  endloop
endfacet
facet normal 0.9914448613738136 -0.1305261922200281 8.946623630084757e-14
  outer loop
    vertex 155.26426445222592 20.63501256237309 0.2499999999999657
    vertex 155.33241279964778 21.15265065257814 -1.127986593019159e-13
    vertex 155.33241279964776 21.15265065257814 0.249999999999977
  endloop
endfacet
facet normal 0.130526192220072 0.9914448613738077 -2.548364417048069e-16
  outer loop
    vertex 153.33241279964784 23.152650652578135 11.812499999999954
    vertex 153.85005088985287 23.084502305156263 0.2499999999999657
    vertex 153.3324127996478 23.152650652578135 0.2499999999999206
  endloop
endfacet
facet normal 0.130526192220072 0.9914448613738077 -2.548364417048069e-16
  outer loop
    vertex 153.85005088985287 23.084502305156263 0.2499999999999657
    vertex 153.33241279964784 23.152650652578135 11.812499999999954
    vertex 153.8500508898529 23.084502305156263 11.812499999999885
  endloop
endfacet
facet normal -0.9914448613738048 0.13052619222009462 5.293176955596908e-16
  outer loop
    vertex 151.40056114706968 21.670288742783182 21.374999999999968
    vertex 151.33241279964778 21.15265065257814 0.24999999999995443
    vertex 151.3324127996478 21.15265065257814 21.374999999999968
  endloop
endfacet
facet normal -0.9914448613738048 0.13052619222009462 5.293176955596908e-16
  outer loop
    vertex 151.33241279964778 21.15265065257814 0.24999999999995443
    vertex 151.40056114706968 21.670288742783182 21.374999999999968
    vertex 151.40056114706968 21.670288742783182 0.24999999999998826
  endloop
endfacet
facet normal 0.38268343236506913 0.9238795325112955 1.7244313928842487e-14
  outer loop
    vertex 153.85005088985287 23.084502305156263 0.2499999999999657
    vertex 154.33241279964784 22.884701460147014 -1.127986593019159e-13
    vertex 153.85005088985287 23.084502305156263 -1.127986593019159e-13
  endloop
endfacet
facet normal 0.38268343236506913 0.9238795325112955 1.7244313928842487e-14
  outer loop
    vertex 154.33241279964784 22.884701460147014 -1.127986593019159e-13
    vertex 153.85005088985287 23.084502305156263 0.2499999999999657
    vertex 154.3324127996478 22.884701460147014 0.24999999999989803
  endloop
endfacet
facet normal 0.7933533402912493 0.6087614290087022 -2.117954247760067e-15
  outer loop
    vertex 154.7466263620209 22.566864214951245 0.2499999999999657
    vertex 155.0644636072167 22.15265065257813 21.374999999999947
    vertex 155.06446360721668 22.15265065257813 0.24999999999994313
  endloop
endfacet
facet normal 0.7933533402912493 0.6087614290087022 -2.117954247760067e-15
  outer loop
    vertex 155.0644636072167 22.15265065257813 21.374999999999947
    vertex 154.7466263620209 22.566864214951245 0.2499999999999657
    vertex 154.74662636202095 22.566864214951245 21.374999999999925
  endloop
endfacet
facet normal 0.923879532511256 0.3826834323651641 9.868953552402979e-16
  outer loop
    vertex 152.3324127996478 22.884701460147014 0.2499999999999206
    vertex 152.52375451583038 22.422761693891385 21.374999999999947
    vertex 152.5237545158304 22.422761693891385 0.24999999999995443
  endloop
endfacet
facet normal 0.923879532511256 0.3826834323651641 9.868953552402979e-16
  outer loop
    vertex 152.52375451583038 22.422761693891385 21.374999999999947
    vertex 152.3324127996478 22.884701460147014 0.2499999999999206
    vertex 152.3324127996478 22.884701460147014 21.374999999999993
  endloop
endfacet
facet normal 0.9238795325112884 -0.3826834323650859 -1.9731461894971817e-15
  outer loop
    vertex 155.26426445222592 20.63501256237309 0.2499999999999657
    vertex 155.0644636072167 20.152650652578135 21.374999999999947
    vertex 155.06446360721668 20.152650652578135 0.24999999999994313
  endloop
endfacet
facet normal 0.9238795325112884 -0.3826834323650859 -1.9731461894971817e-15
  outer loop
    vertex 155.0644636072167 20.152650652578135 21.374999999999947
    vertex 155.26426445222592 20.63501256237309 0.2499999999999657
    vertex 155.26426445222597 20.63501256237309 21.374999999999968
  endloop
endfacet
facet normal -0.9238795325112503 -0.3826834323651782 4.930876576573335e-16
  outer loop
    vertex 151.40056114706968 20.63501256237309 21.374999999999968
    vertex 151.60036199207897 20.152650652578135 0.24999999999994313
    vertex 151.600361992079 20.152650652578135 21.3749999999999
  endloop
endfacet
facet normal -0.9238795325112503 -0.3826834323651782 4.930876576573335e-16
  outer loop
    vertex 151.60036199207897 20.152650652578135 0.24999999999994313
    vertex 151.40056114706968 20.63501256237309 21.374999999999968
    vertex 151.40056114706968 20.63501256237309 0.24999999999998826
  endloop
endfacet
facet normal 0.3826834323651381 -0.9238795325112668 -4.0837439248047403e-16
  outer loop
    vertex 154.3324127996478 19.420599845009267 21.375000000000014
    vertex 153.85005088985287 19.22079899999999 0.2499999999999657
    vertex 154.3324127996478 19.420599845009267 0.24999999999989803
  endloop
endfacet
facet normal 0.3826834323651381 -0.9238795325112668 -4.0837439248047403e-16
  outer loop
    vertex 153.85005088985287 19.22079899999999 0.2499999999999657
    vertex 154.3324127996478 19.420599845009267 21.375000000000014
    vertex 153.85005088985292 19.22079899999999 21.37499999999988
  endloop
endfacet
facet normal -0.13052619222002393 0.991444861373814 2.5465409730095704e-16
  outer loop
    vertex 152.81477470944276 23.084502305156285 0.249999999999977
    vertex 153.33241279964784 23.152650652578135 11.812499999999954
    vertex 153.3324127996478 23.152650652578135 0.2499999999999206
  endloop
endfacet
facet normal -0.13052619222002393 0.991444861373814 2.5465409730095704e-16
  outer loop
    vertex 153.33241279964784 23.152650652578135 11.812499999999954
    vertex 152.81477470944276 23.084502305156285 0.249999999999977
    vertex 152.8147747094428 23.084502305156285 11.812499999999954
  endloop
endfacet
facet normal 0.3826834323650916 0.9238795325112862 -3.580870527631497e-16
  outer loop
    vertex 153.8500508898529 23.084502305156263 11.812499999999885
    vertex 153.9856942820859 23.02831697244709 11.812499999999863
    vertex 153.85005088985287 23.084502305156263 0.2499999999999657
  endloop
endfacet
facet normal 0.3826834323650916 0.9238795325112862 -3.580870527631497e-16
  outer loop
    vertex 153.85005088985292 23.084502305156263 21.37499999999988
    vertex 153.98569428208577 23.02831697244709 12.81249999999995
    vertex 153.8500508898529 23.084502305156263 12.812499999999906
  endloop
endfacet
facet normal 0.3826834323650916 0.9238795325112862 -3.580870527631497e-16
  outer loop
    vertex 153.85005088985287 23.084502305156263 0.2499999999999657
    vertex 154.3324127996478 22.884701460147014 21.375000000000014
    vertex 154.3324127996478 22.884701460147014 0.24999999999989803
  endloop
endfacet
facet normal 0.3826834323650916 0.9238795325112862 -3.580870527631497e-16
  outer loop
    vertex 154.3324127996478 22.884701460147014 21.375000000000014
    vertex 153.85005088985287 23.084502305156263 0.2499999999999657
    vertex 153.9856942820859 23.02831697244709 11.812499999999863
  endloop
endfacet
facet normal 0.3826834323650916 0.9238795325112862 -3.580870527631497e-16
  outer loop
    vertex 154.3324127996478 22.884701460147014 21.375000000000014
    vertex 153.9856942820859 23.02831697244709 11.812499999999863
    vertex 153.98569428208577 23.02831697244709 12.81249999999995
  endloop
endfacet
facet normal 0.3826834323650916 0.9238795325112862 -3.580870527631497e-16
  outer loop
    vertex 154.3324127996478 22.884701460147014 21.375000000000014
    vertex 153.98569428208577 23.02831697244709 12.81249999999995
    vertex 153.85005088985292 23.084502305156263 21.37499999999988
  endloop
endfacet
facet normal 0.7933533402912806 0.6087614290086615 7.158838124020169e-14
  outer loop
    vertex 154.74662636202095 22.566864214951245 -1.0151879337172431e-13
    vertex 155.06446360721668 22.15265065257813 0.24999999999994313
    vertex 155.06446360721665 22.15265065257813 -4.511946372076636e-14
  endloop
endfacet
facet normal 0.7933533402912806 0.6087614290086615 7.158838124020169e-14
  outer loop
    vertex 155.06446360721668 22.15265065257813 0.24999999999994313
    vertex 154.74662636202095 22.566864214951245 -1.0151879337172431e-13
    vertex 154.7466263620209 22.566864214951245 0.2499999999999657
  endloop
endfacet
facet normal 0.9914448613738132 0.1305261922200309 8.946623630084766e-14
  outer loop
    vertex 155.26426445222592 21.670288742783182 -1.127986593019159e-13
    vertex 155.33241279964776 21.15265065257814 0.249999999999977
    vertex 155.33241279964778 21.15265065257814 -1.127986593019159e-13
  endloop
endfacet
facet normal 0.9914448613738132 0.1305261922200309 8.946623630084766e-14
  outer loop
    vertex 155.33241279964776 21.15265065257814 0.249999999999977
    vertex 155.26426445222592 21.670288742783182 -1.127986593019159e-13
    vertex 155.26426445222592 21.670288742783182 0.2499999999999657
  endloop
endfacet
facet normal 0.60876142900872 0.7933533402912357 1.0978702315539953e-13
  outer loop
    vertex 154.3324127996478 22.884701460147014 0.24999999999989803
    vertex 154.74662636202095 22.566864214951245 -1.0151879337172431e-13
    vertex 154.33241279964784 22.884701460147014 -1.127986593019159e-13
  endloop
endfacet
facet normal 0.60876142900872 0.7933533402912357 1.0978702315539953e-13
  outer loop
    vertex 154.74662636202095 22.566864214951245 -1.0151879337172431e-13
    vertex 154.3324127996478 22.884701460147014 0.24999999999989803
    vertex 154.7466263620209 22.566864214951245 0.2499999999999657
  endloop
endfacet
facet normal -0.6087614290086887 -0.7933533402912597 -9.74906009780513e-16
  outer loop
    vertex 152.3324127996478 19.420599845009267 0.2499999999999206
    vertex 151.91819923727465 19.738437090205036 21.37500000000006
    vertex 151.91819923727473 19.738437090205036 0.2499999999999093
  endloop
endfacet
facet normal -0.6087614290086887 -0.7933533402912597 -9.74906009780513e-16
  outer loop
    vertex 151.91819923727465 19.738437090205036 21.37500000000006
    vertex 152.3324127996478 19.420599845009267 0.2499999999999206
    vertex 152.3324127996478 19.420599845009267 21.374999999999993
  endloop
endfacet
facet normal 0.6087614290087096 -0.7933533402912438 -9.74654837068485e-16
  outer loop
    vertex 154.7466263620209 19.738437090205036 0.2499999999999657
    vertex 154.3324127996478 19.420599845009267 21.375000000000014
    vertex 154.3324127996478 19.420599845009267 0.24999999999989803
  endloop
endfacet
facet normal 0.6087614290087096 -0.7933533402912438 -9.74654837068485e-16
  outer loop
    vertex 154.3324127996478 19.420599845009267 21.375000000000014
    vertex 154.7466263620209 19.738437090205036 0.2499999999999657
    vertex 154.74662636202095 19.738437090205036 21.374999999999925
  endloop
endfacet
facet normal 0.13052619222002393 -0.991444861373814 -1.3933850054982137e-16
  outer loop
    vertex 153.85005088985287 19.22079899999999 0.2499999999999657
    vertex 153.3324127996478 19.15265065257814 21.374999999999993
    vertex 153.3324127996478 19.15265065257814 0.2499999999999206
  endloop
endfacet
facet normal 0.13052619222002393 -0.991444861373814 -1.3933850054982137e-16
  outer loop
    vertex 153.3324127996478 19.15265065257814 21.374999999999993
    vertex 153.85005088985287 19.22079899999999 0.2499999999999657
    vertex 153.85005088985292 19.22079899999999 21.37499999999988
  endloop
endfacet
facet normal 0.9238795325112809 -0.3826834323651044 -4.1680954431925646e-14
  outer loop
    vertex 155.26426445222592 20.63501256237309 -1.127986593019159e-13
    vertex 155.06446360721668 20.152650652578135 0.24999999999994313
    vertex 155.06446360721665 20.152650652578135 -4.511946372076636e-14
  endloop
endfacet
facet normal 0.9238795325112809 -0.3826834323651044 -4.1680954431925646e-14
  outer loop
    vertex 155.06446360721668 20.152650652578135 0.24999999999994313
    vertex 155.26426445222592 20.63501256237309 -1.127986593019159e-13
    vertex 155.26426445222592 20.63501256237309 0.2499999999999657
  endloop
endfacet
facet normal -0.3826834323650707 -0.9238795325112948 4.08442597581716e-16
  outer loop
    vertex 152.81477470944276 19.220799000000014 0.249999999999977
    vertex 152.3324127996478 19.420599845009267 21.374999999999993
    vertex 152.3324127996478 19.420599845009267 0.2499999999999206
  endloop
endfacet
facet normal -0.3826834323650707 -0.9238795325112948 4.08442597581716e-16
  outer loop
    vertex 152.3324127996478 19.420599845009267 21.374999999999993
    vertex 152.81477470944276 19.220799000000014 0.249999999999977
    vertex 152.81477470944282 19.220799000000014 21.374999999999947
  endloop
endfacet
facet normal -0.38268343236517394 0.9238795325112519 -5.1169873647507e-16
  outer loop
    vertex 152.52375451583038 22.422761693891385 21.374999999999947
    vertex 153.00611642562535 22.622562538900663 0.24999999999998826
    vertex 152.5237545158304 22.422761693891385 0.24999999999995443
  endloop
endfacet
facet normal -0.38268343236517394 0.9238795325112519 -5.1169873647507e-16
  outer loop
    vertex 153.00611642562535 22.622562538900663 0.24999999999998826
    vertex 152.52375451583038 22.422761693891385 21.374999999999947
    vertex 153.00611642562532 22.622562538900684 11.812499999999998
  endloop
endfacet
facet normal -0.38268343236517394 0.9238795325112519 -5.1169873647507e-16
  outer loop
    vertex 153.00611642562532 22.622562538900684 11.812499999999998
    vertex 152.52375451583038 22.422761693891385 21.374999999999947
    vertex 153.00611642562535 22.622562538900684 12.812499999999906
  endloop
endfacet
facet normal -0.38268343236517394 0.9238795325112519 -5.1169873647507e-16
  outer loop
    vertex 153.00611642562535 22.622562538900684 12.812499999999906
    vertex 152.52375451583038 22.422761693891385 21.374999999999947
    vertex 153.00611642562535 22.622562538900663 21.374999999999982
  endloop
endfacet
facet normal -0.38268343236517394 0.9238795325112519 -5.1169873647507e-16
  outer loop
    vertex 153.00611642562532 22.622562538900684 11.812499999999998
    vertex 153.98569428208577 23.02831697244709 12.81249999999995
    vertex 153.9856942820859 23.02831697244709 11.812499999999863
  endloop
endfacet
facet normal -0.38268343236517394 0.9238795325112519 -5.1169873647507e-16
  outer loop
    vertex 153.98569428208577 23.02831697244709 12.81249999999995
    vertex 153.00611642562532 22.622562538900684 11.812499999999998
    vertex 153.00611642562535 22.622562538900684 12.812499999999906
  endloop
endfacet
facet normal -0.923879532511267 -0.3826834323651376 1.930460257200709e-15
  outer loop
    vertex 152.81477470944282 23.084502305156285 21.374999999999947
    vertex 153.00611642562535 22.622562538900684 12.812499999999906
    vertex 153.00611642562535 22.622562538900663 21.374999999999982
  endloop
endfacet
facet normal -0.923879532511267 -0.3826834323651376 1.930460257200709e-15
  outer loop
    vertex 153.00611642562535 22.622562538900684 12.812499999999906
    vertex 152.81477470944282 23.084502305156285 21.374999999999947
    vertex 152.81477470944276 23.084502305156285 12.81249999999995
  endloop
endfacet
facet normal -0.13052619222007203 -0.9914448613738077 1.3940640122989008e-16
  outer loop
    vertex 153.3324127996478 19.15265065257814 21.374999999999993
    vertex 152.81477470944276 19.220799000000014 0.249999999999977
    vertex 153.3324127996478 19.15265065257814 0.2499999999999206
  endloop
endfacet
facet normal -0.13052619222007203 -0.9914448613738077 1.3940640122989008e-16
  outer loop
    vertex 152.81477470944276 19.220799000000014 0.249999999999977
    vertex 153.3324127996478 19.15265065257814 21.374999999999993
    vertex 152.81477470944282 19.220799000000014 21.374999999999947
  endloop
endfacet
facet normal 0.9238795325112884 0.3826834323650859 -1.9731461894971817e-15
  outer loop
    vertex 155.06446360721668 22.15265065257813 0.24999999999994313
    vertex 155.26426445222597 21.670288742783182 21.374999999999968
    vertex 155.26426445222592 21.670288742783182 0.2499999999999657
  endloop
endfacet
facet normal 0.9238795325112884 0.3826834323650859 -1.9731461894971817e-15
  outer loop
    vertex 155.26426445222597 21.670288742783182 21.374999999999968
    vertex 155.06446360721668 22.15265065257813 0.24999999999994313
    vertex 155.0644636072167 22.15265065257813 21.374999999999947
  endloop
endfacet
facet normal 0.6087614290087096 0.7933533402912438 -9.74654837068485e-16
  outer loop
    vertex 154.3324127996478 22.884701460147014 21.375000000000014
    vertex 154.7466263620209 22.566864214951245 0.2499999999999657
    vertex 154.3324127996478 22.884701460147014 0.24999999999989803
  endloop
endfacet
facet normal 0.6087614290087096 0.7933533402912438 -9.74654837068485e-16
  outer loop
    vertex 154.7466263620209 22.566864214951245 0.2499999999999657
    vertex 154.3324127996478 22.884701460147014 21.375000000000014
    vertex 154.74662636202095 22.566864214951245 21.374999999999925
  endloop
endfacet
facet normal -0.923879532511267 -0.3826834323651377 3.735949069750567e-16
  outer loop
    vertex 153.00611642562532 22.622562538900684 11.812499999999998
    vertex 152.81477470944276 23.084502305156285 0.249999999999977
    vertex 153.00611642562535 22.622562538900663 0.24999999999998826
  endloop
endfacet
facet normal -0.923879532511267 -0.3826834323651377 3.735949069750567e-16
  outer loop
    vertex 152.81477470944276 23.084502305156285 0.249999999999977
    vertex 153.00611642562532 22.622562538900684 11.812499999999998
    vertex 152.8147747094428 23.084502305156285 11.812499999999954
  endloop
endfacet
facet normal -0.13052619222003234 0.9914448613738132 5.15957818280844e-16
  outer loop
    vertex 152.81477470944282 23.084502305156285 21.374999999999947
    vertex 153.3324127996478 23.152650652578135 12.812499999999973
    vertex 152.81477470944276 23.084502305156285 12.81249999999995
  endloop
endfacet
facet normal -0.13052619222003234 0.9914448613738132 5.15957818280844e-16
  outer loop
    vertex 153.3324127996478 23.152650652578135 12.812499999999973
    vertex 152.81477470944282 23.084502305156285 21.374999999999947
    vertex 153.3324127996478 23.152650652578135 21.374999999999993
  endloop
endfacet
facet normal 0.9914448613738079 -0.13052619222007059 -4.235102631887633e-15
  outer loop
    vertex 155.33241279964776 21.15265065257814 0.249999999999977
    vertex 155.26426445222597 20.63501256237309 21.374999999999968
    vertex 155.26426445222592 20.63501256237309 0.2499999999999657
  endloop
endfacet
facet normal 0.9914448613738079 -0.13052619222007059 -4.235102631887633e-15
  outer loop
    vertex 155.26426445222597 20.63501256237309 21.374999999999968
    vertex 155.33241279964776 21.15265065257814 0.249999999999977
    vertex 155.3324127996479 21.15265065257814 21.374999999999925
  endloop
endfacet
facet normal -1.8352580724706342e-14 1.0471751562372978e-13 -1.0
  outer loop
    vertex 153.3324127996478 23.152650652578135 12.812499999999973
    vertex 153.00611642562535 22.622562538900684 12.812499999999906
    vertex 152.81477470944276 23.084502305156285 12.81249999999995
  endloop
endfacet
facet normal -1.8352580724706342e-14 1.0471751562372978e-13 -1.0
  outer loop
    vertex 153.00611642562535 22.622562538900684 12.812499999999906
    vertex 153.3324127996478 23.152650652578135 12.812499999999973
    vertex 153.98569428208577 23.02831697244709 12.81249999999995
  endloop
endfacet
facet normal -1.8352580724706342e-14 1.0471751562372978e-13 -1.0
  outer loop
    vertex 153.98569428208577 23.02831697244709 12.81249999999995
    vertex 153.3324127996478 23.152650652578135 12.812499999999973
    vertex 153.8500508898529 23.084502305156263 12.812499999999906
  endloop
endfacet
facet normal -9.710667101550296e-14 8.614055481199969e-15 1.0
  outer loop
    vertex 152.5237545158304 22.422761693891385 0.24999999999995443
    vertex 152.81477470944276 23.084502305156285 0.249999999999977
    vertex 152.3324127996478 22.884701460147014 0.2499999999999206
  endloop
endfacet
facet normal -9.710667101550296e-14 8.614055481199969e-15 1.0
  outer loop
    vertex 152.81477470944276 23.084502305156285 0.249999999999977
    vertex 152.5237545158304 22.422761693891385 0.24999999999995443
    vertex 153.00611642562535 22.622562538900663 0.24999999999998826
  endloop
endfacet
facet normal -0.9238795325112503 0.38268343236517827 4.930876576573335e-16
  outer loop
    vertex 151.600361992079 22.15265065257813 21.3749999999999
    vertex 151.40056114706968 21.670288742783182 0.24999999999998826
    vertex 151.40056114706968 21.670288742783182 21.374999999999968
  endloop
endfacet
facet normal -0.9238795325112503 0.38268343236517827 4.930876576573335e-16
  outer loop
    vertex 151.40056114706968 21.670288742783182 0.24999999999998826
    vertex 151.600361992079 22.15265065257813 21.3749999999999
    vertex 151.60036199207897 22.15265065257813 0.24999999999994313
  endloop
endfacet
facet normal -0.7933533402913224 0.6087614290086072 -8.473777182537957e-16
  outer loop
    vertex 151.91819923727465 22.566864214951245 21.37500000000006
    vertex 151.60036199207897 22.15265065257813 0.24999999999994313
    vertex 151.600361992079 22.15265065257813 21.3749999999999
  endloop
endfacet
facet normal -0.7933533402913224 0.6087614290086072 -8.473777182537957e-16
  outer loop
    vertex 151.60036199207897 22.15265065257813 0.24999999999994313
    vertex 151.91819923727465 22.566864214951245 21.37500000000006
    vertex 151.91819923727473 22.566864214951245 0.2499999999999093
  endloop
endfacet
facet normal 8.646730841744981e-14 7.482201773958636e-14 1.0
  outer loop
    vertex 153.00611642562532 22.622562538900684 11.812499999999998
    vertex 153.33241279964784 23.152650652578135 11.812499999999954
    vertex 152.8147747094428 23.084502305156285 11.812499999999954
  endloop
endfacet
facet normal 8.646730841744981e-14 7.482201773958636e-14 1.0
  outer loop
    vertex 153.33241279964784 23.152650652578135 11.812499999999954
    vertex 153.00611642562532 22.622562538900684 11.812499999999998
    vertex 153.9856942820859 23.02831697244709 11.812499999999863
  endloop
endfacet
facet normal 8.646730841744981e-14 7.482201773958636e-14 1.0
  outer loop
    vertex 153.33241279964784 23.152650652578135 11.812499999999954
    vertex 153.9856942820859 23.02831697244709 11.812499999999863
    vertex 153.8500508898529 23.084502305156263 11.812499999999885
  endloop
endfacet
facet normal 0.13052619222006082 0.9914448613738094 -3.4351959249771924e-16
  outer loop
    vertex 153.3324127996478 23.152650652578135 12.812499999999973
    vertex 153.85005088985292 23.084502305156263 21.37499999999988
    vertex 153.8500508898529 23.084502305156263 12.812499999999906
  endloop
endfacet
facet normal 0.13052619222006082 0.9914448613738094 -3.4351959249771924e-16
  outer loop
    vertex 153.85005088985292 23.084502305156263 21.37499999999988
    vertex 153.3324127996478 23.152650652578135 12.812499999999973
    vertex 153.3324127996478 23.152650652578135 21.374999999999993
  endloop
endfacet
endsolid draft
