solid draft
facet normal 0.9914448613738096 -0.13052619222005837 8.17394147095949e-15
  outer loop
    vertex 353.5778034237215 198.05843719850736 9.500000000000043
    vertex 353.53521070658263 197.73491339212922 44.99999999999974
    vertex 353.53521070658286 197.73491339212922 9.500000000000043
  endloop
endfacet
facet normal 0.9914448613738096 -0.13052619222005837 8.17394147095949e-15
  outer loop
    vertex 353.53521070658263 197.73491339212922 44.99999999999974
    vertex 353.5778034237215 198.05843719850736 9.500000000000043
    vertex 353.57780342372126 198.05843719850736 44.99999999999974
  endloop
endfacet
facet normal 0.13052619222011738 -0.9914448613738018 1.0761198097855531e-15
  outer loop
    vertex 352.65132723009947 196.85102991564608 44.99999999999973
    vertex 352.32780342372155 196.8084371985074 9.50000000000003
    vertex 352.6513272300997 196.85102991564608 9.50000000000003
  endloop
endfacet
facet normal 0.13052619222011738 -0.9914448613738018 1.0761198097855531e-15
  outer loop
    vertex 352.32780342372155 196.8084371985074 9.50000000000003
    vertex 352.65132723009947 196.85102991564608 44.99999999999973
    vertex 352.3278034237213 196.8084371985074 44.99999999999973
  endloop
endfacet
facet normal -0.13052619222006728 -0.9914448613738084 -1.0761198097851384e-15
  outer loop
    vertex 352.3278034237213 196.8084371985074 44.99999999999973
    vertex 352.0042796173434 196.85102991564605 9.50000000000003
    vertex 352.32780342372155 196.8084371985074 9.50000000000003
  endloop
endfacet
facet normal -0.13052619222006728 -0.9914448613738084 -1.0761198097851384e-15
  outer loop
    vertex 352.0042796173434 196.85102991564605 9.50000000000003
    vertex 352.3278034237213 196.8084371985074 44.99999999999973
    vertex 352.0042796173432 196.85102991564605 44.99999999999973
  endloop
endfacet
facet normal 0.793353340291212 -0.608761429008751 6.540781058005371e-15
  outer loop
    vertex 353.4103351784521 197.43343719850736 9.500000000000043
    vertex 353.2116869002045 197.1745537220242 44.99999999999973
    vertex 353.2116869002047 197.1745537220242 9.50000000000003
  endloop
endfacet
facet normal 0.793353340291212 -0.608761429008751 6.540781058005371e-15
  outer loop
    vertex 353.2116869002045 197.1745537220242 44.99999999999973
    vertex 353.4103351784521 197.43343719850736 9.500000000000043
    vertex 353.4103351784519 197.43343719850736 44.99999999999974
  endloop
endfacet
facet normal 0.382683432365063 -0.9238795325112978 3.1550236426900317e-15
  outer loop
    vertex 352.95280342372126 196.97590544377684 44.99999999999973
    vertex 352.6513272300997 196.85102991564608 9.50000000000003
    vertex 352.9528034237215 196.97590544377684 9.50000000000003
  endloop
endfacet
facet normal 0.382683432365063 -0.9238795325112978 3.1550236426900317e-15
  outer loop
    vertex 352.6513272300997 196.85102991564608 9.50000000000003
    vertex 352.95280342372126 196.97590544377684 44.99999999999973
    vertex 352.65132723009947 196.85102991564608 44.99999999999973
  endloop
endfacet
facet normal -0.38268343236512203 -0.9238795325112733 -3.1550236426905165e-15
  outer loop
    vertex 352.0042796173432 196.85102991564605 44.99999999999973
    vertex 351.70280342372155 196.97590544377684 9.50000000000003
    vertex 352.0042796173434 196.85102991564605 9.50000000000003
  endloop
endfacet
facet normal -0.38268343236512203 -0.9238795325112733 -3.1550236426905165e-15
  outer loop
    vertex 351.70280342372155 196.97590544377684 9.50000000000003
    vertex 352.0042796173432 196.85102991564605 44.99999999999973
    vertex 351.7028034237213 196.97590544377684 44.99999999999973
  endloop
endfacet
facet normal 0.9238795325113325 -0.38268343236497965 7.616900867790948e-15
  outer loop
    vertex 353.53521070658286 197.73491339212922 9.500000000000043
    vertex 353.4103351784519 197.43343719850736 44.99999999999974
    vertex 353.4103351784521 197.43343719850736 9.500000000000043
  endloop
endfacet
facet normal 0.9238795325113325 -0.38268343236497965 7.616900867790948e-15
  outer loop
    vertex 353.4103351784519 197.43343719850736 44.99999999999974
    vertex 353.53521070658286 197.73491339212922 9.500000000000043
    vertex 353.53521070658263 197.73491339212922 44.99999999999974
  endloop
endfacet
facet normal 0.6087614290086741 -0.793353340291271 5.018917828268862e-15
  outer loop
    vertex 353.2116869002045 197.1745537220242 44.99999999999973
    vertex 352.9528034237215 196.97590544377684 9.50000000000003
    vertex 353.2116869002047 197.1745537220242 9.50000000000003
  endloop
endfacet
facet normal 0.6087614290086741 -0.793353340291271 5.018917828268862e-15
  outer loop
    vertex 352.9528034237215 196.97590544377684 9.50000000000003
    vertex 353.2116869002045 197.1745537220242 44.99999999999973
    vertex 352.95280342372126 196.97590544377684 44.99999999999973
  endloop
endfacet
facet normal 0.38268343236512203 0.9238795325112733 3.1550236426905165e-15
  outer loop
    vertex 352.6513272300994 199.2658444813687 44.999999999999744
    vertex 352.9528034237215 199.1409689532379 9.500000000000043
    vertex 352.65132723009964 199.2658444813687 9.500000000000043
  endloop
endfacet
facet normal 0.38268343236512203 0.9238795325112733 3.1550236426905165e-15
  outer loop
    vertex 352.9528034237215 199.1409689532379 9.500000000000043
    vertex 352.6513272300994 199.2658444813687 44.999999999999744
    vertex 352.95280342372126 199.1409689532379 44.999999999999744
  endloop
endfacet
facet normal 0.9914448613738096 0.13052619222005837 8.17394147095949e-15
  outer loop
    vertex 353.53521070658286 198.3819610048855 9.500000000000043
    vertex 353.57780342372126 198.05843719850736 44.99999999999974
    vertex 353.5778034237215 198.05843719850736 9.500000000000043
  endloop
endfacet
facet normal 0.9914448613738096 0.13052619222005837 8.17394147095949e-15
  outer loop
    vertex 353.57780342372126 198.05843719850736 44.99999999999974
    vertex 353.53521070658286 198.3819610048855 9.500000000000043
    vertex 353.53521070658263 198.3819610048855 44.999999999999744
  endloop
endfacet
facet normal 0.7933533402911863 0.6087614290087844 6.540781058005157e-15
  outer loop
    vertex 353.21168690020465 198.94232067499053 9.500000000000043
    vertex 353.4103351784518 198.68343719850736 44.999999999999744
    vertex 353.41033517845204 198.68343719850736 9.500000000000043
  endloop
endfacet
facet normal 0.7933533402911863 0.6087614290087844 6.540781058005157e-15
  outer loop
    vertex 353.4103351784518 198.68343719850736 44.999999999999744
    vertex 353.21168690020465 198.94232067499053 9.500000000000043
    vertex 353.2116869002044 198.94232067499053 44.999999999999744
  endloop
endfacet
facet normal -0.382683432365063 0.9238795325112978 -3.1550236426900317e-15
  outer loop
    vertex 351.7028034237213 199.1409689532379 44.999999999999744
    vertex 352.00427961734334 199.26584448136867 9.500000000000043
    vertex 351.70280342372155 199.1409689532379 9.500000000000043
  endloop
endfacet
facet normal -0.382683432365063 0.9238795325112978 -3.1550236426900317e-15
  outer loop
    vertex 352.00427961734334 199.26584448136867 9.500000000000043
    vertex 351.7028034237213 199.1409689532379 44.999999999999744
    vertex 352.0042796173431 199.26584448136867 44.999999999999744
  endloop
endfacet
facet normal -0.793353340291212 -0.608761429008751 -6.540781058005369e-15
  outer loop
    vertex 351.24527166899077 197.43343719850736 44.99999999999973
    vertex 351.4439199472384 197.1745537220242 9.50000000000003
    vertex 351.44391994723816 197.1745537220242 44.99999999999973
  endloop
endfacet
facet normal -0.793353340291212 -0.608761429008751 -6.540781058005369e-15
  outer loop
    vertex 351.4439199472384 197.1745537220242 9.50000000000003
    vertex 351.24527166899077 197.43343719850736 44.99999999999973
    vertex 351.245271668991 197.43343719850736 9.50000000000003
  endloop
endfacet
facet normal 0.6087614290087175 0.7933533402912375 5.018917828269217e-15
  outer loop
    vertex 352.95280342372126 199.1409689532379 44.999999999999744
    vertex 353.21168690020465 198.94232067499053 9.500000000000043
    vertex 352.9528034237215 199.1409689532379 9.500000000000043
  endloop
endfacet
facet normal 0.6087614290087175 0.7933533402912375 5.018917828269217e-15
  outer loop
    vertex 353.21168690020465 198.94232067499053 9.500000000000043
    vertex 352.95280342372126 199.1409689532379 44.999999999999744
    vertex 353.2116869002044 198.94232067499053 44.999999999999744
  endloop
endfacet
facet normal 0.13052619222006728 0.9914448613738084 1.0761198097851384e-15
  outer loop
    vertex 352.3278034237213 199.30843719850736 44.999999999999744
    vertex 352.65132723009964 199.2658444813687 9.500000000000043
    vertex 352.32780342372155 199.30843719850736 9.500000000000043
  endloop
endfacet
facet normal 0.13052619222006728 0.9914448613738084 1.0761198097851384e-15
  outer loop
    vertex 352.65132723009964 199.2658444813687 9.500000000000043
    vertex 352.3278034237213 199.30843719850736 44.999999999999744
    vertex 352.6513272300994 199.2658444813687 44.999999999999744
  endloop
endfacet
facet normal -0.9238795325113325 0.38268343236497965 -7.616900867790948e-15
  outer loop
    vertex 351.2452716689907 198.68343719850736 44.99999999999974
    vertex 351.1203961408602 198.3819610048855 9.500000000000043
    vertex 351.12039614085995 198.3819610048855 44.99999999999974
  endloop
endfacet
facet normal -0.9238795325113325 0.38268343236497965 -7.616900867790948e-15
  outer loop
    vertex 351.1203961408602 198.3819610048855 9.500000000000043
    vertex 351.2452716689907 198.68343719850736 44.99999999999974
    vertex 351.24527166899094 198.68343719850736 9.500000000000043
  endloop
endfacet
facet normal -0.793353340291212 0.608761429008751 -6.540781058005371e-15
  outer loop
    vertex 351.4439199472381 198.94232067499055 44.999999999999744
    vertex 351.24527166899094 198.68343719850736 9.500000000000043
    vertex 351.2452716689907 198.68343719850736 44.99999999999974
  endloop
endfacet
facet normal -0.793353340291212 0.608761429008751 -6.540781058005371e-15
  outer loop
    vertex 351.24527166899094 198.68343719850736 9.500000000000043
    vertex 351.4439199472381 198.94232067499055 44.999999999999744
    vertex 351.4439199472383 198.94232067499055 9.500000000000043
  endloop
endfacet
facet normal -0.6087614290086741 -0.793353340291271 -5.018917828268859e-15
  outer loop
    vertex 351.7028034237213 196.97590544377684 44.99999999999973
    vertex 351.4439199472384 197.1745537220242 9.50000000000003
    vertex 351.70280342372155 196.97590544377684 9.50000000000003
  endloop
endfacet
facet normal -0.6087614290086741 -0.793353340291271 -5.018917828268859e-15
  outer loop
    vertex 351.4439199472384 197.1745537220242 9.50000000000003
    vertex 351.7028034237213 196.97590544377684 44.99999999999973
    vertex 351.44391994723816 197.1745537220242 44.99999999999973
  endloop
endfacet
facet normal -0.13052619222011738 0.9914448613738018 -1.0761198097855531e-15
  outer loop
    vertex 352.0042796173431 199.26584448136867 44.999999999999744
    vertex 352.32780342372155 199.30843719850736 9.500000000000043
    vertex 352.00427961734334 199.26584448136867 9.500000000000043
  endloop
endfacet
facet normal -0.13052619222011738 0.9914448613738018 -1.0761198097855531e-15
  outer loop
    vertex 352.32780342372155 199.30843719850736 9.500000000000043
    vertex 352.0042796173431 199.26584448136867 44.999999999999744
    vertex 352.3278034237213 199.30843719850736 44.999999999999744
  endloop
endfacet
facet normal 0.9238795325112836 0.3826834323650976 7.616900867790545e-15
  outer loop
    vertex 353.41033517845204 198.68343719850736 9.500000000000043
    vertex 353.53521070658263 198.3819610048855 44.999999999999744
    vertex 353.53521070658286 198.3819610048855 9.500000000000043
  endloop
endfacet
facet normal 0.9238795325112836 0.3826834323650976 7.616900867790545e-15
  outer loop
    vertex 353.53521070658263 198.3819610048855 44.999999999999744
    vertex 353.41033517845204 198.68343719850736 9.500000000000043
    vertex 353.4103351784518 198.68343719850736 44.999999999999744
  endloop
endfacet
facet normal -0.9238795325112836 -0.3826834323650976 -7.616900867790545e-15
  outer loop
    vertex 351.12039614085995 197.73491339212922 44.99999999999973
    vertex 351.245271668991 197.43343719850736 9.50000000000003
    vertex 351.24527166899077 197.43343719850736 44.99999999999973
  endloop
endfacet
facet normal -0.9238795325112836 -0.3826834323650976 -7.616900867790545e-15
  outer loop
    vertex 351.245271668991 197.43343719850736 9.50000000000003
    vertex 351.12039614085995 197.73491339212922 44.99999999999973
    vertex 351.1203961408602 197.73491339212922 9.50000000000003
  endloop
endfacet
facet normal -0.6087614290086741 0.793353340291271 -5.018917828268862e-15
  outer loop
    vertex 351.4439199472381 198.94232067499055 44.999999999999744
    vertex 351.70280342372155 199.1409689532379 9.500000000000043
    vertex 351.4439199472383 198.94232067499055 9.500000000000043
  endloop
endfacet
facet normal -0.6087614290086741 0.793353340291271 -5.018917828268862e-15
  outer loop
    vertex 351.70280342372155 199.1409689532379 9.500000000000043
    vertex 351.4439199472381 198.94232067499055 44.999999999999744
    vertex 351.7028034237213 199.1409689532379 44.999999999999744
  endloop
endfacet
facet normal -0.9914448613738096 0.13052619222005837 -8.17394147095949e-15
  outer loop
    vertex 351.12039614085995 198.3819610048855 44.99999999999974
    vertex 351.07780342372155 198.05843719850736 9.500000000000043
    vertex 351.0778034237213 198.05843719850736 44.99999999999974
  endloop
endfacet
facet normal -0.9914448613738096 0.13052619222005837 -8.17394147095949e-15
  outer loop
    vertex 351.07780342372155 198.05843719850736 9.500000000000043
    vertex 351.12039614085995 198.3819610048855 44.99999999999974
    vertex 351.1203961408602 198.3819610048855 9.500000000000043
  endloop
endfacet
facet normal -0.9914448613738096 -0.13052619222005837 -8.17394147095949e-15
  outer loop
    vertex 351.0778034237213 198.05843719850736 44.99999999999974
    vertex 351.1203961408602 197.73491339212922 9.50000000000003
    vertex 351.12039614085995 197.73491339212922 44.99999999999973
  endloop
endfacet
facet normal -0.9914448613738096 -0.13052619222005837 -8.17394147095949e-15
  outer loop
    vertex 351.1203961408602 197.73491339212922 9.50000000000003
    vertex 351.0778034237213 198.05843719850736 44.99999999999974
    vertex 351.07780342372155 198.05843719850736 9.500000000000043
  endloop
endfacet
facet normal -1.377610951058605e-15 -5.14131406241402e-15 1.0
  outer loop
    vertex 351.12039614085995 197.73491339212922 44.99999999999973
    vertex 351.12039614085995 198.3819610048855 44.99999999999974
    vertex 351.0778034237213 198.05843719850736 44.99999999999974
  endloop
endfacet
facet normal -1.377610951058605e-15 -5.14131406241402e-15 1.0
  outer loop
    vertex 351.12039614085995 198.3819610048855 44.99999999999974
    vertex 351.12039614085995 197.73491339212922 44.99999999999973
    vertex 351.24527166899077 197.43343719850736 44.99999999999973
  endloop
endfacet
facet normal -1.377610951058605e-15 -5.14131406241402e-15 1.0
  outer loop
    vertex 351.12039614085995 198.3819610048855 44.99999999999974
    vertex 351.24527166899077 197.43343719850736 44.99999999999973
    vertex 351.2452716689907 198.68343719850736 44.99999999999974
  endloop
endfacet
facet normal -1.377610951058605e-15 -5.14131406241402e-15 1.0
  outer loop
    vertex 351.2452716689907 198.68343719850736 44.99999999999974
    vertex 351.24527166899077 197.43343719850736 44.99999999999973
    vertex 351.4439199472381 198.94232067499055 44.999999999999744
  endloop
endfacet
facet normal -1.377610951058605e-15 -5.14131406241402e-15 1.0
  outer loop
    vertex 351.4439199472381 198.94232067499055 44.999999999999744
    vertex 351.24527166899077 197.43343719850736 44.99999999999973
    vertex 351.44391994723816 197.1745537220242 44.99999999999973
  endloop
endfacet
facet normal -1.377610951058605e-15 -5.14131406241402e-15 1.0
  outer loop
    vertex 351.4439199472381 198.94232067499055 44.999999999999744
    vertex 351.44391994723816 197.1745537220242 44.99999999999973
    vertex 351.7028034237213 199.1409689532379 44.999999999999744
  endloop
endfacet
facet normal -1.377610951058605e-15 -5.14131406241402e-15 1.0
  outer loop
    vertex 351.7028034237213 199.1409689532379 44.999999999999744
    vertex 351.44391994723816 197.1745537220242 44.99999999999973
    vertex 351.7028034237213 196.97590544377684 44.99999999999973
  endloop
endfacet
facet normal -1.377610951058605e-15 -5.14131406241402e-15 1.0
  outer loop
    vertex 351.7028034237213 199.1409689532379 44.999999999999744
    vertex 351.7028034237213 196.97590544377684 44.99999999999973
    vertex 352.0042796173431 199.26584448136867 44.999999999999744
  endloop
endfacet
facet normal -1.377610951058605e-15 -5.14131406241402e-15 1.0
  outer loop
    vertex 352.0042796173431 199.26584448136867 44.999999999999744
    vertex 351.7028034237213 196.97590544377684 44.99999999999973
    vertex 352.0042796173432 196.85102991564605 44.99999999999973
  endloop
endfacet
facet normal -1.377610951058605e-15 -5.14131406241402e-15 1.0
  outer loop
    vertex 352.0042796173431 199.26584448136867 44.999999999999744
    vertex 352.0042796173432 196.85102991564605 44.99999999999973
    vertex 352.3278034237213 199.30843719850736 44.999999999999744
  endloop
endfacet
facet normal -1.377610951058605e-15 -5.14131406241402e-15 1.0
  outer loop
    vertex 352.3278034237213 199.30843719850736 44.999999999999744
    vertex 352.0042796173432 196.85102991564605 44.99999999999973
    vertex 352.3278034237213 196.8084371985074 44.99999999999973
  endloop
endfacet
facet normal -1.377610951058605e-15 -5.14131406241402e-15 1.0
  outer loop
    vertex 352.3278034237213 199.30843719850736 44.999999999999744
    vertex 352.3278034237213 196.8084371985074 44.99999999999973
    vertex 352.65132723009947 196.85102991564608 44.99999999999973
  endloop
endfacet
facet normal -1.377610951058605e-15 -5.14131406241402e-15 1.0
  outer loop
    vertex 352.3278034237213 199.30843719850736 44.999999999999744
    vertex 352.65132723009947 196.85102991564608 44.99999999999973
    vertex 352.6513272300994 199.2658444813687 44.999999999999744
  endloop
endfacet
facet normal -1.377610951058605e-15 -5.14131406241402e-15 1.0
  outer loop
    vertex 352.6513272300994 199.2658444813687 44.999999999999744
    vertex 352.65132723009947 196.85102991564608 44.99999999999973
    vertex 352.95280342372126 199.1409689532379 44.999999999999744
  endloop
endfacet
facet normal -1.377610951058605e-15 -5.14131406241402e-15 1.0
  outer loop
    vertex 352.95280342372126 199.1409689532379 44.999999999999744
    vertex 352.65132723009947 196.85102991564608 44.99999999999973
    vertex 352.95280342372126 196.97590544377684 44.99999999999973
  endloop
endfacet
facet normal -1.377610951058605e-15 -5.14131406241402e-15 1.0
  outer loop
    vertex 352.95280342372126 199.1409689532379 44.999999999999744
    vertex 352.95280342372126 196.97590544377684 44.99999999999973
    vertex 353.2116869002044 198.94232067499053 44.999999999999744
  endloop
endfacet
facet normal -1.377610951058605e-15 -5.14131406241402e-15 1.0
  outer loop
    vertex 353.2116869002044 198.94232067499053 44.999999999999744
    vertex 352.95280342372126 196.97590544377684 44.99999999999973
    vertex 353.2116869002045 197.1745537220242 44.99999999999973
  endloop
endfacet
facet normal -1.377610951058605e-15 -5.14131406241402e-15 1.0
  outer loop
    vertex 353.2116869002044 198.94232067499053 44.999999999999744
    vertex 353.2116869002045 197.1745537220242 44.99999999999973
    vertex 353.4103351784518 198.68343719850736 44.999999999999744
  endloop
endfacet
facet normal -1.377610951058605e-15 -5.14131406241402e-15 1.0
  outer loop
    vertex 353.4103351784518 198.68343719850736 44.999999999999744
    vertex 353.2116869002045 197.1745537220242 44.99999999999973
    vertex 353.4103351784519 197.43343719850736 44.99999999999974
  endloop
endfacet
facet normal -1.377610951058605e-15 -5.14131406241402e-15 1.0
  outer loop
    vertex 353.4103351784518 198.68343719850736 44.999999999999744
    vertex 353.4103351784519 197.43343719850736 44.99999999999974
    vertex 353.53521070658263 198.3819610048855 44.999999999999744
  endloop
endfacet
facet normal -1.377610951058605e-15 -5.14131406241402e-15 1.0
  outer loop
    vertex 353.53521070658263 198.3819610048855 44.999999999999744
    vertex 353.4103351784519 197.43343719850736 44.99999999999974
    vertex 353.53521070658263 197.73491339212922 44.99999999999974
  endloop
endfacet
facet normal -1.377610951058605e-15 -5.14131406241402e-15 1.0
  outer loop
    vertex 353.53521070658263 198.3819610048855 44.999999999999744
    vertex 353.53521070658263 197.73491339212922 44.99999999999974
    vertex 353.57780342372126 198.05843719850736 44.99999999999974
  endloop
endfacet
endsolid draft
